{"glyphs":{"0":{"ha":839,"x_min":67,"x_max":775,"o":"m 410 -19 q 145 103 224 -19 q 67 453 67 225 q 157 798 67 674 q 435 922 247 922 q 698 801 621 922 q 775 453 775 681 q 686 106 775 231 q 410 -19 597 -19 m 421 82 q 559 174 521 82 q 597 453 597 265 q 560 728 597 639 q 421 818 522 818 q 281 728 319 818 q 243 453 243 639 q 281 174 243 265 q 421 82 319 82 z "},"1":{"ha":578,"x_min":61,"x_max":551,"o":"m 71 0 l 71 82 l 231 101 l 231 782 l 61 782 l 61 871 l 300 913 l 392 913 l 392 101 l 551 82 l 551 0 l 71 0 z "},"2":{"ha":697,"x_min":40,"x_max":669,"o":"m 40 88 l 326 386 q 433 529 400 464 q 465 663 465 594 q 430 776 465 742 q 301 811 394 811 q 168 788 224 811 l 142 647 l 56 647 l 56 872 q 169 906 97 890 q 314 922 240 922 q 559 862 482 922 q 636 681 636 801 q 614 558 636 614 q 546 446 592 503 q 417 307 500 389 l 236 131 l 236 122 l 553 122 l 586 249 l 669 249 l 669 0 l 40 0 l 40 88 z "},"3":{"ha":649,"x_min":28,"x_max":633,"o":"m 292 -19 q 135 1 201 -19 q 28 47 68 22 l 40 256 l 136 256 l 150 132 q 210 103 174 117 q 286 89 247 89 q 424 129 382 89 q 467 257 467 169 q 406 380 467 340 q 246 419 344 419 l 193 419 l 168 467 l 168 522 l 235 522 q 374 564 318 522 q 431 679 431 606 q 394 781 431 750 q 274 811 358 811 q 160 792 206 811 l 147 669 l 58 669 l 46 875 q 300 922 163 922 q 513 872 443 922 q 583 717 583 822 q 538 585 583 640 q 426 504 492 531 l 425 496 q 574 421 514 476 q 633 264 633 365 q 585 103 633 167 q 460 10 538 39 q 292 -19 383 -19 z "},"4":{"ha":703,"x_min":-6,"x_max":672,"o":"m 282 0 l 282 74 l 397 97 l 397 238 l 40 238 l -6 328 l 444 953 l 556 914 l 556 353 l 671 353 l 671 238 l 556 238 l 556 97 l 672 74 l 672 0 l 282 0 m 153 353 l 397 353 l 397 693 l 400 714 l 396 717 l 388 696 l 151 365 l 153 353 z "},"5":{"ha":639,"x_min":28,"x_max":622,"o":"m 283 -19 q 131 -1 194 -19 q 28 40 67 17 l 39 254 l 129 254 l 143 124 q 178 104 144 122 q 289 86 211 86 q 415 133 375 86 q 454 275 454 181 q 397 415 454 371 q 204 460 339 460 l 61 460 l 61 900 l 568 900 l 568 761 l 168 761 l 168 568 l 251 568 q 528 507 435 568 q 622 303 622 446 q 531 65 622 149 q 283 -19 439 -19 z "},"6":{"ha":740,"x_min":63,"x_max":692,"o":"m 365 -18 q 139 73 215 -18 q 63 344 63 164 q 131 651 63 522 q 328 850 199 781 q 638 921 457 919 l 638 851 q 360 742 458 831 q 249 504 261 654 q 449 567 336 567 q 626 495 560 567 q 692 304 692 424 q 651 135 692 208 q 537 22 611 63 q 365 -18 463 -18 m 385 90 q 488 135 457 90 q 519 278 519 179 q 484 401 519 361 q 375 440 449 440 q 308 435 343 440 q 247 422 274 431 q 247 405 247 418 q 246 365 246 392 q 259 203 246 263 q 303 117 272 143 q 385 90 333 90 z "},"7":{"ha":621,"x_min":29,"x_max":628,"o":"m 110 0 l 110 71 l 485 732 l 485 763 l 149 763 l 133 656 l 43 656 l 29 900 l 628 900 l 628 763 l 244 0 l 110 0 z "},"8":{"ha":699,"x_min":58,"x_max":657,"o":"m 343 -18 q 131 38 204 -18 q 58 194 58 93 q 103 332 58 265 q 217 442 149 399 q 113 534 150 481 q 75 667 75 588 q 112 801 75 742 q 215 893 149 860 q 363 926 281 926 q 556 870 486 926 q 625 717 625 814 q 590 584 625 642 q 496 490 556 526 q 617 390 576 444 q 657 250 657 336 q 622 118 657 179 q 515 19 586 57 q 343 -18 444 -18 m 417 529 q 469 600 451 558 q 488 692 488 642 q 455 786 488 756 q 353 817 422 817 q 231 707 231 817 q 258 623 231 656 q 360 556 286 590 q 417 529 372 549 m 358 83 q 501 217 501 83 q 463 312 501 275 q 338 385 425 349 l 292 404 q 227 318 246 361 q 208 228 208 275 q 244 121 208 158 q 358 83 279 83 z "},"9":{"ha":704,"x_min":33,"x_max":664,"o":"m 225 -15 q 106 -6 171 -15 l 106 64 q 328 95 247 64 q 445 196 408 126 q 486 389 482 265 q 411 352 458 369 q 299 335 364 335 q 105 408 176 335 q 33 613 33 482 q 74 780 33 710 q 182 886 114 850 q 333 922 250 922 q 581 824 499 922 q 664 504 664 726 q 225 -15 664 -15 m 360 460 q 441 468 404 460 q 486 481 478 476 q 478 669 488 601 q 436 775 468 738 q 336 813 404 813 q 235 769 264 813 q 206 629 206 726 q 360 460 206 460 z "},"\u0000":{"ha":0,"x_min":0,"x_max":0,"o":""},"\r":{"ha":253,"x_min":0,"x_max":0,"o":""}," ":{"ha":253,"x_min":0,"x_max":0,"o":""},"A":{"ha":885,"x_min":-11,"x_max":900,"o":"m -11 75 l 79 94 l 368 908 l 499 908 l 807 94 l 900 75 l 900 0 l 508 0 l 508 75 l 614 94 l 607 125 l 563 253 l 261 253 l 215 121 l 210 93 l 321 75 l 321 0 l -11 0 l -11 75 m 531 353 l 419 669 l 415 696 l 410 699 l 404 668 l 296 353 l 531 353 z "},"Á":{"ha":885,"x_min":-11,"x_max":900,"o":"m 464 1136 q 485 1149 469 1139 q 512 1163 500 1158 q 532 1168 524 1168 q 582 1140 564 1168 q 600 1071 600 1113 q 597 1040 600 1060 l 304 938 l 272 999 l 464 1136 m -11 75 l 79 94 l 368 908 l 499 908 l 807 94 l 900 75 l 900 0 l 508 0 l 508 75 l 614 94 l 607 125 l 563 253 l 261 253 l 215 121 l 210 93 l 321 75 l 321 0 l -11 0 l -11 75 m 531 353 l 419 669 l 415 696 l 410 699 l 404 668 l 296 353 l 531 353 z "},"Ă":{"ha":885,"x_min":-11,"x_max":900,"o":"m 304 1167 q 322 1140 304 1163 q 372 1097 339 1117 q 453 1078 404 1078 q 542 1097 506 1078 q 599 1136 579 1115 q 619 1161 619 1157 l 675 1129 q 649 1080 675 1122 q 574 1001 624 1038 q 451 965 524 965 q 308 998 363 965 q 231 1067 254 1031 q 207 1111 207 1103 l 304 1167 m -11 75 l 79 94 l 368 908 l 499 908 l 807 94 l 900 75 l 900 0 l 508 0 l 508 75 l 614 94 l 607 125 l 563 253 l 261 253 l 215 121 l 210 93 l 321 75 l 321 0 l -11 0 l -11 75 m 531 353 l 419 669 l 415 696 l 410 699 l 404 668 l 296 353 l 531 353 z "},"Ắ":{"ha":885,"x_min":-11,"x_max":900,"o":"m 0 0 m -11 75 l 79 94 l 368 908 l 499 908 l 807 94 l 900 75 l 900 0 l 508 0 l 508 75 l 614 94 l 607 125 l 563 253 l 261 253 l 215 121 l 210 93 l 321 75 l 321 0 l -11 0 l -11 75 m 531 353 l 419 669 l 415 696 l 410 699 l 404 668 l 296 353 l 531 353 m 301 1167 q 319 1140 301 1163 q 369 1097 336 1117 q 450 1078 401 1078 q 540 1097 503 1078 q 597 1136 576 1115 q 617 1161 617 1157 l 672 1129 q 647 1080 672 1122 q 571 1001 621 1038 q 449 965 521 965 q 306 998 360 965 q 228 1067 251 1031 q 204 1111 204 1103 l 301 1167 m 344 1210 l 538 1347 q 574 1369 556 1358 q 604 1379 592 1379 q 655 1352 638 1379 q 672 1282 672 1325 q 669 1251 672 1274 l 378 1149 l 344 1210 z "},"Ặ":{"ha":885,"x_min":-11,"x_max":900,"o":"m 0 0 m -11 75 l 79 94 l 368 908 l 499 908 l 807 94 l 900 75 l 900 0 l 508 0 l 508 75 l 614 94 l 607 125 l 563 253 l 261 253 l 215 121 l 210 93 l 321 75 l 321 0 l -11 0 l -11 75 m 531 353 l 419 669 l 415 696 l 410 699 l 404 668 l 296 353 l 531 353 m 436 -269 q 367 -241 394 -269 q 340 -167 340 -212 q 371 -90 340 -122 q 446 -57 401 -57 q 516 -84 489 -57 q 543 -157 543 -111 q 514 -237 543 -204 q 436 -269 485 -269 m 306 1167 q 323 1140 306 1163 q 373 1097 340 1117 q 454 1078 406 1078 q 544 1097 507 1078 q 601 1136 581 1115 q 621 1161 621 1157 l 676 1129 q 651 1080 676 1122 q 575 1001 625 1038 q 453 965 525 965 q 310 998 364 965 q 232 1067 256 1031 q 208 1111 208 1103 l 306 1167 z "},"Ằ":{"ha":885,"x_min":-11,"x_max":900,"o":"m 0 0 m -11 75 l 79 94 l 368 908 l 499 908 l 807 94 l 900 75 l 900 0 l 508 0 l 508 75 l 614 94 l 607 125 l 563 253 l 261 253 l 215 121 l 210 93 l 321 75 l 321 0 l -11 0 l -11 75 m 531 353 l 419 669 l 415 696 l 410 699 l 404 668 l 296 353 l 531 353 m 307 1167 q 324 1140 307 1163 q 374 1097 342 1117 q 456 1078 407 1078 q 545 1097 508 1078 q 602 1136 582 1115 q 622 1161 622 1157 l 678 1129 q 652 1080 678 1122 q 576 1001 626 1038 q 454 965 526 965 q 311 998 365 965 q 233 1067 257 1031 q 210 1111 210 1103 l 307 1167 m 225 1251 q 222 1285 222 1274 q 240 1353 222 1326 q 290 1379 258 1379 q 321 1369 303 1379 q 357 1347 339 1358 l 550 1210 l 517 1149 l 225 1251 z "},"Ẳ":{"ha":885,"x_min":-11,"x_max":900,"o":"m 0 0 m -11 75 l 79 94 l 368 908 l 499 908 l 807 94 l 900 75 l 900 0 l 508 0 l 508 75 l 614 94 l 607 125 l 563 253 l 261 253 l 215 121 l 210 93 l 321 75 l 321 0 l -11 0 l -11 75 m 531 353 l 419 669 l 415 696 l 410 699 l 404 668 l 296 353 l 531 353 m 306 1167 q 323 1140 306 1163 q 373 1097 340 1117 q 454 1078 406 1078 q 544 1097 507 1078 q 601 1136 581 1115 q 621 1161 621 1157 l 676 1129 q 651 1080 676 1122 q 575 1001 625 1038 q 453 965 525 965 q 310 998 364 965 q 232 1067 256 1031 q 208 1111 208 1103 l 306 1167 m 401 1132 q 389 1165 389 1153 q 401 1190 389 1179 q 443 1217 414 1201 q 483 1261 483 1236 q 469 1283 483 1276 q 425 1290 456 1290 q 346 1279 388 1290 q 324 1331 324 1307 q 346 1365 324 1353 q 424 1376 368 1376 q 557 1349 510 1376 q 604 1271 604 1322 q 532 1182 604 1213 q 494 1163 503 1171 q 488 1139 485 1154 l 401 1132 z "},"Ẵ":{"ha":885,"x_min":-11,"x_max":900,"o":"m 546 1211 q 460 1226 513 1211 l 331 1263 l 228 1217 l 182 1257 l 232 1319 q 281 1359 256 1349 q 339 1369 306 1369 q 425 1356 378 1369 l 553 1318 l 657 1364 l 703 1324 l 653 1263 q 603 1222 629 1233 q 546 1211 578 1211 m 303 1167 q 320 1140 303 1163 q 370 1097 338 1117 q 451 1078 403 1078 q 541 1097 504 1078 q 598 1136 578 1115 q 618 1161 618 1157 l 674 1129 q 648 1080 674 1122 q 572 1001 622 1038 q 450 965 522 965 q 307 998 361 965 q 229 1067 253 1031 q 206 1111 206 1103 l 303 1167 m -11 75 l 79 94 l 368 908 l 499 908 l 807 94 l 900 75 l 900 0 l 508 0 l 508 75 l 614 94 l 607 125 l 563 253 l 261 253 l 215 121 l 210 93 l 321 75 l 321 0 l -11 0 l -11 75 m 531 353 l 419 669 l 415 696 l 410 699 l 404 668 l 296 353 l 531 353 z "},"Ǎ":{"ha":885,"x_min":-11,"x_max":900,"o":"m 0 0 m -11 75 l 79 94 l 368 908 l 499 908 l 807 94 l 900 75 l 900 0 l 508 0 l 508 75 l 614 94 l 607 125 l 563 253 l 261 253 l 215 121 l 210 93 l 321 75 l 321 0 l -11 0 l -11 75 m 531 353 l 419 669 l 415 696 l 410 699 l 404 668 l 296 353 l 531 353 m 450 1079 l 636 1167 l 675 1111 l 528 990 q 501 968 521 985 q 468 944 482 951 q 442 936 454 936 q 414 946 429 936 q 382 969 399 956 q 357 989 365 983 l 211 1100 l 258 1167 l 450 1079 z "},"Â":{"ha":885,"x_min":-11,"x_max":900,"o":"m 350 1113 q 408 1156 392 1146 q 436 1167 425 1167 q 463 1157 449 1167 q 494 1134 478 1147 q 519 1114 511 1121 l 664 1000 l 619 936 l 428 1024 l 239 936 l 203 990 l 350 1113 m -11 75 l 79 94 l 368 908 l 499 908 l 807 94 l 900 75 l 900 0 l 508 0 l 508 75 l 614 94 l 607 125 l 563 253 l 261 253 l 215 121 l 210 93 l 321 75 l 321 0 l -11 0 l -11 75 m 531 353 l 419 669 l 415 696 l 410 699 l 404 668 l 296 353 l 531 353 z "},"Ấ":{"ha":885,"x_min":-11,"x_max":900,"o":"m 0 0 m -11 75 l 79 94 l 368 908 l 499 908 l 807 94 l 900 75 l 900 0 l 508 0 l 508 75 l 614 94 l 607 125 l 563 253 l 261 253 l 215 121 l 210 93 l 321 75 l 321 0 l -11 0 l -11 75 m 531 353 l 419 669 l 415 696 l 410 699 l 404 668 l 296 353 l 531 353 m 361 1113 q 418 1156 401 1146 q 446 1167 435 1167 q 473 1157 458 1167 q 504 1134 488 1147 q 529 1114 521 1121 l 674 1000 l 631 936 l 438 1024 l 249 936 l 213 990 l 361 1113 m 515 1190 l 708 1328 q 744 1349 726 1339 q 775 1360 763 1360 q 826 1333 808 1360 q 843 1263 843 1306 q 840 1232 843 1254 l 549 1129 l 515 1190 z "},"Ậ":{"ha":885,"x_min":-11,"x_max":900,"o":"m 0 0 m -11 75 l 79 94 l 368 908 l 499 908 l 807 94 l 900 75 l 900 0 l 508 0 l 508 75 l 614 94 l 607 125 l 563 253 l 261 253 l 215 121 l 210 93 l 321 75 l 321 0 l -11 0 l -11 75 m 531 353 l 419 669 l 415 696 l 410 699 l 404 668 l 296 353 l 531 353 m 436 -269 q 367 -241 394 -269 q 340 -167 340 -212 q 371 -90 340 -122 q 446 -57 401 -57 q 516 -84 489 -57 q 543 -157 543 -111 q 514 -237 543 -204 q 436 -269 485 -269 m 361 1113 q 418 1156 401 1146 q 446 1167 435 1167 q 473 1157 458 1167 q 504 1134 488 1147 q 529 1114 521 1121 l 674 1000 l 631 936 l 438 1024 l 249 936 l 213 990 l 361 1113 z "},"Ầ":{"ha":885,"x_min":-11,"x_max":900,"o":"m 0 0 m -11 75 l 79 94 l 368 908 l 499 908 l 807 94 l 900 75 l 900 0 l 508 0 l 508 75 l 614 94 l 607 125 l 563 253 l 261 253 l 215 121 l 210 93 l 321 75 l 321 0 l -11 0 l -11 75 m 531 353 l 419 669 l 415 696 l 410 699 l 404 668 l 296 353 l 531 353 m 354 1113 q 411 1156 394 1146 q 439 1167 428 1167 q 466 1157 451 1167 q 497 1134 481 1147 q 522 1114 514 1121 l 667 1000 l 624 936 l 431 1024 l 242 936 l 206 990 l 354 1113 m 399 1232 q 396 1265 396 1254 q 414 1333 396 1307 q 464 1360 432 1360 q 494 1349 476 1360 q 531 1328 513 1339 l 724 1190 l 690 1129 l 399 1232 z "},"Ẩ":{"ha":885,"x_min":-11,"x_max":900,"o":"m 0 0 m -11 75 l 79 94 l 368 908 l 499 908 l 807 94 l 900 75 l 900 0 l 508 0 l 508 75 l 614 94 l 607 125 l 563 253 l 261 253 l 215 121 l 210 93 l 321 75 l 321 0 l -11 0 l -11 75 m 531 353 l 419 669 l 415 696 l 410 699 l 404 668 l 296 353 l 531 353 m 350 1113 q 407 1156 390 1146 q 435 1167 424 1167 q 462 1157 447 1167 q 493 1134 476 1147 q 518 1114 510 1121 l 663 1000 l 619 936 l 426 1024 l 238 936 l 201 990 l 350 1113 m 564 1111 q 551 1144 551 1132 q 564 1169 551 1158 q 606 1196 576 1181 q 646 1240 646 1215 q 632 1263 646 1256 q 588 1269 618 1269 q 508 1258 550 1269 q 486 1310 486 1286 q 508 1344 486 1332 q 586 1356 531 1356 q 719 1328 672 1356 q 767 1250 767 1301 q 694 1161 767 1192 q 656 1142 665 1150 q 650 1118 647 1133 l 564 1111 z "},"Ẫ":{"ha":885,"x_min":-11,"x_max":900,"o":"m 547 1211 q 461 1226 514 1211 l 332 1263 l 229 1217 l 183 1257 l 233 1319 q 282 1359 257 1349 q 340 1369 307 1369 q 426 1356 379 1369 l 554 1318 l 658 1364 l 704 1324 l 654 1263 q 605 1222 631 1233 q 547 1211 579 1211 m 358 1113 q 415 1156 399 1146 q 443 1167 432 1167 q 470 1157 456 1167 q 501 1134 485 1147 q 526 1114 518 1121 l 671 1000 l 628 936 l 435 1024 l 246 936 l 210 990 l 358 1113 m -11 75 l 79 94 l 368 908 l 499 908 l 807 94 l 900 75 l 900 0 l 508 0 l 508 75 l 614 94 l 607 125 l 563 253 l 261 253 l 215 121 l 210 93 l 321 75 l 321 0 l -11 0 l -11 75 m 531 353 l 419 669 l 415 696 l 410 699 l 404 668 l 296 353 l 531 353 z "},"Ȁ":{"ha":885,"x_min":-11,"x_max":900,"o":"m 0 0 m -11 75 l 79 94 l 368 908 l 499 908 l 807 94 l 900 75 l 900 0 l 508 0 l 508 75 l 614 94 l 607 125 l 563 253 l 261 253 l 215 121 l 210 93 l 321 75 l 321 0 l -11 0 l -11 75 m 531 353 l 419 669 l 415 696 l 410 699 l 404 668 l 296 353 l 531 353 m 86 1085 q 114 1154 93 1129 q 158 1179 135 1179 q 192 1169 176 1179 q 225 1136 207 1158 l 353 985 l 308 935 l 86 1085 m 347 1085 q 374 1154 354 1129 q 419 1179 394 1179 q 453 1169 438 1179 q 486 1136 468 1158 l 614 985 l 569 935 l 347 1085 z "},"Ä":{"ha":885,"x_min":-11,"x_max":900,"o":"m 265 961 q 202 987 226 961 q 178 1054 178 1013 q 206 1124 178 1094 q 275 1154 235 1154 q 338 1129 314 1154 q 363 1063 363 1104 q 335 991 363 1021 q 265 961 308 961 m 589 961 q 526 987 550 961 q 501 1054 501 1013 q 529 1124 501 1094 q 597 1154 557 1154 q 661 1129 636 1154 q 686 1063 686 1104 q 659 991 686 1021 q 589 961 632 961 m -11 75 l 79 94 l 368 908 l 499 908 l 807 94 l 900 75 l 900 0 l 508 0 l 508 75 l 614 94 l 607 125 l 563 253 l 261 253 l 215 121 l 210 93 l 321 75 l 321 0 l -11 0 l -11 75 m 531 353 l 419 669 l 415 696 l 410 699 l 404 668 l 296 353 l 531 353 z "},"Ạ":{"ha":885,"x_min":-11,"x_max":900,"o":"m 0 0 m -11 75 l 79 94 l 368 908 l 499 908 l 807 94 l 900 75 l 900 0 l 508 0 l 508 75 l 614 94 l 607 125 l 563 253 l 261 253 l 215 121 l 210 93 l 321 75 l 321 0 l -11 0 l -11 75 m 531 353 l 419 669 l 415 696 l 410 699 l 404 668 l 296 353 l 531 353 m 436 -269 q 367 -241 394 -269 q 340 -167 340 -212 q 371 -90 340 -122 q 446 -57 401 -57 q 516 -84 489 -57 q 543 -157 543 -111 q 514 -237 543 -204 q 436 -269 485 -269 z "},"À":{"ha":885,"x_min":-11,"x_max":900,"o":"m 254 1040 q 251 1074 251 1063 q 269 1142 251 1115 q 319 1168 288 1168 q 344 1160 329 1168 q 370 1146 360 1153 q 386 1136 381 1139 l 579 999 l 546 938 l 254 1040 m -11 75 l 79 94 l 368 908 l 499 908 l 807 94 l 900 75 l 900 0 l 508 0 l 508 75 l 614 94 l 607 125 l 563 253 l 261 253 l 215 121 l 210 93 l 321 75 l 321 0 l -11 0 l -11 75 m 531 353 l 419 669 l 415 696 l 410 699 l 404 668 l 296 353 l 531 353 z "},"Ả":{"ha":885,"x_min":-11,"x_max":900,"o":"m 0 0 m -11 75 l 79 94 l 368 908 l 499 908 l 807 94 l 900 75 l 900 0 l 508 0 l 508 75 l 614 94 l 607 125 l 563 253 l 261 253 l 215 121 l 210 93 l 321 75 l 321 0 l -11 0 l -11 75 m 531 353 l 419 669 l 415 696 l 410 699 l 404 668 l 296 353 l 531 353 m 399 935 q 386 968 386 956 q 399 993 386 982 q 440 1019 411 1004 q 481 1064 481 1039 q 467 1086 481 1079 q 422 1093 453 1093 q 343 1082 385 1093 q 321 1133 321 1110 q 343 1167 321 1156 q 421 1179 365 1179 q 554 1152 507 1179 q 601 1074 601 1125 q 529 985 601 1015 q 491 965 500 974 q 485 942 482 957 l 399 935 z "},"Ȃ":{"ha":885,"x_min":-11,"x_max":900,"o":"m 0 0 m -11 75 l 79 94 l 368 908 l 499 908 l 807 94 l 900 75 l 900 0 l 508 0 l 508 75 l 614 94 l 607 125 l 563 253 l 261 253 l 215 121 l 210 93 l 321 75 l 321 0 l -11 0 l -11 75 m 531 353 l 419 669 l 415 696 l 410 699 l 404 668 l 296 353 l 531 353 m 579 965 q 562 992 579 969 q 511 1035 544 1015 q 431 1054 478 1054 q 340 1035 378 1054 q 283 995 303 1017 q 264 969 264 974 l 208 1003 q 234 1052 208 1010 q 309 1131 260 1094 q 432 1167 358 1167 q 575 1134 521 1167 q 653 1065 629 1101 q 676 1019 676 1028 l 579 965 z "},"Ā":{"ha":885,"x_min":-11,"x_max":900,"o":"m 204 1107 l 678 1107 l 661 1004 l 188 1004 l 204 1107 m -11 75 l 79 94 l 368 908 l 499 908 l 807 94 l 900 75 l 900 0 l 508 0 l 508 75 l 614 94 l 607 125 l 563 253 l 261 253 l 215 121 l 210 93 l 321 75 l 321 0 l -11 0 l -11 75 m 531 353 l 419 669 l 415 696 l 410 699 l 404 668 l 296 353 l 531 353 z "},"Ą":{"ha":885,"x_min":-11,"x_max":900,"o":"m 622 0 q 551 -114 551 -61 q 604 -165 551 -165 q 678 -137 632 -165 l 708 -189 q 688 -210 708 -192 q 634 -244 667 -228 q 563 -260 601 -260 q 471 -233 506 -260 q 436 -157 436 -207 q 465 -67 436 -107 q 542 0 494 -28 l 508 0 l 508 75 l 614 94 l 607 125 l 563 253 l 261 253 l 215 121 l 210 93 l 321 75 l 321 0 l -11 0 l -11 75 l 79 94 l 368 908 l 499 908 l 807 94 l 900 75 l 900 0 l 622 0 m 296 353 l 531 353 l 419 669 l 415 696 l 410 699 l 404 668 l 296 353 z "},"Å":{"ha":885,"x_min":-11,"x_max":900,"o":"m 297 1038 q 334 1129 297 1093 q 439 1165 371 1165 q 539 1133 506 1165 q 572 1046 572 1100 q 538 953 572 989 q 432 917 503 918 q 297 1038 297 917 m 436 989 q 475 1001 465 989 q 485 1042 485 1013 q 474 1084 485 1074 q 435 1094 464 1094 q 395 1084 406 1094 q 385 1043 385 1074 q 395 999 385 1010 q 436 989 406 989 m -11 75 l 79 94 l 368 908 l 499 908 l 807 94 l 900 75 l 900 0 l 508 0 l 508 75 l 614 94 l 607 125 l 563 253 l 261 253 l 215 121 l 210 93 l 321 75 l 321 0 l -11 0 l -11 75 m 531 353 l 419 669 l 415 696 l 410 699 l 404 668 l 296 353 l 531 353 z "},"Ǻ":{"ha":885,"x_min":-11,"x_max":900,"o":"m 382 1183 l 349 1244 l 542 1382 q 578 1403 560 1393 q 608 1414 596 1414 q 659 1387 642 1414 q 676 1317 676 1360 q 674 1286 676 1308 l 382 1183 m 900 75 l 900 0 l 508 0 l 508 75 l 614 94 l 607 125 l 563 253 l 261 253 l 215 121 l 210 93 l 321 75 l 321 0 l -11 0 l -11 75 l 79 94 l 368 908 l 379 908 q 306 1018 306 932 q 342 1110 306 1074 q 447 1146 379 1146 q 546 1113 513 1146 q 579 1026 579 1081 q 558 953 579 983 q 494 908 536 922 l 499 908 l 807 94 l 900 75 m 442 1078 q 406 1067 415 1078 q 397 1024 397 1056 q 406 978 397 989 q 444 967 415 967 q 479 978 471 967 q 488 1018 488 989 q 480 1066 488 1054 q 442 1078 472 1078 m 296 353 l 531 353 l 419 669 l 415 696 l 410 699 l 404 668 l 296 353 z "},"Ã":{"ha":885,"x_min":-11,"x_max":900,"o":"m 229 1096 q 278 1141 251 1129 q 338 1153 304 1153 q 424 1138 376 1153 l 551 1094 l 656 1147 l 701 1101 l 651 1031 q 601 983 628 996 q 543 971 575 971 q 458 989 513 971 l 329 1031 l 226 978 l 181 1024 l 229 1096 m -11 75 l 79 94 l 368 908 l 499 908 l 807 94 l 900 75 l 900 0 l 508 0 l 508 75 l 614 94 l 607 125 l 563 253 l 261 253 l 215 121 l 210 93 l 321 75 l 321 0 l -11 0 l -11 75 m 531 353 l 419 669 l 415 696 l 410 699 l 404 668 l 296 353 l 531 353 z "},"Æ":{"ha":1181,"x_min":-8,"x_max":1149,"o":"m 89 94 l 468 900 l 1054 900 l 1068 651 l 985 651 l 942 806 l 788 806 l 701 796 l 731 461 l 882 461 l 904 547 l 972 547 l 990 272 l 922 272 l 888 365 l 739 365 l 763 101 q 853 96 810 96 l 1025 96 l 1051 257 l 1132 257 l 1149 0 l 485 0 l 481 71 l 592 97 l 568 361 l 336 361 l 226 119 l 218 93 l 324 75 l 324 0 l -8 0 l -8 75 l 89 94 m 560 461 l 531 793 l 382 461 l 560 461 z "},"Ǽ":{"ha":1181,"x_min":-8,"x_max":1149,"o":"m 0 0 m 89 94 l 468 900 l 1054 900 l 1068 651 l 985 651 l 942 806 l 788 806 l 701 796 l 731 461 l 882 461 l 904 547 l 972 547 l 990 272 l 922 272 l 888 365 l 739 365 l 763 101 q 853 96 810 96 l 1025 96 l 1051 257 l 1132 257 l 1149 0 l 485 0 l 481 71 l 592 97 l 568 361 l 336 361 l 226 119 l 218 93 l 324 75 l 324 0 l -8 0 l -8 75 l 89 94 m 560 461 l 531 793 l 382 461 l 560 461 m 560 999 l 753 1136 q 789 1158 771 1147 q 819 1168 807 1168 q 870 1141 853 1168 q 888 1071 888 1114 q 885 1040 888 1063 l 593 938 l 560 999 z "},"B":{"ha":867,"x_min":61,"x_max":810,"o":"m 61 71 l 174 97 l 174 803 l 61 829 l 61 900 l 438 900 q 688 842 603 900 q 772 674 772 785 q 629 478 772 550 q 763 400 715 454 q 810 271 810 346 q 724 72 810 144 q 488 0 639 0 l 61 0 l 61 71 m 399 504 q 542 547 492 504 q 593 665 593 589 q 428 803 593 803 q 343 797 388 803 l 343 504 l 399 504 m 421 94 q 575 134 525 94 q 625 256 625 174 q 572 372 625 335 q 408 410 519 410 l 343 410 l 343 99 q 421 94 389 94 z "},"C":{"ha":844,"x_min":54,"x_max":782,"o":"m 782 276 l 782 40 q 650 -3 722 14 q 468 -21 578 -21 q 158 97 261 -21 q 54 439 54 215 q 110 684 54 574 q 266 858 165 794 q 496 922 367 922 q 653 910 579 922 q 776 883 728 899 l 776 644 l 685 644 l 656 793 q 590 809 633 801 q 494 817 547 817 q 349 780 403 817 q 272 663 296 743 q 249 443 249 582 q 310 165 249 249 q 497 81 371 81 q 592 92 556 81 q 661 119 629 104 l 692 276 l 782 276 z "},"Ć":{"ha":844,"x_min":54,"x_max":779,"o":"m 547 1136 q 568 1149 553 1139 q 595 1163 583 1158 q 615 1168 607 1168 q 666 1141 649 1168 q 683 1071 683 1114 q 681 1040 683 1063 l 389 938 l 356 999 l 547 1136 m 779 276 l 779 40 q 648 -3 718 14 q 468 -21 578 -21 q 158 97 261 -21 q 54 439 54 215 q 110 684 54 574 q 266 858 165 794 q 496 922 367 922 q 652 911 579 922 q 774 883 725 900 l 774 644 l 685 644 l 656 793 q 590 809 633 801 q 494 817 547 817 q 349 780 403 817 q 272 663 296 743 q 249 443 249 582 q 310 165 249 249 q 497 81 371 81 q 592 92 556 81 q 661 119 629 104 l 692 276 l 779 276 z "},"Č":{"ha":844,"x_min":54,"x_max":779,"o":"m 486 1079 l 674 1167 l 711 1111 l 563 989 q 509 947 525 958 q 479 936 493 936 q 419 971 461 936 l 394 989 l 249 1100 l 294 1167 l 486 1079 m 779 276 l 779 40 q 648 -3 718 14 q 468 -21 578 -21 q 158 97 261 -21 q 54 439 54 215 q 110 684 54 574 q 266 858 165 794 q 496 922 367 922 q 652 911 579 922 q 774 883 725 900 l 774 644 l 685 644 l 656 793 q 590 809 633 801 q 494 817 547 817 q 349 780 403 817 q 272 663 296 743 q 249 443 249 582 q 310 165 249 249 q 497 81 371 81 q 592 92 556 81 q 661 119 629 104 l 692 276 l 779 276 z "},"Ç":{"ha":844,"x_min":54,"x_max":779,"o":"m 375 -181 q 457 -197 414 -197 q 503 -189 488 -197 q 518 -161 518 -181 q 510 -137 518 -144 q 482 -125 501 -129 l 438 -117 l 407 -86 l 436 -19 q 149 106 244 -11 q 54 439 54 224 q 110 684 54 574 q 266 858 165 794 q 496 922 367 922 q 652 911 579 922 q 774 883 725 900 l 774 644 l 685 644 l 656 793 q 590 809 633 801 q 494 817 547 817 q 349 780 403 817 q 272 663 296 743 q 249 443 249 582 q 310 165 249 249 q 497 81 371 81 q 592 92 556 81 q 661 119 629 104 l 692 276 l 779 276 l 779 40 q 663 0 725 17 q 510 -21 601 -17 l 510 -42 l 536 -47 q 609 -78 585 -60 q 633 -140 633 -97 q 588 -235 633 -204 q 461 -265 542 -265 q 401 -260 426 -265 q 350 -242 376 -254 l 375 -181 z "},"Ĉ":{"ha":844,"x_min":54,"x_max":782,"o":"m 54 0 m 782 276 l 782 40 q 650 -3 722 14 q 468 -21 578 -21 q 158 97 261 -21 q 54 439 54 215 q 110 684 54 574 q 266 858 165 794 q 496 922 367 922 q 653 910 579 922 q 776 883 728 899 l 776 644 l 685 644 l 656 793 q 590 809 633 801 q 494 817 547 817 q 349 780 403 817 q 272 663 296 743 q 249 443 249 582 q 310 165 249 249 q 497 81 371 81 q 592 92 556 81 q 661 119 629 104 l 692 276 l 782 276 m 414 1113 q 471 1156 454 1146 q 499 1167 488 1167 q 526 1157 511 1167 q 557 1134 540 1147 q 582 1114 574 1121 l 726 1000 l 683 936 l 490 1024 l 301 936 l 265 990 l 414 1113 z "},"Ċ":{"ha":844,"x_min":54,"x_max":782,"o":"m 54 0 m 782 276 l 782 40 q 650 -3 722 14 q 468 -21 578 -21 q 158 97 261 -21 q 54 439 54 215 q 110 684 54 574 q 266 858 165 794 q 496 922 367 922 q 653 910 579 922 q 776 883 728 899 l 776 644 l 685 644 l 656 793 q 590 809 633 801 q 494 817 547 817 q 349 780 403 817 q 272 663 296 743 q 249 443 249 582 q 310 165 249 249 q 497 81 371 81 q 592 92 556 81 q 661 119 629 104 l 692 276 l 782 276 m 489 961 q 420 990 447 961 q 393 1064 393 1018 q 424 1140 393 1108 q 499 1172 454 1172 q 569 1146 542 1172 q 596 1074 596 1119 q 567 994 596 1026 q 489 961 538 961 z "},"D":{"ha":985,"x_min":58,"x_max":931,"o":"m 58 71 l 171 97 l 171 803 l 58 829 l 58 900 l 485 900 q 815 790 700 900 q 931 465 931 679 q 875 216 931 321 q 715 56 819 111 q 469 0 611 0 l 58 0 l 58 71 m 417 93 q 610 128 542 93 q 706 244 678 163 q 735 474 735 325 q 698 674 735 601 q 596 775 661 747 q 435 803 531 803 q 340 800 368 803 l 340 99 q 417 93 379 93 z "},"Ǳ":{"ha":1726,"x_min":58,"x_max":1703,"o":"m 58 0 m 58 71 l 171 97 l 171 803 l 58 829 l 58 900 l 485 900 q 815 790 700 900 q 931 465 931 679 q 875 216 931 321 q 715 56 819 111 q 469 0 611 0 l 58 0 l 58 71 m 417 93 q 610 128 542 93 q 706 244 678 163 q 735 474 735 325 q 698 674 735 601 q 596 775 661 747 q 435 803 531 803 q 340 800 368 803 l 340 99 q 417 93 379 93 m 1007 97 l 1482 782 l 1482 803 l 1139 803 l 1107 660 l 1019 660 l 1019 900 l 1693 900 l 1693 800 l 1213 113 l 1213 97 l 1583 97 l 1617 240 l 1703 240 l 1703 0 l 1007 0 l 1007 97 z "},"Ǆ":{"ha":1726,"x_min":58,"x_max":1703,"o":"m 58 0 m 58 71 l 171 97 l 171 803 l 58 829 l 58 900 l 485 900 q 815 790 700 900 q 931 465 931 679 q 875 216 931 321 q 715 56 819 111 q 469 0 611 0 l 58 0 l 58 71 m 417 93 q 610 128 542 93 q 706 244 678 163 q 735 474 735 325 q 698 674 735 601 q 596 775 661 747 q 435 803 531 803 q 340 800 368 803 l 340 99 q 417 93 379 93 m 1007 97 l 1482 782 l 1482 803 l 1139 803 l 1107 660 l 1019 660 l 1019 900 l 1693 900 l 1693 800 l 1213 113 l 1213 97 l 1583 97 l 1617 240 l 1703 240 l 1703 0 l 1007 0 l 1007 97 m 1346 1079 l 1532 1167 l 1571 1111 l 1424 990 q 1397 968 1417 985 q 1364 944 1378 951 q 1338 936 1350 936 q 1310 946 1325 936 q 1278 969 1294 956 q 1253 989 1261 983 l 1107 1100 l 1154 1167 l 1346 1079 z "},"Ð":{"ha":997,"x_min":64,"x_max":940,"o":"m 181 97 l 181 415 l 64 415 l 64 513 l 181 513 l 181 803 l 68 829 l 68 900 l 501 900 q 826 788 713 900 q 940 460 940 675 q 884 218 940 322 q 726 57 828 114 q 493 0 625 0 l 68 0 l 68 71 l 181 97 m 350 99 q 429 93 379 93 q 621 127 553 93 q 717 241 689 161 q 746 468 746 321 q 710 672 746 599 q 609 774 674 746 q 450 803 544 803 q 350 800 383 803 l 350 513 l 544 513 l 544 415 l 350 415 l 350 99 z "},"Ď":{"ha":986,"x_min":58,"x_max":931,"o":"m 479 1079 l 665 1167 l 704 1111 l 557 990 q 504 948 521 960 q 474 936 488 936 q 439 949 457 936 q 388 989 421 961 l 240 1100 l 288 1167 l 479 1079 m 58 71 l 171 97 l 171 803 l 58 829 l 58 900 l 485 900 q 815 790 700 900 q 931 465 931 679 q 875 216 931 321 q 715 56 819 111 q 469 0 611 0 l 58 0 l 58 71 m 417 93 q 610 128 542 93 q 706 244 678 163 q 735 474 735 325 q 698 674 735 601 q 596 775 661 747 q 435 803 531 803 q 340 800 368 803 l 340 99 q 417 93 379 93 z "},"Đ":{"ha":997,"x_min":64,"x_max":940,"o":"m 64 0 m 181 97 l 181 415 l 64 415 l 64 513 l 181 513 l 181 803 l 68 829 l 68 900 l 501 900 q 826 788 713 900 q 940 460 940 675 q 884 218 940 322 q 726 57 828 114 q 493 0 625 0 l 68 0 l 68 71 l 181 97 m 350 99 q 429 93 379 93 q 621 127 553 93 q 717 241 689 161 q 746 468 746 321 q 710 672 746 599 q 609 774 674 746 q 450 803 544 803 q 350 800 383 803 l 350 513 l 544 513 l 544 415 l 350 415 l 350 99 z "},"Ḍ":{"ha":985,"x_min":58,"x_max":931,"o":"m 58 0 m 58 71 l 171 97 l 171 803 l 58 829 l 58 900 l 485 900 q 815 790 700 900 q 931 465 931 679 q 875 216 931 321 q 715 56 819 111 q 469 0 611 0 l 58 0 l 58 71 m 417 93 q 610 128 542 93 q 706 244 678 163 q 735 474 735 325 q 698 674 735 601 q 596 775 661 747 q 435 803 531 803 q 340 800 368 803 l 340 99 q 417 93 379 93 m 486 -269 q 417 -241 444 -269 q 390 -167 390 -212 q 421 -90 390 -122 q 496 -57 451 -57 q 566 -84 539 -57 q 593 -157 593 -111 q 564 -237 593 -204 q 486 -269 535 -269 z "},"ǲ":{"ha":1608,"x_min":58,"x_max":1578,"o":"m 58 0 m 58 71 l 171 97 l 171 803 l 58 829 l 58 900 l 485 900 q 815 790 700 900 q 931 465 931 679 q 875 216 931 321 q 715 56 819 111 q 469 0 611 0 l 58 0 l 58 71 m 417 93 q 610 128 542 93 q 706 244 678 163 q 735 474 735 325 q 698 674 735 601 q 596 775 661 747 q 435 803 531 803 q 340 800 368 803 l 340 99 q 417 93 379 93 m 1007 0 l 1007 96 l 1358 578 l 1365 594 l 1140 594 l 1114 488 l 1031 488 l 1024 688 l 1556 688 l 1556 579 l 1206 115 l 1196 93 l 1460 93 l 1483 213 l 1571 213 l 1578 0 l 1007 0 z "},"ǅ":{"ha":1608,"x_min":58,"x_max":1578,"o":"m 58 0 m 58 71 l 171 97 l 171 803 l 58 829 l 58 900 l 485 900 q 815 790 700 900 q 931 465 931 679 q 875 216 931 321 q 715 56 819 111 q 469 0 611 0 l 58 0 l 58 71 m 417 93 q 610 128 542 93 q 706 244 678 163 q 735 474 735 325 q 698 674 735 601 q 596 775 661 747 q 435 803 531 803 q 340 800 368 803 l 340 99 q 417 93 379 93 m 1007 0 l 1007 96 l 1358 578 l 1365 594 l 1140 594 l 1114 488 l 1031 488 l 1024 688 l 1556 688 l 1556 579 l 1206 115 l 1196 93 l 1460 93 l 1483 213 l 1571 213 l 1578 0 l 1007 0 m 1293 750 q 1263 763 1281 750 q 1215 806 1246 776 l 1086 932 l 1142 993 l 1304 883 l 1465 993 l 1507 940 l 1371 806 q 1324 763 1342 776 q 1293 750 1307 750 z "},"E":{"ha":803,"x_min":58,"x_max":742,"o":"m 171 97 l 171 803 l 58 829 l 58 900 l 729 900 l 729 651 l 644 651 l 611 806 l 429 806 l 340 796 l 340 504 l 510 504 l 538 596 l 606 596 l 606 314 l 538 314 l 510 410 l 340 410 l 340 101 q 436 96 393 96 l 625 96 l 658 257 l 742 257 l 742 0 l 58 0 l 58 71 l 171 97 z "},"É":{"ha":803,"x_min":58,"x_max":742,"o":"m 474 1136 q 510 1158 492 1147 q 540 1168 528 1168 q 591 1141 574 1168 q 608 1071 608 1114 q 606 1040 608 1063 l 314 938 l 281 999 l 474 1136 m 171 97 l 171 803 l 58 829 l 58 900 l 729 900 l 729 651 l 644 651 l 611 806 l 429 806 l 340 796 l 340 504 l 510 504 l 538 596 l 606 596 l 606 314 l 538 314 l 510 410 l 340 410 l 340 101 q 436 96 393 96 l 625 96 l 658 257 l 742 257 l 742 0 l 58 0 l 58 71 l 171 97 z "},"Ĕ":{"ha":803,"x_min":58,"x_max":742,"o":"m 58 0 m 171 97 l 171 803 l 58 829 l 58 900 l 729 900 l 729 651 l 644 651 l 611 806 l 429 806 l 340 796 l 340 504 l 510 504 l 538 596 l 606 596 l 606 314 l 538 314 l 510 410 l 340 410 l 340 101 q 436 96 393 96 l 625 96 l 658 257 l 742 257 l 742 0 l 58 0 l 58 71 l 171 97 m 300 1167 q 317 1140 300 1163 q 367 1097 335 1117 q 449 1078 400 1078 q 538 1097 501 1078 q 595 1136 575 1115 q 615 1161 615 1157 l 671 1129 q 645 1080 671 1122 q 569 1001 619 1038 q 447 965 519 965 q 304 998 358 965 q 226 1067 250 1031 q 203 1111 203 1103 l 300 1167 z "},"Ě":{"ha":803,"x_min":58,"x_max":742,"o":"m 436 1079 l 622 1167 l 661 1111 l 514 990 q 461 949 479 961 q 428 936 443 936 q 400 946 415 936 q 368 969 385 956 q 343 989 351 983 l 197 1100 l 244 1167 l 436 1079 m 171 97 l 171 803 l 58 829 l 58 900 l 729 900 l 729 651 l 644 651 l 611 806 l 429 806 l 340 796 l 340 504 l 510 504 l 538 596 l 606 596 l 606 314 l 538 314 l 510 410 l 340 410 l 340 101 q 436 96 393 96 l 625 96 l 658 257 l 742 257 l 742 0 l 58 0 l 58 71 l 171 97 z "},"Ê":{"ha":803,"x_min":58,"x_max":742,"o":"m 328 1113 q 386 1156 369 1146 q 414 1167 403 1167 q 440 1158 425 1167 q 471 1135 454 1149 q 496 1114 488 1121 l 640 1000 l 597 936 l 404 1024 l 215 936 l 179 990 l 328 1113 m 171 97 l 171 803 l 58 829 l 58 900 l 729 900 l 729 651 l 644 651 l 611 806 l 429 806 l 340 796 l 340 504 l 510 504 l 538 596 l 606 596 l 606 314 l 538 314 l 510 410 l 340 410 l 340 101 q 436 96 393 96 l 625 96 l 658 257 l 742 257 l 742 0 l 58 0 l 58 71 l 171 97 z "},"Ế":{"ha":803,"x_min":58,"x_max":838,"o":"m 58 0 m 171 97 l 171 803 l 58 829 l 58 900 l 729 900 l 729 651 l 644 651 l 611 806 l 429 806 l 340 796 l 340 504 l 510 504 l 538 596 l 606 596 l 606 314 l 538 314 l 510 410 l 340 410 l 340 101 q 436 96 393 96 l 625 96 l 658 257 l 742 257 l 742 0 l 58 0 l 58 71 l 171 97 m 356 1113 q 413 1156 396 1146 q 440 1167 429 1167 q 467 1157 453 1167 q 499 1134 482 1147 q 524 1114 515 1121 l 668 1000 l 625 936 l 432 1024 l 243 936 l 207 990 l 356 1113 m 510 1190 l 703 1328 q 739 1349 721 1339 q 769 1360 757 1360 q 820 1333 803 1360 q 838 1263 838 1306 q 835 1232 838 1254 l 543 1129 l 510 1190 z "},"Ệ":{"ha":803,"x_min":58,"x_max":742,"o":"m 58 0 m 171 97 l 171 803 l 58 829 l 58 900 l 729 900 l 729 651 l 644 651 l 611 806 l 429 806 l 340 796 l 340 504 l 510 504 l 538 596 l 606 596 l 606 314 l 538 314 l 510 410 l 340 410 l 340 101 q 436 96 393 96 l 625 96 l 658 257 l 742 257 l 742 0 l 58 0 l 58 71 l 171 97 m 394 -269 q 326 -241 353 -269 q 299 -167 299 -212 q 329 -90 299 -122 q 404 -57 360 -57 q 474 -84 447 -57 q 501 -157 501 -111 q 472 -237 501 -204 q 394 -269 443 -269 m 356 1113 q 413 1156 396 1146 q 440 1167 429 1167 q 467 1157 453 1167 q 499 1134 482 1147 q 524 1114 515 1121 l 668 1000 l 625 936 l 432 1024 l 243 936 l 207 990 l 356 1113 z "},"Ề":{"ha":803,"x_min":58,"x_max":742,"o":"m 58 0 m 171 97 l 171 803 l 58 829 l 58 900 l 729 900 l 729 651 l 644 651 l 611 806 l 429 806 l 340 796 l 340 504 l 510 504 l 538 596 l 606 596 l 606 314 l 538 314 l 510 410 l 340 410 l 340 101 q 436 96 393 96 l 625 96 l 658 257 l 742 257 l 742 0 l 58 0 l 58 71 l 171 97 m 349 1113 q 406 1156 389 1146 q 433 1167 422 1167 q 460 1157 446 1167 q 492 1134 475 1147 q 517 1114 508 1121 l 661 1000 l 618 936 l 425 1024 l 236 936 l 200 990 l 349 1113 m 393 1232 q 390 1265 390 1254 q 408 1333 390 1307 q 458 1360 426 1360 q 489 1349 471 1360 q 525 1328 507 1339 l 718 1190 l 685 1129 l 393 1232 z "},"Ể":{"ha":803,"x_min":58,"x_max":761,"o":"m 58 0 m 171 97 l 171 803 l 58 829 l 58 900 l 729 900 l 729 651 l 644 651 l 611 806 l 429 806 l 340 796 l 340 504 l 510 504 l 538 596 l 606 596 l 606 314 l 538 314 l 510 410 l 340 410 l 340 101 q 436 96 393 96 l 625 96 l 658 257 l 742 257 l 742 0 l 58 0 l 58 71 l 171 97 m 344 1113 q 401 1156 385 1146 q 429 1167 418 1167 q 456 1157 442 1167 q 488 1134 471 1147 q 513 1114 504 1121 l 657 1000 l 614 936 l 421 1024 l 232 936 l 196 990 l 344 1113 m 558 1111 q 546 1144 546 1132 q 558 1169 546 1158 q 600 1196 571 1181 q 640 1240 640 1215 q 626 1263 640 1256 q 582 1269 613 1269 q 503 1258 544 1269 q 481 1310 481 1286 q 503 1344 481 1332 q 581 1356 525 1356 q 714 1328 667 1356 q 761 1250 761 1301 q 689 1161 761 1192 q 651 1142 660 1150 q 644 1118 642 1133 l 558 1111 z "},"Ễ":{"ha":803,"x_min":58,"x_max":742,"o":"m 542 1211 q 456 1226 508 1211 l 326 1263 l 224 1217 l 178 1257 l 228 1319 q 276 1359 251 1349 q 335 1369 301 1369 q 421 1356 374 1369 l 549 1318 l 653 1364 l 699 1324 l 649 1263 q 599 1222 625 1233 q 542 1211 574 1211 m 353 1113 q 410 1156 393 1146 q 438 1167 426 1167 q 465 1157 450 1167 q 496 1134 479 1147 q 521 1114 513 1121 l 665 1000 l 622 936 l 429 1024 l 240 936 l 204 990 l 353 1113 m 171 97 l 171 803 l 58 829 l 58 900 l 729 900 l 729 651 l 644 651 l 611 806 l 429 806 l 340 796 l 340 504 l 510 504 l 538 596 l 606 596 l 606 314 l 538 314 l 510 410 l 340 410 l 340 101 q 436 96 393 96 l 625 96 l 658 257 l 742 257 l 742 0 l 58 0 l 58 71 l 171 97 z "},"Ȅ":{"ha":803,"x_min":58,"x_max":742,"o":"m 58 0 m 171 97 l 171 803 l 58 829 l 58 900 l 729 900 l 729 651 l 644 651 l 611 806 l 429 806 l 340 796 l 340 504 l 510 504 l 538 596 l 606 596 l 606 314 l 538 314 l 510 410 l 340 410 l 340 101 q 436 96 393 96 l 625 96 l 658 257 l 742 257 l 742 0 l 58 0 l 58 71 l 171 97 m 81 1085 q 108 1154 88 1129 q 153 1179 129 1179 q 186 1169 171 1179 q 219 1136 201 1158 l 347 985 l 303 935 l 81 1085 m 342 1085 q 369 1154 349 1129 q 414 1179 389 1179 q 447 1169 432 1179 q 481 1136 463 1158 l 608 985 l 564 935 l 342 1085 z "},"Ë":{"ha":803,"x_min":58,"x_max":742,"o":"m 247 964 q 185 990 210 964 q 160 1057 160 1017 q 188 1127 160 1097 q 257 1157 217 1157 q 321 1133 296 1157 q 346 1067 346 1108 q 319 994 346 1024 q 247 964 292 964 m 571 964 q 508 990 532 964 q 483 1057 483 1017 q 511 1128 483 1099 q 581 1157 539 1157 q 644 1132 619 1157 q 669 1067 669 1107 q 642 994 669 1024 q 571 964 614 964 m 171 97 l 171 803 l 58 829 l 58 900 l 729 900 l 729 651 l 644 651 l 611 806 l 429 806 l 340 796 l 340 504 l 510 504 l 538 596 l 606 596 l 606 314 l 538 314 l 510 410 l 340 410 l 340 101 q 436 96 393 96 l 625 96 l 658 257 l 742 257 l 742 0 l 58 0 l 58 71 l 171 97 z "},"Ė":{"ha":803,"x_min":58,"x_max":742,"o":"m 419 961 q 349 990 376 961 q 322 1064 322 1018 q 353 1140 322 1108 q 429 1172 385 1172 q 499 1146 472 1172 q 526 1074 526 1119 q 497 994 526 1028 q 419 961 467 961 m 171 97 l 171 803 l 58 829 l 58 900 l 729 900 l 729 651 l 644 651 l 611 806 l 429 806 l 340 796 l 340 504 l 510 504 l 538 596 l 606 596 l 606 314 l 538 314 l 510 410 l 340 410 l 340 101 q 436 96 393 96 l 625 96 l 658 257 l 742 257 l 742 0 l 58 0 l 58 71 l 171 97 z "},"Ẹ":{"ha":803,"x_min":58,"x_max":742,"o":"m 58 0 m 171 97 l 171 803 l 58 829 l 58 900 l 729 900 l 729 651 l 644 651 l 611 806 l 429 806 l 340 796 l 340 504 l 510 504 l 538 596 l 606 596 l 606 314 l 538 314 l 510 410 l 340 410 l 340 101 q 436 96 393 96 l 625 96 l 658 257 l 742 257 l 742 0 l 58 0 l 58 71 l 171 97 m 394 -269 q 326 -241 353 -269 q 299 -167 299 -212 q 329 -90 299 -122 q 404 -57 360 -57 q 474 -84 447 -57 q 501 -157 501 -111 q 472 -237 501 -204 q 394 -269 443 -269 z "},"È":{"ha":803,"x_min":58,"x_max":742,"o":"m 239 1040 q 236 1074 236 1063 q 254 1142 236 1115 q 304 1168 272 1168 q 329 1160 314 1168 q 355 1146 344 1153 q 371 1136 365 1139 l 564 999 l 531 938 l 239 1040 m 171 97 l 171 803 l 58 829 l 58 900 l 729 900 l 729 651 l 644 651 l 611 806 l 429 806 l 340 796 l 340 504 l 510 504 l 538 596 l 606 596 l 606 314 l 538 314 l 510 410 l 340 410 l 340 101 q 436 96 393 96 l 625 96 l 658 257 l 742 257 l 742 0 l 58 0 l 58 71 l 171 97 z "},"Ẻ":{"ha":803,"x_min":58,"x_max":742,"o":"m 58 0 m 171 97 l 171 803 l 58 829 l 58 900 l 729 900 l 729 651 l 644 651 l 611 806 l 429 806 l 340 796 l 340 504 l 510 504 l 538 596 l 606 596 l 606 314 l 538 314 l 510 410 l 340 410 l 340 101 q 436 96 393 96 l 625 96 l 658 257 l 742 257 l 742 0 l 58 0 l 58 71 l 171 97 m 393 935 q 381 968 381 956 q 393 993 381 982 q 435 1019 406 1004 q 475 1064 475 1039 q 461 1086 475 1079 q 417 1093 447 1093 q 338 1082 379 1093 q 315 1133 315 1110 q 338 1167 315 1156 q 415 1179 360 1179 q 549 1152 501 1179 q 596 1074 596 1125 q 524 985 596 1015 q 485 965 494 974 q 479 942 476 957 l 393 935 z "},"Ȇ":{"ha":803,"x_min":58,"x_max":742,"o":"m 58 0 m 171 97 l 171 803 l 58 829 l 58 900 l 729 900 l 729 651 l 644 651 l 611 806 l 429 806 l 340 796 l 340 504 l 510 504 l 538 596 l 606 596 l 606 314 l 538 314 l 510 410 l 340 410 l 340 101 q 436 96 393 96 l 625 96 l 658 257 l 742 257 l 742 0 l 58 0 l 58 71 l 171 97 m 574 965 q 556 992 574 969 q 506 1035 539 1015 q 425 1054 472 1054 q 335 1035 372 1054 q 278 995 297 1017 q 258 969 258 974 l 203 1003 q 228 1052 203 1010 q 303 1131 254 1094 q 426 1167 353 1167 q 569 1134 515 1167 q 647 1065 624 1101 q 671 1019 671 1028 l 574 965 z "},"Ē":{"ha":803,"x_min":58,"x_max":742,"o":"m 183 1107 l 657 1107 l 640 1004 l 167 1004 l 183 1107 m 171 97 l 171 803 l 58 829 l 58 900 l 729 900 l 729 651 l 644 651 l 611 806 l 429 806 l 340 796 l 340 504 l 510 504 l 538 596 l 606 596 l 606 314 l 538 314 l 510 410 l 340 410 l 340 101 q 436 96 393 96 l 625 96 l 658 257 l 742 257 l 742 0 l 58 0 l 58 71 l 171 97 z "},"Ę":{"ha":811,"x_min":58,"x_max":786,"o":"m 171 97 l 171 803 l 58 829 l 58 900 l 729 900 l 729 651 l 646 651 l 611 806 l 429 806 l 340 796 l 340 504 l 510 504 l 538 596 l 606 596 l 606 314 l 538 314 l 510 410 l 340 410 l 340 101 q 433 96 399 96 l 625 96 l 667 257 l 749 257 l 742 8 l 696 7 q 651 -46 672 -12 q 629 -114 629 -79 q 681 -165 629 -165 q 756 -137 710 -165 l 786 -189 q 765 -210 786 -192 q 712 -244 744 -228 q 640 -260 679 -260 q 548 -233 583 -260 q 513 -157 513 -207 q 539 -71 513 -111 q 607 0 565 -31 l 58 0 l 58 71 l 171 97 z "},"Ẽ":{"ha":803,"x_min":58,"x_max":742,"o":"m 58 0 m 171 97 l 171 803 l 58 829 l 58 900 l 729 900 l 729 651 l 644 651 l 611 806 l 429 806 l 340 796 l 340 504 l 510 504 l 538 596 l 606 596 l 606 314 l 538 314 l 510 410 l 340 410 l 340 101 q 436 96 393 96 l 625 96 l 658 257 l 742 257 l 742 0 l 58 0 l 58 71 l 171 97 m 540 971 q 454 989 508 971 l 325 1031 l 222 978 l 176 1024 l 226 1096 q 276 1141 250 1129 q 333 1153 301 1153 q 419 1138 374 1153 l 547 1094 l 651 1147 l 697 1101 l 647 1031 q 598 983 624 996 q 540 971 572 971 z "},"F":{"ha":736,"x_min":58,"x_max":722,"o":"m 58 71 l 171 97 l 171 803 l 58 829 l 58 900 l 722 900 l 722 651 l 638 651 l 604 806 l 429 806 l 340 796 l 340 479 l 529 479 l 557 571 l 625 571 l 625 288 l 557 288 l 529 386 l 340 386 l 340 99 l 468 74 l 468 0 l 58 0 l 58 71 z "},"G":{"ha":899,"x_min":54,"x_max":868,"o":"m 528 386 l 528 457 l 868 457 l 868 382 l 803 361 l 803 0 l 738 0 l 701 36 l 686 36 q 463 -21 594 -21 q 157 92 260 -21 q 54 432 54 206 q 112 689 54 578 q 275 861 169 800 q 521 922 381 922 q 792 879 667 922 l 792 642 l 701 642 l 668 793 q 515 818 608 818 q 311 728 374 818 q 249 449 249 639 q 308 166 249 251 q 497 81 367 81 q 573 88 542 81 q 635 108 604 94 l 635 360 l 528 386 z "},"Ǵ":{"ha":899,"x_min":54,"x_max":868,"o":"m 54 0 m 528 386 l 528 457 l 868 457 l 868 382 l 803 361 l 803 0 l 738 0 l 701 36 l 686 36 q 463 -21 594 -21 q 157 92 260 -21 q 54 432 54 206 q 112 689 54 578 q 275 861 169 800 q 521 922 381 922 q 792 879 667 922 l 792 642 l 701 642 l 668 793 q 515 818 608 818 q 311 728 374 818 q 249 449 249 639 q 308 166 249 251 q 497 81 367 81 q 573 88 542 81 q 635 108 604 94 l 635 360 l 528 386 m 403 999 l 596 1136 q 632 1158 614 1147 q 663 1168 650 1168 q 713 1141 696 1168 q 731 1071 731 1114 q 728 1040 731 1063 l 436 938 l 403 999 z "},"Ğ":{"ha":903,"x_min":54,"x_max":868,"o":"m 332 1167 q 349 1140 332 1163 q 399 1097 367 1117 q 481 1078 432 1078 q 571 1097 533 1078 q 628 1136 608 1115 q 647 1161 647 1157 l 703 1129 q 677 1080 703 1122 q 602 1001 651 1038 q 479 965 553 965 q 336 998 390 965 q 258 1067 282 1031 q 235 1111 235 1103 l 332 1167 m 528 386 l 528 457 l 868 457 l 868 382 l 803 361 l 803 0 l 738 0 l 701 36 l 686 36 q 463 -21 594 -21 q 157 92 260 -21 q 54 432 54 206 q 112 689 54 578 q 275 861 169 800 q 521 922 381 922 q 789 879 664 922 l 789 642 l 701 642 l 668 793 q 515 818 608 818 q 311 728 374 818 q 249 449 249 639 q 308 166 249 251 q 497 81 367 81 q 573 88 542 81 q 635 108 604 94 l 635 360 l 528 386 z "},"Ǧ":{"ha":899,"x_min":54,"x_max":868,"o":"m 54 0 m 528 386 l 528 457 l 868 457 l 868 382 l 803 361 l 803 0 l 738 0 l 701 36 l 686 36 q 463 -21 594 -21 q 157 92 260 -21 q 54 432 54 206 q 112 689 54 578 q 275 861 169 800 q 521 922 381 922 q 792 879 667 922 l 792 642 l 701 642 l 668 793 q 515 818 608 818 q 311 728 374 818 q 249 449 249 639 q 308 166 249 251 q 497 81 367 81 q 573 88 542 81 q 635 108 604 94 l 635 360 l 528 386 m 507 1079 l 693 1167 l 732 1111 l 585 990 q 558 968 578 985 q 525 944 539 951 q 499 936 511 936 q 471 946 486 936 q 439 969 456 956 q 414 989 422 983 l 268 1100 l 315 1167 l 507 1079 z "},"Ĝ":{"ha":899,"x_min":54,"x_max":868,"o":"m 54 0 m 528 386 l 528 457 l 868 457 l 868 382 l 803 361 l 803 0 l 738 0 l 701 36 l 686 36 q 463 -21 594 -21 q 157 92 260 -21 q 54 432 54 206 q 112 689 54 578 q 275 861 169 800 q 521 922 381 922 q 792 879 667 922 l 792 642 l 701 642 l 668 793 q 515 818 608 818 q 311 728 374 818 q 249 449 249 639 q 308 166 249 251 q 497 81 367 81 q 573 88 542 81 q 635 108 604 94 l 635 360 l 528 386 m 418 1113 q 475 1156 458 1146 q 503 1167 492 1167 q 530 1157 515 1167 q 561 1134 544 1147 q 586 1114 578 1121 l 731 1000 l 688 936 l 494 1024 l 306 936 l 269 990 l 418 1113 z "},"Ģ":{"ha":903,"x_min":54,"x_max":868,"o":"m 528 386 l 528 457 l 868 457 l 868 382 l 803 361 l 803 0 l 738 0 l 701 36 l 686 36 q 463 -21 594 -21 q 157 92 260 -21 q 54 432 54 206 q 112 689 54 578 q 275 861 169 800 q 521 922 381 922 q 789 879 664 922 l 789 642 l 701 642 l 668 793 q 515 818 608 818 q 311 728 374 818 q 249 449 249 639 q 308 166 249 251 q 497 81 367 81 q 573 88 542 81 q 635 108 604 94 l 635 360 l 528 386 m 431 -282 q 444 -231 436 -267 q 451 -158 451 -194 q 421 -74 451 -104 q 493 -36 454 -36 q 553 -59 533 -36 q 572 -114 572 -82 q 553 -193 572 -156 q 510 -258 533 -231 q 486 -282 486 -285 l 431 -282 z "},"Ġ":{"ha":899,"x_min":54,"x_max":868,"o":"m 54 0 m 528 386 l 528 457 l 868 457 l 868 382 l 803 361 l 803 0 l 738 0 l 701 36 l 686 36 q 463 -21 594 -21 q 157 92 260 -21 q 54 432 54 206 q 112 689 54 578 q 275 861 169 800 q 521 922 381 922 q 792 879 667 922 l 792 642 l 701 642 l 668 793 q 515 818 608 818 q 311 728 374 818 q 249 449 249 639 q 308 166 249 251 q 497 81 367 81 q 573 88 542 81 q 635 108 604 94 l 635 360 l 528 386 m 493 961 q 424 990 451 961 q 397 1064 397 1018 q 428 1140 397 1108 q 503 1172 458 1172 q 573 1146 546 1172 q 600 1074 600 1119 q 571 994 600 1026 q 493 961 542 961 z "},"H":{"ha":1054,"x_min":58,"x_max":996,"o":"m 58 72 l 171 96 l 171 804 l 58 828 l 58 900 l 453 900 l 453 828 l 340 804 l 340 511 l 714 511 l 714 804 l 601 828 l 601 900 l 996 900 l 996 828 l 883 804 l 883 96 l 996 72 l 996 0 l 601 0 l 601 72 l 714 96 l 714 415 l 340 415 l 340 96 l 453 72 l 453 0 l 58 0 l 58 72 z "},"Ħ":{"ha":1054,"x_min":57,"x_max":999,"o":"m 58 0 l 58 72 l 171 96 l 171 590 l 57 590 l 57 686 l 171 686 l 171 804 l 58 828 l 58 900 l 453 900 l 453 828 l 340 804 l 340 686 l 714 686 l 714 804 l 601 828 l 601 900 l 996 900 l 996 828 l 883 804 l 883 686 l 999 686 l 999 590 l 883 590 l 883 96 l 996 72 l 996 0 l 601 0 l 601 72 l 714 96 l 714 369 l 340 369 l 340 96 l 453 72 l 453 0 l 58 0 m 340 467 l 714 467 l 714 590 l 340 590 l 340 467 z "},"Ĥ":{"ha":1054,"x_min":58,"x_max":996,"o":"m 58 0 m 58 72 l 171 96 l 171 804 l 58 828 l 58 900 l 453 900 l 453 828 l 340 804 l 340 511 l 714 511 l 714 804 l 601 828 l 601 900 l 996 900 l 996 828 l 883 804 l 883 96 l 996 72 l 996 0 l 601 0 l 601 72 l 714 96 l 714 415 l 340 415 l 340 96 l 453 72 l 453 0 l 58 0 l 58 72 m 446 1113 q 503 1156 486 1146 q 531 1167 519 1167 q 558 1157 543 1167 q 589 1134 572 1147 q 614 1114 606 1121 l 758 1000 l 715 936 l 522 1024 l 333 936 l 297 990 l 446 1113 z "},"Ḥ":{"ha":1054,"x_min":58,"x_max":996,"o":"m 58 0 m 58 72 l 171 96 l 171 804 l 58 828 l 58 900 l 453 900 l 453 828 l 340 804 l 340 511 l 714 511 l 714 804 l 601 828 l 601 900 l 996 900 l 996 828 l 883 804 l 883 96 l 996 72 l 996 0 l 601 0 l 601 72 l 714 96 l 714 415 l 340 415 l 340 96 l 453 72 l 453 0 l 58 0 l 58 72 m 521 -269 q 452 -241 479 -269 q 425 -167 425 -212 q 456 -90 425 -122 q 531 -57 486 -57 q 601 -84 574 -57 q 628 -157 628 -111 q 599 -237 628 -204 q 521 -269 569 -269 z "},"I":{"ha":515,"x_min":61,"x_max":454,"o":"m 61 72 l 172 96 l 172 804 l 61 828 l 61 900 l 454 900 l 454 828 l 343 804 l 343 96 l 454 72 l 454 0 l 61 0 l 61 72 z "},"Ĳ":{"ha":1085,"x_min":61,"x_max":1057,"o":"m 61 0 m 61 72 l 172 96 l 172 804 l 61 828 l 61 900 l 454 900 l 454 828 l 343 804 l 343 96 l 454 72 l 454 0 l 61 0 l 61 72 m 607 250 l 644 88 q 664 81 649 86 q 700 76 679 76 q 763 97 746 76 q 779 156 779 117 l 779 803 l 660 828 l 660 900 l 1057 900 l 1057 828 l 949 804 l 949 163 q 895 25 949 74 q 713 -24 842 -24 q 596 -9 647 -24 q 521 19 544 6 l 521 250 l 607 250 z "},"Í":{"ha":515,"x_min":61,"x_max":454,"o":"m 288 1136 q 308 1149 293 1139 q 335 1163 324 1158 q 356 1168 347 1168 q 406 1141 389 1168 q 424 1071 424 1114 q 421 1040 424 1063 l 129 938 l 96 999 l 288 1136 m 61 72 l 172 96 l 172 804 l 61 828 l 61 900 l 454 900 l 454 828 l 343 804 l 343 96 l 454 72 l 454 0 l 61 0 l 61 72 z "},"Ĭ":{"ha":515,"x_min":24,"x_max":492,"o":"m 24 0 m 61 72 l 172 96 l 172 804 l 61 828 l 61 900 l 454 900 l 454 828 l 343 804 l 343 96 l 454 72 l 454 0 l 61 0 l 61 72 m 121 1167 q 138 1140 121 1163 q 188 1097 156 1117 q 269 1078 221 1078 q 359 1097 322 1078 q 416 1136 396 1115 q 436 1161 436 1157 l 492 1129 q 466 1080 492 1122 q 390 1001 440 1038 q 268 965 340 965 q 125 998 179 965 q 47 1067 71 1031 q 24 1111 24 1103 l 121 1167 z "},"Ǐ":{"ha":515,"x_min":26,"x_max":490,"o":"m 26 0 m 61 72 l 172 96 l 172 804 l 61 828 l 61 900 l 454 900 l 454 828 l 343 804 l 343 96 l 454 72 l 454 0 l 61 0 l 61 72 m 265 1079 l 451 1167 l 490 1111 l 343 990 q 317 968 336 985 q 283 944 297 951 q 257 936 269 936 q 229 946 244 936 q 197 969 214 956 q 172 989 181 983 l 26 1100 l 74 1167 l 265 1079 z "},"Î":{"ha":515,"x_min":24,"x_max":486,"o":"m 172 1113 q 227 1156 211 1144 q 254 1167 243 1167 q 280 1158 267 1167 q 314 1135 293 1150 q 342 1114 335 1119 l 486 1000 l 442 936 l 249 1024 l 61 936 l 24 990 l 172 1113 m 61 72 l 172 96 l 172 804 l 61 828 l 61 900 l 454 900 l 454 828 l 343 804 l 343 96 l 454 72 l 454 0 l 61 0 l 61 72 z "},"Ȉ":{"ha":515,"x_min":-99,"x_max":454,"o":"m 0 0 m 61 72 l 172 96 l 172 804 l 61 828 l 61 900 l 454 900 l 454 828 l 343 804 l 343 96 l 454 72 l 454 0 l 61 0 l 61 72 m -99 1085 q -71 1154 -92 1129 q -26 1179 -50 1179 q 7 1169 -8 1179 q 40 1136 22 1158 l 168 985 l 124 935 l -99 1085 m 163 1085 q 190 1154 169 1129 q 235 1179 210 1179 q 268 1169 253 1179 q 301 1136 283 1158 l 429 985 l 385 935 l 163 1085 z "},"Ï":{"ha":515,"x_min":3,"x_max":513,"o":"m 90 964 q 28 990 53 964 q 3 1057 3 1017 q 31 1127 3 1097 q 100 1157 60 1157 q 164 1133 139 1157 q 189 1067 189 1108 q 162 994 189 1024 q 90 964 135 964 m 414 964 q 351 990 375 964 q 326 1057 326 1017 q 354 1128 326 1099 q 424 1157 382 1157 q 488 1133 463 1157 q 513 1067 513 1108 q 485 994 513 1024 q 414 964 458 964 m 61 0 l 61 72 l 172 96 l 172 804 l 61 828 l 61 900 l 454 900 l 454 828 l 343 804 l 343 96 l 454 72 l 454 0 l 61 0 z "},"İ":{"ha":515,"x_min":61,"x_max":454,"o":"m 251 961 q 181 990 208 961 q 154 1064 154 1018 q 185 1140 154 1108 q 261 1172 217 1172 q 331 1146 304 1172 q 358 1074 358 1119 q 328 994 358 1028 q 251 961 299 961 m 61 72 l 172 96 l 172 804 l 61 828 l 61 900 l 454 900 l 454 828 l 343 804 l 343 96 l 454 72 l 454 0 l 61 0 l 61 72 z "},"Ị":{"ha":515,"x_min":61,"x_max":454,"o":"m 61 0 m 61 72 l 172 96 l 172 804 l 61 828 l 61 900 l 454 900 l 454 828 l 343 804 l 343 96 l 454 72 l 454 0 l 61 0 l 61 72 m 251 -269 q 183 -241 210 -269 q 156 -167 156 -212 q 186 -90 156 -122 q 261 -57 217 -57 q 331 -84 304 -57 q 358 -157 358 -111 q 329 -237 358 -204 q 251 -269 300 -269 z "},"Ì":{"ha":515,"x_min":61,"x_max":454,"o":"m 89 1040 q 86 1071 86 1060 q 104 1140 86 1113 q 154 1168 122 1168 q 181 1160 165 1168 q 207 1146 197 1153 q 222 1136 217 1139 l 414 999 l 381 938 l 89 1040 m 61 72 l 172 96 l 172 804 l 61 828 l 61 900 l 454 900 l 454 828 l 343 804 l 343 96 l 454 72 l 454 0 l 61 0 l 61 72 z "},"Ỉ":{"ha":515,"x_min":61,"x_max":454,"o":"m 61 0 m 61 72 l 172 96 l 172 804 l 61 828 l 61 900 l 454 900 l 454 828 l 343 804 l 343 96 l 454 72 l 454 0 l 61 0 l 61 72 m 214 935 q 201 968 201 956 q 214 993 201 982 q 256 1019 226 1004 q 296 1064 296 1039 q 282 1086 296 1079 q 238 1093 268 1093 q 158 1082 200 1093 q 136 1133 136 1110 q 158 1167 136 1156 q 236 1179 181 1179 q 369 1152 322 1179 q 417 1074 417 1125 q 344 985 417 1015 q 306 965 315 974 q 300 942 297 957 l 214 935 z "},"Ȋ":{"ha":515,"x_min":24,"x_max":492,"o":"m 24 0 m 61 72 l 172 96 l 172 804 l 61 828 l 61 900 l 454 900 l 454 828 l 343 804 l 343 96 l 454 72 l 454 0 l 61 0 l 61 72 m 394 965 q 377 992 394 969 q 326 1035 360 1015 q 246 1054 293 1054 q 156 1035 193 1054 q 99 995 118 1017 q 79 969 79 974 l 24 1003 q 49 1052 24 1010 q 124 1131 75 1094 q 247 1167 174 1167 q 390 1134 336 1167 q 468 1065 444 1101 q 492 1019 492 1028 l 394 965 z "},"Ī":{"ha":515,"x_min":22,"x_max":492,"o":"m 22 1018 l 39 1121 l 492 1121 l 475 1018 l 22 1018 m 61 0 l 61 72 l 172 96 l 172 804 l 61 828 l 61 900 l 454 900 l 454 828 l 343 804 l 343 96 l 454 72 l 454 0 l 61 0 z "},"Į":{"ha":515,"x_min":61,"x_max":469,"o":"m 172 96 l 172 804 l 61 828 l 61 900 l 454 900 l 454 828 l 343 804 l 343 96 l 454 72 l 454 0 l 385 0 q 334 -52 356 -22 q 313 -114 313 -82 q 365 -165 313 -165 q 440 -137 392 -165 l 469 -189 q 449 -210 469 -192 q 396 -244 428 -228 q 325 -260 364 -260 q 232 -233 267 -260 q 197 -157 197 -207 q 226 -67 197 -107 q 301 0 256 -28 l 61 0 l 61 72 l 172 96 z "},"Ĩ":{"ha":515,"x_min":-3,"x_max":518,"o":"m 0 0 m 61 72 l 172 96 l 172 804 l 61 828 l 61 900 l 454 900 l 454 828 l 343 804 l 343 96 l 454 72 l 454 0 l 61 0 l 61 72 m 361 971 q 275 989 329 971 l 146 1031 l 43 978 l -3 1024 l 47 1096 q 97 1141 71 1129 q 154 1153 122 1153 q 240 1138 194 1153 l 368 1094 l 472 1147 l 518 1101 l 468 1031 q 419 983 444 996 q 361 971 393 971 z "},"J":{"ha":569,"x_min":6,"x_max":542,"o":"m 92 250 l 129 88 q 149 81 133 86 q 185 76 164 76 q 247 97 231 76 q 264 156 264 117 l 264 803 l 144 828 l 144 900 l 542 900 l 542 828 l 433 804 l 433 163 q 380 25 433 74 q 197 -24 326 -24 q 81 -9 132 -24 q 6 19 29 6 l 6 250 l 92 250 z "},"Ĵ":{"ha":569,"x_min":6,"x_max":579,"o":"m 6 0 m 92 250 l 129 88 q 149 81 133 86 q 185 76 164 76 q 247 97 231 76 q 264 156 264 117 l 264 803 l 144 828 l 144 900 l 542 900 l 542 828 l 433 804 l 433 163 q 380 25 433 74 q 197 -24 326 -24 q 81 -9 132 -24 q 6 19 29 6 l 6 250 l 92 250 m 267 1113 q 324 1156 307 1146 q 351 1167 340 1167 q 378 1157 364 1167 q 410 1134 393 1147 q 435 1114 426 1121 l 579 1000 l 536 936 l 343 1024 l 154 936 l 118 990 l 267 1113 z "},"K":{"ha":864,"x_min":58,"x_max":883,"o":"m 171 96 l 171 804 l 58 828 l 58 900 l 453 900 l 453 828 l 340 804 l 340 496 l 369 496 l 611 792 l 611 813 l 539 829 l 539 900 l 849 900 l 849 828 l 758 806 l 504 496 l 779 97 l 883 72 l 883 0 l 704 0 q 651 12 671 0 q 613 54 632 24 l 368 415 l 340 415 l 340 96 l 453 72 l 453 0 l 58 0 l 58 72 l 171 96 z "},"Ķ":{"ha":875,"x_min":58,"x_max":883,"o":"m 58 72 l 171 96 l 171 804 l 58 828 l 58 900 l 453 900 l 453 828 l 340 804 l 340 496 l 369 496 l 611 792 l 611 813 l 539 829 l 539 900 l 849 900 l 849 828 l 758 806 l 504 496 l 779 97 l 883 72 l 883 0 l 704 0 q 651 12 671 0 q 613 54 632 24 l 368 415 l 340 415 l 340 96 l 453 72 l 453 0 l 58 0 l 58 72 m 411 -282 q 432 -158 432 -212 q 401 -74 432 -104 q 474 -36 435 -36 q 533 -59 514 -36 q 553 -114 553 -82 q 533 -193 553 -156 q 490 -258 514 -231 q 465 -282 465 -285 l 411 -282 z "},"L":{"ha":726,"x_min":58,"x_max":714,"o":"m 58 71 l 171 97 l 171 803 l 58 829 l 58 900 l 457 900 l 457 826 l 340 803 l 340 106 l 435 94 l 596 94 l 631 249 l 714 249 l 714 0 l 58 0 l 58 71 z "},"Ǉ":{"ha":1296,"x_min":58,"x_max":1268,"o":"m 58 71 l 171 97 l 171 803 l 58 829 l 58 900 l 457 900 l 457 826 l 340 803 l 340 106 l 435 94 l 558 94 l 593 249 l 676 249 l 676 0 l 58 0 l 58 71 m 818 250 l 856 88 q 875 81 860 86 q 911 76 890 76 q 974 97 957 76 q 990 156 990 117 l 990 803 l 871 828 l 871 900 l 1268 900 l 1268 828 l 1160 804 l 1160 163 q 1106 25 1160 74 q 924 -24 1053 -24 q 807 -9 858 -24 q 732 19 756 6 l 732 250 l 818 250 z "},"Ĺ":{"ha":736,"x_min":58,"x_max":714,"o":"m 146 999 l 339 1136 q 375 1158 357 1147 q 406 1168 393 1168 q 456 1141 439 1168 q 474 1071 474 1114 q 471 1040 474 1063 l 179 938 l 146 999 m 58 0 l 58 71 l 171 97 l 171 803 l 58 829 l 58 900 l 457 900 l 457 826 l 340 803 l 340 106 l 435 94 l 596 94 l 631 249 l 714 249 l 714 0 l 58 0 z "},"Ľ":{"ha":738,"x_min":61,"x_max":715,"o":"m 549 669 q 565 740 558 700 q 571 811 571 781 q 563 859 571 836 q 543 894 554 882 q 613 925 569 925 q 670 902 650 925 q 690 849 690 879 q 671 772 690 813 q 631 704 651 732 q 603 669 610 676 l 549 669 m 61 0 l 61 71 l 174 97 l 174 803 l 61 829 l 61 900 l 460 900 l 460 826 l 343 803 l 343 106 l 436 94 l 597 94 l 632 249 l 715 249 l 715 0 l 61 0 z "},"Ļ":{"ha":738,"x_min":61,"x_max":715,"o":"m 61 0 l 61 71 l 174 97 l 174 803 l 61 829 l 61 900 l 460 900 l 460 826 l 343 803 l 343 106 l 436 94 l 597 94 l 632 249 l 715 249 l 715 0 l 61 0 m 338 -282 q 358 -158 358 -212 q 328 -74 358 -104 q 400 -36 361 -36 q 460 -59 440 -36 q 479 -114 479 -82 q 460 -193 479 -156 q 416 -258 440 -231 q 392 -282 392 -285 l 338 -282 z "},"Ŀ":{"ha":726,"x_min":58,"x_max":714,"o":"m 58 0 m 58 71 l 171 97 l 171 803 l 58 829 l 58 900 l 457 900 l 457 826 l 340 803 l 340 106 l 435 94 l 596 94 l 631 249 l 714 249 l 714 0 l 58 0 l 58 71 m 529 411 q 463 438 489 411 q 438 507 438 464 q 467 580 438 549 q 538 611 496 611 q 603 585 578 611 q 629 517 629 560 q 601 442 629 474 q 529 411 574 411 z "},"ǈ":{"ha":1089,"x_min":58,"x_max":997,"o":"m 58 0 m 58 71 l 171 97 l 171 803 l 58 829 l 58 900 l 457 900 l 457 826 l 340 803 l 340 106 l 435 94 l 596 94 l 631 249 l 714 249 l 714 0 l 58 0 l 58 71 m 890 783 q 822 812 849 783 q 794 885 794 840 q 825 962 794 929 q 900 994 856 994 q 970 967 943 994 q 997 894 997 940 q 968 816 997 849 q 890 783 939 783 m 831 -233 q 763 -228 794 -233 q 712 -218 731 -224 q 689 -211 693 -212 l 689 -147 l 833 -114 l 833 569 l 722 590 l 722 663 l 947 697 l 992 679 l 992 -111 q 951 -201 992 -168 q 831 -233 910 -233 z "},"Ł":{"ha":726,"x_min":58,"x_max":714,"o":"m 58 71 l 171 97 l 171 392 l 69 357 l 69 439 l 171 476 l 171 803 l 58 829 l 58 900 l 457 900 l 457 826 l 340 803 l 340 538 l 488 592 l 488 503 l 340 451 l 340 106 l 435 94 l 596 94 l 631 249 l 714 249 l 714 0 l 58 0 l 58 71 z "},"M":{"ha":1224,"x_min":56,"x_max":1163,"o":"m 56 0 l 56 71 l 164 96 l 164 806 l 72 824 l 72 900 l 392 900 l 597 254 l 607 199 l 619 254 l 825 900 l 1151 900 l 1151 822 l 1050 804 l 1050 96 l 1163 72 l 1163 0 l 769 0 l 769 72 l 881 96 l 881 663 l 883 696 l 871 696 l 863 663 l 649 0 l 517 0 l 292 696 l 281 696 l 282 661 l 282 96 l 390 71 l 390 0 l 56 0 z "},"N":{"ha":1011,"x_min":58,"x_max":971,"o":"m 58 0 l 58 71 l 165 96 l 165 806 l 74 824 l 74 900 l 336 900 l 728 282 l 738 258 l 746 258 l 746 804 l 640 828 l 640 900 l 971 900 l 971 828 l 865 804 l 865 0 l 710 0 l 300 632 l 290 656 l 283 656 l 283 96 l 389 71 l 389 0 l 58 0 z "},"Ǌ":{"ha":1581,"x_min":58,"x_max":1553,"o":"m 58 0 m 58 0 l 58 71 l 165 96 l 165 806 l 74 824 l 74 900 l 336 900 l 728 282 l 738 258 l 746 258 l 746 804 l 640 828 l 640 900 l 971 900 l 971 828 l 865 804 l 865 0 l 710 0 l 300 632 l 290 656 l 283 656 l 283 96 l 389 71 l 389 0 l 58 0 m 1103 250 l 1140 88 q 1160 81 1144 86 q 1196 76 1175 76 q 1258 97 1242 76 q 1275 156 1275 117 l 1275 803 l 1156 828 l 1156 900 l 1553 900 l 1553 828 l 1444 804 l 1444 163 q 1391 25 1444 74 q 1208 -24 1338 -24 q 1092 -9 1143 -24 q 1017 19 1040 6 l 1017 250 l 1103 250 z "},"Ń":{"ha":1015,"x_min":58,"x_max":971,"o":"m 372 999 l 565 1136 q 586 1149 571 1139 q 613 1163 601 1158 q 632 1168 624 1168 q 683 1141 665 1168 q 700 1071 700 1114 q 697 1040 700 1063 l 406 938 l 372 999 m 58 0 l 58 71 l 165 96 l 165 806 l 74 824 l 74 900 l 336 900 l 728 282 l 738 258 l 746 258 l 746 804 l 640 828 l 640 900 l 971 900 l 971 828 l 865 804 l 865 0 l 710 0 l 300 633 l 290 656 l 283 656 l 283 96 l 389 71 l 389 0 l 58 0 z "},"Ň":{"ha":1015,"x_min":58,"x_max":971,"o":"m 511 953 q 480 967 499 953 q 421 1018 461 982 l 303 1128 l 357 1192 l 521 1092 l 688 1190 l 728 1135 l 601 1018 q 540 965 556 978 q 511 953 524 953 m 58 0 l 58 71 l 165 96 l 165 806 l 74 824 l 74 900 l 336 900 l 728 283 l 738 258 l 746 258 l 746 804 l 640 828 l 640 900 l 971 900 l 971 828 l 865 804 l 865 0 l 710 0 l 300 633 l 290 656 l 283 656 l 283 96 l 389 71 l 389 0 l 58 0 z "},"Ņ":{"ha":1015,"x_min":58,"x_max":971,"o":"m 58 0 l 58 71 l 165 96 l 165 806 l 74 824 l 74 900 l 336 900 l 728 282 l 738 258 l 746 258 l 746 804 l 640 828 l 640 900 l 971 900 l 971 828 l 865 804 l 865 0 l 710 0 l 300 633 l 290 656 l 283 656 l 283 96 l 389 71 l 389 0 l 58 0 m 450 -282 q 463 -231 456 -267 q 471 -158 471 -194 q 440 -74 471 -104 q 513 -36 474 -36 q 572 -59 553 -36 q 592 -114 592 -82 q 572 -193 592 -156 q 529 -258 553 -231 q 506 -282 506 -285 l 450 -282 z "},"Ṅ":{"ha":1011,"x_min":58,"x_max":971,"o":"m 58 0 m 58 0 l 58 71 l 165 96 l 165 806 l 74 824 l 74 900 l 336 900 l 728 282 l 738 258 l 746 258 l 746 804 l 640 828 l 640 900 l 971 900 l 971 828 l 865 804 l 865 0 l 710 0 l 300 632 l 290 656 l 283 656 l 283 96 l 389 71 l 389 0 l 58 0 m 500 961 q 431 990 458 961 q 404 1064 404 1018 q 435 1140 404 1108 q 510 1172 465 1172 q 580 1146 553 1172 q 607 1074 607 1119 q 578 994 607 1026 q 500 961 549 961 z "},"Ŋ":{"ha":1011,"x_min":58,"x_max":971,"o":"m 971 900 l 971 828 l 865 804 l 865 -111 q 824 -201 865 -168 q 703 -233 782 -233 q 635 -228 667 -233 q 585 -218 604 -224 q 561 -211 565 -212 l 561 -147 l 701 -115 l 701 13 l 300 632 l 290 656 l 283 656 l 283 96 l 389 71 l 389 0 l 58 0 l 58 71 l 165 96 l 165 806 l 74 824 l 74 900 l 336 900 l 728 282 l 738 258 l 746 258 l 746 804 l 640 828 l 640 900 l 971 900 z "},"Ɲ":{"ha":1011,"x_min":19,"x_max":971,"o":"m 147 -233 q 86 -228 114 -233 q 41 -218 58 -224 q 19 -211 24 -212 l 19 -147 l 165 -114 l 165 806 l 74 824 l 74 900 l 336 900 l 726 283 l 738 258 l 746 258 l 746 804 l 640 828 l 640 900 l 971 900 l 971 828 l 865 804 l 865 0 l 710 0 l 299 635 l 290 656 l 283 656 l 283 -111 q 249 -201 283 -168 q 147 -233 214 -233 z "},"ǋ":{"ha":1400,"x_min":58,"x_max":1308,"o":"m 58 0 m 58 0 l 58 71 l 165 96 l 165 806 l 74 824 l 74 900 l 336 900 l 728 282 l 738 258 l 746 258 l 746 804 l 640 828 l 640 900 l 971 900 l 971 828 l 865 804 l 865 0 l 710 0 l 300 632 l 290 656 l 283 656 l 283 96 l 389 71 l 389 0 l 58 0 m 1201 783 q 1133 812 1160 783 q 1106 885 1106 840 q 1136 962 1106 929 q 1211 994 1167 994 q 1281 967 1254 994 q 1308 894 1308 940 q 1279 816 1308 849 q 1201 783 1250 783 m 1142 -233 q 1074 -228 1106 -233 q 1023 -218 1042 -224 q 1000 -211 1004 -212 l 1000 -147 l 1144 -114 l 1144 569 l 1033 590 l 1033 663 l 1258 697 l 1303 679 l 1303 -111 q 1262 -201 1303 -168 q 1142 -233 1221 -233 z "},"Ñ":{"ha":1015,"x_min":58,"x_max":971,"o":"m 621 971 q 536 989 590 971 l 407 1031 l 304 978 l 258 1024 l 307 1096 q 356 1141 329 1129 q 415 1153 382 1153 q 501 1138 454 1153 l 629 1094 l 733 1147 l 779 1101 l 729 1031 q 680 983 706 996 q 621 971 654 971 m 58 0 l 58 71 l 165 96 l 165 806 l 74 824 l 74 900 l 336 900 l 728 282 l 738 258 l 746 258 l 746 804 l 640 828 l 640 900 l 971 900 l 971 828 l 865 804 l 865 0 l 710 0 l 299 636 l 290 656 l 283 656 l 283 96 l 389 71 l 389 0 l 58 0 z "},"O":{"ha":976,"x_min":54,"x_max":922,"o":"m 475 -22 q 163 96 271 -22 q 54 435 54 214 q 108 685 54 575 q 265 859 163 796 q 508 922 368 922 q 814 803 706 922 q 922 467 922 685 q 871 213 922 324 q 719 40 819 103 q 475 -22 618 -22 m 501 79 q 674 163 621 79 q 726 435 726 246 q 699 663 726 579 q 619 781 672 746 q 485 817 567 817 q 355 788 406 817 q 276 681 304 758 q 249 461 249 603 q 310 167 249 256 q 501 79 371 79 z "},"Ó":{"ha":976,"x_min":54,"x_max":922,"o":"m 336 999 l 529 1136 q 550 1149 535 1139 q 576 1163 565 1158 q 596 1168 588 1168 q 647 1140 629 1168 q 664 1068 664 1113 q 663 1040 664 1050 l 369 938 l 336 999 m 475 -22 q 163 96 271 -22 q 54 435 54 214 q 108 685 54 575 q 265 859 163 796 q 508 922 368 922 q 814 803 706 922 q 922 467 922 685 q 871 213 922 324 q 719 40 819 103 q 475 -22 618 -22 m 501 79 q 674 163 621 79 q 726 435 726 246 q 699 663 726 579 q 619 781 672 746 q 485 817 567 817 q 355 788 406 817 q 276 681 304 758 q 249 461 249 603 q 310 167 249 256 q 501 79 371 79 z "},"Ŏ":{"ha":976,"x_min":54,"x_max":922,"o":"m 54 0 m 475 -22 q 163 96 271 -22 q 54 435 54 214 q 108 685 54 575 q 265 859 163 796 q 508 922 368 922 q 814 803 706 922 q 922 467 922 685 q 871 213 922 324 q 719 40 819 103 q 475 -22 618 -22 m 501 79 q 674 163 621 79 q 726 435 726 246 q 699 663 726 579 q 619 781 672 746 q 485 817 567 817 q 355 788 406 817 q 276 681 304 758 q 249 461 249 603 q 310 167 249 256 q 501 79 371 79 m 351 1167 q 369 1140 351 1163 q 419 1097 386 1117 q 500 1078 451 1078 q 590 1097 553 1078 q 647 1136 626 1115 q 667 1161 667 1157 l 722 1129 q 697 1080 722 1122 q 621 1001 671 1038 q 499 965 571 965 q 356 998 410 965 q 278 1067 301 1031 q 254 1111 254 1103 l 351 1167 z "},"Ǒ":{"ha":976,"x_min":54,"x_max":922,"o":"m 54 0 m 475 -22 q 163 96 271 -22 q 54 435 54 214 q 108 685 54 575 q 265 859 163 796 q 508 922 368 922 q 814 803 706 922 q 922 467 922 685 q 871 213 922 324 q 719 40 819 103 q 475 -22 618 -22 m 501 79 q 674 163 621 79 q 726 435 726 246 q 699 663 726 579 q 619 781 672 746 q 485 817 567 817 q 355 788 406 817 q 276 681 304 758 q 249 461 249 603 q 310 167 249 256 q 501 79 371 79 m 496 1079 l 682 1167 l 721 1111 l 574 990 q 547 968 567 985 q 514 944 528 951 q 488 936 500 936 q 460 946 475 936 q 428 969 444 956 q 403 989 411 983 l 257 1100 l 304 1167 l 496 1079 z "},"Ô":{"ha":976,"x_min":54,"x_max":922,"o":"m 407 1113 q 465 1156 449 1146 q 493 1167 482 1167 q 519 1158 504 1167 q 550 1135 533 1149 q 575 1114 567 1121 l 719 1000 l 676 936 l 483 1024 l 294 936 l 258 990 l 407 1113 m 475 -22 q 163 96 271 -22 q 54 435 54 214 q 108 685 54 575 q 265 859 163 796 q 508 922 368 922 q 814 803 706 922 q 922 467 922 685 q 871 213 922 324 q 719 40 819 103 q 475 -22 618 -22 m 501 79 q 674 163 621 79 q 726 435 726 246 q 699 663 726 579 q 619 781 672 746 q 485 817 567 817 q 355 788 406 817 q 276 681 304 758 q 249 461 249 603 q 310 167 249 256 q 501 79 371 79 z "},"Ố":{"ha":976,"x_min":54,"x_max":922,"o":"m 54 0 m 475 -22 q 163 96 271 -22 q 54 435 54 214 q 108 685 54 575 q 265 859 163 796 q 508 922 368 922 q 814 803 706 922 q 922 467 922 685 q 871 213 922 324 q 719 40 819 103 q 475 -22 618 -22 m 501 79 q 674 163 621 79 q 726 435 726 246 q 699 663 726 579 q 619 781 672 746 q 485 817 567 817 q 355 788 406 817 q 276 681 304 758 q 249 461 249 603 q 310 167 249 256 q 501 79 371 79 m 407 1113 q 464 1156 447 1146 q 492 1167 481 1167 q 519 1157 504 1167 q 550 1134 533 1147 q 575 1114 567 1121 l 719 1000 l 676 936 l 483 1024 l 294 936 l 258 990 l 407 1113 m 561 1190 l 754 1328 q 790 1349 772 1339 q 821 1360 808 1360 q 872 1333 854 1360 q 889 1263 889 1306 q 886 1232 889 1254 l 594 1129 l 561 1190 z "},"Ộ":{"ha":976,"x_min":54,"x_max":922,"o":"m 54 0 m 475 -22 q 163 96 271 -22 q 54 435 54 214 q 108 685 54 575 q 265 859 163 796 q 508 922 368 922 q 814 803 706 922 q 922 467 922 685 q 871 213 922 324 q 719 40 819 103 q 475 -22 618 -22 m 501 79 q 674 163 621 79 q 726 435 726 246 q 699 663 726 579 q 619 781 672 746 q 485 817 567 817 q 355 788 406 817 q 276 681 304 758 q 249 461 249 603 q 310 167 249 256 q 501 79 371 79 m 482 -269 q 413 -241 440 -269 q 386 -167 386 -212 q 417 -90 386 -122 q 492 -57 447 -57 q 562 -84 535 -57 q 589 -157 589 -111 q 560 -237 589 -204 q 482 -269 531 -269 m 407 1113 q 464 1156 447 1146 q 492 1167 481 1167 q 519 1157 504 1167 q 550 1134 533 1147 q 575 1114 567 1121 l 719 1000 l 676 936 l 483 1024 l 294 936 l 258 990 l 407 1113 z "},"Ồ":{"ha":976,"x_min":54,"x_max":922,"o":"m 54 0 m 475 -22 q 163 96 271 -22 q 54 435 54 214 q 108 685 54 575 q 265 859 163 796 q 508 922 368 922 q 814 803 706 922 q 922 467 922 685 q 871 213 922 324 q 719 40 819 103 q 475 -22 618 -22 m 501 79 q 674 163 621 79 q 726 435 726 246 q 699 663 726 579 q 619 781 672 746 q 485 817 567 817 q 355 788 406 817 q 276 681 304 758 q 249 461 249 603 q 310 167 249 256 q 501 79 371 79 m 400 1113 q 457 1156 440 1146 q 485 1167 474 1167 q 512 1157 497 1167 q 543 1134 526 1147 q 568 1114 560 1121 l 713 1000 l 669 936 l 476 1024 l 288 936 l 251 990 l 400 1113 m 444 1232 q 442 1265 442 1254 q 460 1333 442 1307 q 510 1360 478 1360 q 540 1349 522 1360 q 576 1328 558 1339 l 769 1190 l 736 1129 l 444 1232 z "},"Ổ":{"ha":976,"x_min":54,"x_max":922,"o":"m 54 0 m 475 -22 q 163 96 271 -22 q 54 435 54 214 q 108 685 54 575 q 265 859 163 796 q 508 922 368 922 q 814 803 706 922 q 922 467 922 685 q 871 213 922 324 q 719 40 819 103 q 475 -22 618 -22 m 501 79 q 674 163 621 79 q 726 435 726 246 q 699 663 726 579 q 619 781 672 746 q 485 817 567 817 q 355 788 406 817 q 276 681 304 758 q 249 461 249 603 q 310 167 249 256 q 501 79 371 79 m 396 1113 q 453 1156 436 1146 q 481 1167 469 1167 q 508 1157 493 1167 q 539 1134 522 1147 q 564 1114 556 1121 l 708 1000 l 665 936 l 472 1024 l 283 936 l 247 990 l 396 1113 m 610 1111 q 597 1144 597 1132 q 610 1169 597 1158 q 651 1196 622 1181 q 692 1240 692 1215 q 678 1263 692 1256 q 633 1269 664 1269 q 554 1258 596 1269 q 532 1310 532 1286 q 554 1344 532 1332 q 632 1356 576 1356 q 765 1328 718 1356 q 813 1250 813 1301 q 740 1161 813 1192 q 702 1142 711 1150 q 696 1118 693 1133 l 610 1111 z "},"Ỗ":{"ha":976,"x_min":54,"x_max":922,"o":"m 593 1211 q 507 1226 560 1211 l 378 1263 l 275 1217 l 229 1257 l 279 1319 q 328 1359 303 1349 q 386 1369 353 1369 q 472 1356 425 1369 l 600 1318 l 704 1364 l 750 1324 l 700 1263 q 651 1222 676 1233 q 593 1211 625 1211 m 404 1113 q 461 1156 444 1146 q 489 1167 478 1167 q 516 1157 501 1167 q 547 1134 531 1147 q 572 1114 564 1121 l 717 1000 l 674 936 l 481 1024 l 292 936 l 256 990 l 404 1113 m 475 -22 q 163 96 271 -22 q 54 435 54 214 q 108 685 54 575 q 265 859 163 796 q 508 922 368 922 q 814 803 706 922 q 922 467 922 685 q 871 213 922 324 q 719 40 819 103 q 475 -22 618 -22 m 501 79 q 674 163 621 79 q 726 435 726 246 q 699 663 726 579 q 619 781 672 746 q 485 817 567 817 q 355 788 406 817 q 276 681 304 758 q 249 461 249 603 q 310 167 249 256 q 501 79 371 79 z "},"Ȍ":{"ha":976,"x_min":54,"x_max":922,"o":"m 54 0 m 475 -22 q 163 96 271 -22 q 54 435 54 214 q 108 685 54 575 q 265 859 163 796 q 508 922 368 922 q 814 803 706 922 q 922 467 922 685 q 871 213 922 324 q 719 40 819 103 q 475 -22 618 -22 m 501 79 q 674 163 621 79 q 726 435 726 246 q 699 663 726 579 q 619 781 672 746 q 485 817 567 817 q 355 788 406 817 q 276 681 304 758 q 249 461 249 603 q 310 167 249 256 q 501 79 371 79 m 132 1085 q 160 1154 139 1129 q 204 1179 181 1179 q 238 1169 222 1179 q 271 1136 253 1158 l 399 985 l 354 935 l 132 1085 m 393 1085 q 420 1154 400 1129 q 465 1179 440 1179 q 499 1169 483 1179 q 532 1136 514 1158 l 660 985 l 615 935 l 393 1085 z "},"Ö":{"ha":976,"x_min":54,"x_max":922,"o":"m 324 964 q 260 990 285 964 q 236 1057 236 1017 q 264 1128 236 1099 q 333 1157 292 1157 q 397 1133 372 1157 q 422 1067 422 1108 q 395 994 422 1024 q 324 964 368 964 m 647 964 q 584 990 608 964 q 560 1057 560 1017 q 588 1128 560 1099 q 657 1157 615 1157 q 720 1133 696 1157 q 744 1067 744 1108 q 717 994 744 1024 q 647 964 690 964 m 475 -22 q 163 96 271 -22 q 54 435 54 214 q 108 685 54 575 q 265 859 163 796 q 508 922 368 922 q 814 803 706 922 q 922 467 922 685 q 871 213 922 324 q 719 40 819 103 q 475 -22 618 -22 m 501 79 q 674 163 621 79 q 726 435 726 246 q 699 663 726 579 q 619 781 672 746 q 485 817 567 817 q 355 788 406 817 q 276 681 304 758 q 249 461 249 603 q 310 167 249 256 q 501 79 371 79 z "},"Ọ":{"ha":976,"x_min":54,"x_max":922,"o":"m 54 0 m 475 -22 q 163 96 271 -22 q 54 435 54 214 q 108 685 54 575 q 265 859 163 796 q 508 922 368 922 q 814 803 706 922 q 922 467 922 685 q 871 213 922 324 q 719 40 819 103 q 475 -22 618 -22 m 501 79 q 674 163 621 79 q 726 435 726 246 q 699 663 726 579 q 619 781 672 746 q 485 817 567 817 q 355 788 406 817 q 276 681 304 758 q 249 461 249 603 q 310 167 249 256 q 501 79 371 79 m 482 -269 q 413 -241 440 -269 q 386 -167 386 -212 q 417 -90 386 -122 q 492 -57 447 -57 q 562 -84 535 -57 q 589 -157 589 -111 q 560 -237 589 -204 q 482 -269 531 -269 z "},"Ò":{"ha":976,"x_min":54,"x_max":922,"o":"m 319 1040 q 317 1071 317 1060 q 335 1140 317 1113 q 385 1168 353 1168 q 412 1160 396 1168 q 438 1146 428 1153 q 453 1136 447 1139 l 646 999 l 613 938 l 319 1040 m 475 -22 q 163 96 271 -22 q 54 435 54 214 q 108 685 54 575 q 265 859 163 796 q 508 922 368 922 q 814 803 706 922 q 922 467 922 685 q 871 213 922 324 q 719 40 819 103 q 475 -22 618 -22 m 501 79 q 674 163 621 79 q 726 435 726 246 q 699 663 726 579 q 619 781 672 746 q 485 817 567 817 q 355 788 406 817 q 276 681 304 758 q 249 461 249 603 q 310 167 249 256 q 501 79 371 79 z "},"Ỏ":{"ha":976,"x_min":54,"x_max":922,"o":"m 54 0 m 475 -22 q 163 96 271 -22 q 54 435 54 214 q 108 685 54 575 q 265 859 163 796 q 508 922 368 922 q 814 803 706 922 q 922 467 922 685 q 871 213 922 324 q 719 40 819 103 q 475 -22 618 -22 m 501 79 q 674 163 621 79 q 726 435 726 246 q 699 663 726 579 q 619 781 672 746 q 485 817 567 817 q 355 788 406 817 q 276 681 304 758 q 249 461 249 603 q 310 167 249 256 q 501 79 371 79 m 444 935 q 432 968 432 956 q 444 993 432 982 q 486 1019 457 1004 q 526 1064 526 1039 q 513 1086 526 1079 q 468 1093 499 1093 q 389 1082 431 1093 q 367 1133 367 1110 q 389 1167 367 1156 q 467 1179 411 1179 q 600 1152 553 1179 q 647 1074 647 1125 q 575 985 647 1015 q 537 965 546 974 q 531 942 528 957 l 444 935 z "},"Ơ":{"ha":976,"x_min":54,"x_max":1067,"o":"m 1067 921 q 879 701 1067 818 q 922 467 922 600 q 871 213 922 324 q 719 40 819 103 q 475 -22 618 -22 q 163 96 271 -22 q 54 435 54 214 q 108 685 54 575 q 265 859 163 796 q 508 922 368 922 q 717 877 628 922 q 857 746 806 832 q 951 881 951 817 q 946 904 951 894 q 929 924 940 914 l 929 944 l 1021 1006 q 1053 974 1040 990 q 1067 921 1067 957 m 501 79 q 674 163 621 79 q 726 435 726 246 q 699 663 726 579 q 619 781 672 746 q 485 817 567 817 q 355 788 406 817 q 276 681 304 758 q 249 461 249 603 q 310 167 249 256 q 501 79 371 79 z "},"Ớ":{"ha":976,"x_min":54,"x_max":1067,"o":"m 54 0 m 1067 921 q 879 701 1067 818 q 922 467 922 600 q 871 213 922 324 q 719 40 819 103 q 475 -22 618 -22 q 163 96 271 -22 q 54 435 54 214 q 108 685 54 575 q 265 859 163 796 q 508 922 368 922 q 717 877 628 922 q 857 746 806 832 q 951 881 951 817 q 946 904 951 894 q 929 924 940 914 l 929 944 l 1021 1006 q 1053 974 1040 990 q 1067 921 1067 957 m 501 79 q 674 163 621 79 q 726 435 726 246 q 699 663 726 579 q 619 781 672 746 q 485 817 567 817 q 355 788 406 817 q 276 681 304 758 q 249 461 249 603 q 310 167 249 256 q 501 79 371 79 m 392 999 l 585 1136 q 621 1158 603 1147 q 651 1168 639 1168 q 702 1141 685 1168 q 719 1071 719 1114 q 717 1040 719 1063 l 425 938 l 392 999 z "},"Ợ":{"ha":976,"x_min":54,"x_max":1067,"o":"m 54 0 m 1067 921 q 879 701 1067 818 q 922 467 922 600 q 871 213 922 324 q 719 40 819 103 q 475 -22 618 -22 q 163 96 271 -22 q 54 435 54 214 q 108 685 54 575 q 265 859 163 796 q 508 922 368 922 q 717 877 628 922 q 857 746 806 832 q 951 881 951 817 q 946 904 951 894 q 929 924 940 914 l 929 944 l 1021 1006 q 1053 974 1040 990 q 1067 921 1067 957 m 501 79 q 674 163 621 79 q 726 435 726 246 q 699 663 726 579 q 619 781 672 746 q 485 817 567 817 q 355 788 406 817 q 276 681 304 758 q 249 461 249 603 q 310 167 249 256 q 501 79 371 79 m 482 -269 q 413 -241 440 -269 q 386 -167 386 -212 q 417 -90 386 -122 q 492 -57 447 -57 q 562 -84 535 -57 q 589 -157 589 -111 q 560 -237 589 -204 q 482 -269 531 -269 z "},"Ờ":{"ha":976,"x_min":54,"x_max":1067,"o":"m 54 0 m 1067 921 q 879 701 1067 818 q 922 467 922 600 q 871 213 922 324 q 719 40 819 103 q 475 -22 618 -22 q 163 96 271 -22 q 54 435 54 214 q 108 685 54 575 q 265 859 163 796 q 508 922 368 922 q 717 877 628 922 q 857 746 806 832 q 951 881 951 817 q 946 904 951 894 q 929 924 940 914 l 929 944 l 1021 1006 q 1053 974 1040 990 q 1067 921 1067 957 m 501 79 q 674 163 621 79 q 726 435 726 246 q 699 663 726 579 q 619 781 672 746 q 485 817 567 817 q 355 788 406 817 q 276 681 304 758 q 249 461 249 603 q 310 167 249 256 q 501 79 371 79 m 267 1040 q 264 1074 264 1063 q 282 1142 264 1115 q 332 1168 300 1168 q 363 1158 344 1168 q 399 1136 381 1147 l 592 999 l 558 938 l 267 1040 z "},"Ở":{"ha":976,"x_min":54,"x_max":1067,"o":"m 54 0 m 1067 921 q 879 701 1067 818 q 922 467 922 600 q 871 213 922 324 q 719 40 819 103 q 475 -22 618 -22 q 163 96 271 -22 q 54 435 54 214 q 108 685 54 575 q 265 859 163 796 q 508 922 368 922 q 717 877 628 922 q 857 746 806 832 q 951 881 951 817 q 946 904 951 894 q 929 924 940 914 l 929 944 l 1021 1006 q 1053 974 1040 990 q 1067 921 1067 957 m 501 79 q 674 163 621 79 q 726 435 726 246 q 699 663 726 579 q 619 781 672 746 q 485 817 567 817 q 355 788 406 817 q 276 681 304 758 q 249 461 249 603 q 310 167 249 256 q 501 79 371 79 m 444 935 q 432 968 432 956 q 444 993 432 982 q 486 1019 457 1004 q 526 1064 526 1039 q 513 1086 526 1079 q 468 1093 499 1093 q 389 1082 431 1093 q 367 1133 367 1110 q 389 1167 367 1156 q 467 1179 411 1179 q 600 1152 553 1179 q 647 1074 647 1125 q 575 985 647 1015 q 537 965 546 974 q 531 942 528 957 l 444 935 z "},"Ỡ":{"ha":976,"x_min":54,"x_max":1067,"o":"m 54 0 m 1067 921 q 879 701 1067 818 q 922 467 922 600 q 871 213 922 324 q 719 40 819 103 q 475 -22 618 -22 q 163 96 271 -22 q 54 435 54 214 q 108 685 54 575 q 265 859 163 796 q 508 922 368 922 q 717 877 628 922 q 857 746 806 832 q 951 881 951 817 q 946 904 951 894 q 929 924 940 914 l 929 944 l 1021 1006 q 1053 974 1040 990 q 1067 921 1067 957 m 501 79 q 674 163 621 79 q 726 435 726 246 q 699 663 726 579 q 619 781 672 746 q 485 817 567 817 q 355 788 406 817 q 276 681 304 758 q 249 461 249 603 q 310 167 249 256 q 501 79 371 79 m 592 971 q 506 989 560 971 l 376 1031 l 274 978 l 228 1024 l 278 1096 q 327 1141 301 1129 q 385 1153 353 1153 q 471 1138 425 1153 l 599 1094 l 703 1147 l 749 1101 l 699 1031 q 649 983 675 996 q 592 971 624 971 z "},"Ő":{"ha":976,"x_min":54,"x_max":922,"o":"m 253 985 l 381 1136 q 414 1169 399 1158 q 447 1179 429 1179 q 492 1154 472 1179 q 521 1085 513 1129 l 299 935 l 253 985 m 514 985 l 642 1136 q 675 1169 660 1158 q 708 1179 690 1179 q 753 1154 733 1179 q 782 1085 774 1129 l 560 935 l 514 985 m 475 -22 q 163 96 271 -22 q 54 435 54 214 q 108 685 54 575 q 265 859 163 796 q 508 922 368 922 q 814 803 706 922 q 922 467 922 685 q 871 213 922 324 q 719 40 819 103 q 475 -22 618 -22 m 501 79 q 674 163 621 79 q 726 435 726 246 q 699 663 726 579 q 619 781 672 746 q 485 817 567 817 q 355 788 406 817 q 276 681 304 758 q 249 461 249 603 q 310 167 249 256 q 501 79 371 79 z "},"Ȏ":{"ha":976,"x_min":54,"x_max":922,"o":"m 54 0 m 475 -22 q 163 96 271 -22 q 54 435 54 214 q 108 685 54 575 q 265 859 163 796 q 508 922 368 922 q 814 803 706 922 q 922 467 922 685 q 871 213 922 324 q 719 40 819 103 q 475 -22 618 -22 m 501 79 q 674 163 621 79 q 726 435 726 246 q 699 663 726 579 q 619 781 672 746 q 485 817 567 817 q 355 788 406 817 q 276 681 304 758 q 249 461 249 603 q 310 167 249 256 q 501 79 371 79 m 625 965 q 608 992 625 969 q 557 1035 590 1015 q 476 1054 524 1054 q 386 1035 424 1054 q 329 995 349 1017 q 310 969 310 974 l 254 1003 q 280 1052 254 1010 q 355 1131 306 1094 q 478 1167 404 1167 q 621 1134 567 1167 q 699 1065 675 1101 q 722 1019 722 1028 l 625 965 z "},"Ō":{"ha":982,"x_min":56,"x_max":925,"o":"m 250 1004 l 267 1107 l 740 1107 l 724 1004 l 250 1004 m 478 -22 q 165 96 274 -22 q 56 435 56 214 q 110 685 56 575 q 268 859 165 796 q 511 922 371 922 q 817 803 708 922 q 925 467 925 685 q 874 213 925 324 q 722 40 822 103 q 478 -22 621 -22 m 504 79 q 676 163 624 79 q 729 435 729 246 q 702 663 729 579 q 622 781 675 746 q 488 817 569 817 q 358 788 408 817 q 279 681 307 758 q 251 461 251 603 q 313 167 251 256 q 504 79 374 79 z "},"Ǫ":{"ha":976,"x_min":54,"x_max":922,"o":"m 922 467 q 862 194 922 311 q 686 22 801 78 q 658 1 686 24 q 606 -53 629 -22 q 583 -114 583 -83 q 636 -165 583 -165 q 711 -137 665 -165 l 742 -189 q 721 -210 742 -192 q 667 -244 700 -228 q 596 -260 635 -260 q 503 -233 539 -260 q 468 -157 468 -207 q 549 -18 468 -79 q 475 -22 514 -22 q 163 96 271 -22 q 54 435 54 214 q 108 685 54 575 q 265 859 163 796 q 508 922 368 922 q 814 803 706 922 q 922 467 922 685 m 501 79 q 674 163 621 79 q 726 435 726 246 q 699 663 726 579 q 619 781 672 746 q 485 817 567 817 q 355 788 406 817 q 276 681 304 758 q 249 461 249 603 q 310 167 249 256 q 501 79 371 79 z "},"Ø":{"ha":976,"x_min":54,"x_max":922,"o":"m 242 32 q 102 187 150 85 q 54 435 54 289 q 108 685 54 575 q 265 859 163 796 q 508 922 368 922 q 619 911 564 922 l 660 1000 l 751 958 l 717 878 q 869 722 817 826 q 922 467 922 618 q 871 213 922 324 q 719 40 819 103 q 475 -22 618 -22 q 338 -6 400 -22 l 296 -104 l 201 -62 l 242 32 m 575 804 q 485 817 535 817 q 355 788 406 817 q 276 681 304 758 q 249 461 249 603 q 306 181 249 274 l 575 804 m 383 103 q 501 79 431 79 q 674 163 621 79 q 726 435 726 246 q 658 742 726 654 l 383 103 z "},"Ǿ":{"ha":976,"x_min":54,"x_max":922,"o":"m 54 0 m 242 32 q 102 187 150 85 q 54 435 54 289 q 108 685 54 575 q 265 859 163 796 q 508 922 368 922 q 619 911 564 922 l 660 1000 l 751 958 l 717 878 q 869 722 817 826 q 922 467 922 618 q 871 213 922 324 q 719 40 819 103 q 475 -22 618 -22 q 338 -6 400 -22 l 296 -104 l 201 -62 l 242 32 m 575 804 q 485 817 535 817 q 355 788 406 817 q 276 681 304 758 q 249 461 249 603 q 306 181 249 274 l 575 804 m 383 103 q 501 79 431 79 q 674 163 621 79 q 726 435 726 246 q 658 742 726 654 l 383 103 m 310 999 l 503 1136 q 539 1158 521 1147 q 569 1168 557 1168 q 620 1141 603 1168 q 638 1071 638 1114 q 635 1040 638 1063 l 343 938 l 310 999 z "},"Õ":{"ha":976,"x_min":54,"x_max":922,"o":"m 597 971 q 556 976 578 971 q 511 989 535 981 l 383 1031 l 281 978 l 235 1024 l 283 1096 q 333 1141 307 1129 q 392 1153 358 1153 q 478 1138 431 1153 l 606 1094 l 710 1147 l 756 1101 l 706 1031 q 656 983 682 996 q 597 971 631 971 m 475 -22 q 163 96 271 -22 q 54 435 54 214 q 108 685 54 575 q 265 859 163 796 q 508 922 368 922 q 814 803 706 922 q 922 467 922 685 q 871 213 922 324 q 719 40 819 103 q 475 -22 618 -22 m 501 79 q 674 163 621 79 q 726 435 726 246 q 699 663 726 579 q 619 781 672 746 q 485 817 567 817 q 355 788 406 817 q 276 681 304 758 q 249 461 249 603 q 310 167 249 256 q 501 79 371 79 z "},"Œ":{"ha":1264,"x_min":54,"x_max":1203,"o":"m 486 0 q 54 435 54 0 q 109 679 54 574 q 267 842 164 785 q 511 900 369 900 l 1190 900 l 1190 651 l 1107 651 l 1072 806 l 889 806 l 801 796 l 801 504 l 971 504 l 999 596 l 1067 596 l 1067 314 l 999 314 l 971 410 l 801 410 l 801 101 q 913 96 865 96 l 1086 96 l 1121 257 l 1203 257 l 1203 0 l 486 0 m 506 96 q 632 113 583 96 l 632 786 q 503 801 583 801 q 317 731 385 801 q 249 461 249 660 q 277 245 249 325 q 362 131 306 165 q 506 96 418 96 z "},"P":{"ha":801,"x_min":58,"x_max":783,"o":"m 58 71 l 171 97 l 171 803 l 58 829 l 58 900 l 433 900 q 697 843 610 900 q 783 651 783 786 q 693 438 783 514 q 460 363 603 363 q 407 365 425 363 l 400 426 q 556 481 508 433 q 604 636 604 529 q 560 762 604 719 q 429 804 515 804 q 374 801 400 804 q 340 797 347 799 l 340 99 l 467 72 l 467 0 l 58 0 l 58 71 z "},"Þ":{"ha":797,"x_min":61,"x_max":758,"o":"m 61 72 l 172 96 l 172 804 l 61 828 l 61 900 l 454 900 l 454 828 l 343 804 l 343 710 l 460 710 q 687 656 615 710 q 758 485 758 603 q 667 272 758 340 q 414 203 576 203 l 343 203 l 343 96 l 454 72 l 454 0 l 61 0 l 61 72 m 400 294 q 542 335 499 294 q 586 465 586 376 q 547 577 586 542 q 424 613 507 613 l 343 611 l 343 294 l 400 294 z "},"Q":{"ha":979,"x_min":54,"x_max":978,"o":"m 514 -60 q 397 -17 465 -28 q 142 119 229 1 q 54 438 54 238 q 110 684 54 574 q 269 858 165 794 q 508 922 372 922 q 814 803 706 922 q 922 469 922 683 q 848 180 922 308 q 628 4 774 51 l 832 -111 l 978 -111 l 978 -174 q 949 -189 972 -178 q 894 -211 926 -200 q 831 -222 861 -222 q 710 -186 761 -222 l 514 -60 m 506 81 q 674 165 622 81 q 726 450 726 250 q 666 734 726 650 q 485 818 606 818 q 355 788 406 818 q 276 681 304 758 q 249 461 249 603 q 313 171 249 261 q 506 81 376 81 z "},"R":{"ha":863,"x_min":58,"x_max":863,"o":"m 58 71 l 171 97 l 171 803 l 58 829 l 58 900 l 451 900 q 690 844 608 900 q 771 657 771 789 q 582 401 771 474 l 764 96 l 863 71 l 863 0 l 678 0 q 629 10 649 0 q 597 44 610 21 l 421 371 l 340 371 l 340 97 l 453 71 l 453 0 l 58 0 l 58 71 m 399 467 q 540 514 489 467 q 590 649 590 561 q 550 769 590 735 q 426 804 510 804 q 340 797 375 804 l 340 467 l 399 467 z "},"Ŕ":{"ha":871,"x_min":58,"x_max":857,"o":"m 279 999 l 472 1136 q 508 1158 490 1147 q 539 1168 526 1168 q 590 1141 572 1168 q 607 1071 607 1114 q 604 1040 607 1063 l 313 938 l 279 999 m 58 71 l 171 97 l 171 803 l 58 829 l 58 900 l 451 900 q 690 844 608 900 q 771 657 771 789 q 582 400 771 474 l 757 96 l 857 71 l 857 0 l 679 0 q 632 10 650 0 q 600 44 614 19 l 422 371 l 340 371 l 340 97 l 453 71 l 453 0 l 58 0 l 58 71 m 399 467 q 540 514 489 467 q 592 649 592 561 q 551 769 592 733 q 429 804 511 804 q 340 797 375 804 l 340 467 l 399 467 z "},"Ř":{"ha":871,"x_min":58,"x_max":857,"o":"m 429 936 q 401 946 417 936 q 369 969 386 956 q 344 989 353 983 l 199 1100 l 246 1167 l 438 1079 l 624 1167 l 661 1111 l 515 990 q 460 947 476 958 q 429 936 444 936 m 58 71 l 171 97 l 171 803 l 58 829 l 58 900 l 451 900 q 690 844 608 900 q 771 657 771 789 q 582 400 771 474 l 757 96 l 857 71 l 857 0 l 679 0 q 632 10 650 0 q 600 44 614 19 l 422 371 l 340 371 l 340 97 l 453 71 l 453 0 l 58 0 l 58 71 m 399 467 q 540 514 489 467 q 592 649 592 561 q 551 769 592 733 q 429 804 511 804 q 340 797 375 804 l 340 467 l 399 467 z "},"Ŗ":{"ha":871,"x_min":58,"x_max":857,"o":"m 58 71 l 171 97 l 171 803 l 58 829 l 58 900 l 451 900 q 690 844 608 900 q 771 657 771 789 q 582 400 771 474 l 757 96 l 857 71 l 857 0 l 679 0 q 632 10 650 0 q 600 44 614 19 l 422 371 l 340 371 l 340 97 l 453 71 l 453 0 l 58 0 l 58 71 m 399 467 q 540 514 489 467 q 592 649 592 561 q 551 769 592 733 q 429 804 511 804 q 340 797 375 804 l 340 467 l 399 467 m 388 -282 q 408 -158 408 -212 q 378 -74 408 -104 q 450 -36 411 -36 q 510 -59 490 -36 q 529 -114 529 -82 q 510 -193 529 -156 q 466 -258 490 -231 q 442 -282 442 -285 l 388 -282 z "},"Ȑ":{"ha":863,"x_min":58,"x_max":863,"o":"m 58 0 m 58 71 l 171 97 l 171 803 l 58 829 l 58 900 l 451 900 q 690 844 608 900 q 771 657 771 789 q 582 401 771 474 l 764 96 l 863 71 l 863 0 l 678 0 q 629 10 649 0 q 597 44 610 21 l 421 371 l 340 371 l 340 97 l 453 71 l 453 0 l 58 0 l 58 71 m 399 467 q 540 514 489 467 q 590 649 590 561 q 550 769 590 735 q 426 804 510 804 q 340 797 375 804 l 340 467 l 399 467 m 75 1085 q 103 1154 82 1129 q 147 1179 124 1179 q 181 1169 165 1179 q 214 1136 196 1158 l 342 985 l 297 935 l 75 1085 m 336 1085 q 363 1154 343 1129 q 408 1179 383 1179 q 442 1169 426 1179 q 475 1136 457 1158 l 603 985 l 558 935 l 336 1085 z "},"Ṛ":{"ha":863,"x_min":58,"x_max":863,"o":"m 58 0 m 58 71 l 171 97 l 171 803 l 58 829 l 58 900 l 451 900 q 690 844 608 900 q 771 657 771 789 q 582 401 771 474 l 764 96 l 863 71 l 863 0 l 678 0 q 629 10 649 0 q 597 44 610 21 l 421 371 l 340 371 l 340 97 l 453 71 l 453 0 l 58 0 l 58 71 m 399 467 q 540 514 489 467 q 590 649 590 561 q 550 769 590 735 q 426 804 510 804 q 340 797 375 804 l 340 467 l 399 467 m 454 -269 q 385 -241 413 -269 q 358 -167 358 -212 q 389 -90 358 -122 q 464 -57 419 -57 q 534 -84 507 -57 q 561 -157 561 -111 q 532 -237 561 -204 q 454 -269 503 -269 z "},"Ȓ":{"ha":863,"x_min":58,"x_max":863,"o":"m 58 0 m 58 71 l 171 97 l 171 803 l 58 829 l 58 900 l 451 900 q 690 844 608 900 q 771 657 771 789 q 582 401 771 474 l 764 96 l 863 71 l 863 0 l 678 0 q 629 10 649 0 q 597 44 610 21 l 421 371 l 340 371 l 340 97 l 453 71 l 453 0 l 58 0 l 58 71 m 399 467 q 540 514 489 467 q 590 649 590 561 q 550 769 590 735 q 426 804 510 804 q 340 797 375 804 l 340 467 l 399 467 m 568 965 q 551 992 568 969 q 500 1035 533 1015 q 419 1054 467 1054 q 329 1035 367 1054 q 272 995 292 1017 q 253 969 253 974 l 197 1003 q 223 1052 197 1010 q 298 1131 249 1094 q 421 1167 347 1167 q 564 1134 510 1167 q 642 1065 618 1101 q 665 1019 665 1028 l 568 965 z "},"S":{"ha":733,"x_min":64,"x_max":675,"o":"m 349 -19 q 177 3 256 -19 q 64 51 99 26 l 64 281 l 153 281 l 179 139 q 253 99 207 115 q 343 82 300 82 q 478 116 438 82 q 519 217 519 150 q 503 281 519 256 q 451 326 488 306 q 340 378 415 346 l 308 390 q 179 451 228 424 q 97 530 131 479 q 64 661 64 581 q 102 798 64 739 q 213 890 140 857 q 381 922 285 922 q 524 911 449 922 q 635 888 599 900 l 635 650 l 550 650 l 521 789 q 382 818 453 818 q 259 788 294 818 q 224 697 224 757 q 244 634 224 660 q 295 592 264 608 q 383 554 326 576 q 410 544 404 547 q 551 478 496 511 q 640 394 606 446 q 675 265 675 342 q 579 49 675 117 q 349 -19 483 -19 z "},"Ś":{"ha":733,"x_min":64,"x_max":675,"o":"m 229 999 l 422 1136 q 458 1158 440 1147 q 489 1168 476 1168 q 540 1141 522 1168 q 557 1071 557 1114 q 554 1040 557 1063 l 263 938 l 229 999 m 349 -19 q 177 3 256 -19 q 64 51 99 26 l 64 281 l 153 281 l 179 139 q 253 99 207 115 q 343 82 300 82 q 478 116 438 82 q 519 217 519 150 q 503 281 519 256 q 451 326 488 306 q 340 378 415 346 l 308 390 q 179 451 228 424 q 97 530 131 479 q 64 661 64 581 q 102 798 64 739 q 213 890 140 857 q 381 922 285 922 q 524 911 449 922 q 635 888 599 900 l 635 650 l 550 650 l 521 789 q 382 818 453 818 q 259 788 294 818 q 224 697 224 757 q 244 634 224 660 q 295 592 264 608 q 383 554 326 576 q 410 544 404 547 q 551 478 496 511 q 640 394 606 446 q 675 265 675 342 q 579 49 675 117 q 349 -19 483 -19 z "},"Ꞌ":{"ha":192,"x_min":24,"x_max":168,"o":"m 24 496 m 24 901 q 101 921 65 921 q 168 867 168 921 q 162 802 168 838 q 143 707 156 767 l 93 496 l 24 496 l 24 901 z "},"Š":{"ha":733,"x_min":64,"x_max":675,"o":"m 374 936 q 348 947 364 936 q 314 971 332 957 l 290 989 l 144 1100 l 190 1167 l 382 1079 l 568 1167 l 607 1111 l 461 990 q 406 948 424 960 q 374 936 389 936 m 349 -19 q 177 3 256 -19 q 64 51 99 26 l 64 281 l 153 281 l 179 139 q 253 99 207 115 q 343 82 300 82 q 478 116 438 82 q 519 217 519 150 q 503 281 519 256 q 451 326 488 306 q 340 378 415 346 l 308 390 q 179 451 228 424 q 97 530 131 479 q 64 661 64 581 q 102 798 64 739 q 213 890 140 857 q 381 922 285 922 q 524 911 449 922 q 635 888 599 900 l 635 650 l 550 650 l 521 789 q 382 818 453 818 q 259 788 294 818 q 224 697 224 757 q 244 634 224 660 q 295 592 264 608 q 383 554 326 576 q 410 544 404 547 q 551 478 496 511 q 640 394 606 446 q 675 265 675 342 q 579 49 675 117 q 349 -19 483 -19 z "},"Ş":{"ha":733,"x_min":67,"x_max":678,"o":"m 344 -265 q 285 -260 310 -265 q 233 -242 260 -254 l 258 -181 q 340 -197 296 -197 q 385 -189 369 -197 q 400 -161 400 -181 q 392 -137 400 -144 q 364 -125 383 -129 l 321 -117 l 290 -86 l 319 -18 q 166 8 235 -14 q 67 51 97 29 l 67 281 l 156 281 l 182 139 q 256 99 210 115 q 346 82 303 82 q 482 113 442 82 q 522 217 522 143 q 506 281 522 256 q 454 328 490 307 q 346 376 418 349 q 198 441 250 414 q 106 522 146 468 q 67 661 67 575 q 105 798 67 739 q 215 890 143 857 q 383 922 288 922 q 526 911 451 922 q 638 888 601 900 l 638 650 l 551 650 l 524 789 q 457 810 494 803 q 385 818 419 818 q 260 788 293 818 q 226 697 226 758 q 249 633 226 658 q 306 591 272 607 q 407 547 339 575 q 551 480 496 513 q 642 395 607 447 q 678 265 678 343 q 596 60 678 128 q 393 -18 514 -8 l 393 -42 l 419 -47 q 492 -78 468 -60 q 517 -140 517 -97 q 471 -235 517 -204 q 344 -265 425 -265 z "},"Ŝ":{"ha":733,"x_min":64,"x_max":675,"o":"m 64 0 m 349 -19 q 177 3 256 -19 q 64 51 99 26 l 64 281 l 153 281 l 179 139 q 253 99 207 115 q 343 82 300 82 q 478 116 438 82 q 519 217 519 150 q 503 281 519 256 q 451 326 488 306 q 340 378 415 346 l 308 390 q 179 451 228 424 q 97 530 131 479 q 64 661 64 581 q 102 798 64 739 q 213 890 140 857 q 381 922 285 922 q 524 911 449 922 q 635 888 599 900 l 635 650 l 550 650 l 521 789 q 382 818 453 818 q 259 788 294 818 q 224 697 224 757 q 244 634 224 660 q 295 592 264 608 q 383 554 326 576 q 410 544 404 547 q 551 478 496 511 q 640 394 606 446 q 675 265 675 342 q 579 49 675 117 q 349 -19 483 -19 m 285 1113 q 342 1156 325 1146 q 369 1167 358 1167 q 397 1157 382 1167 q 428 1134 411 1147 q 453 1114 444 1121 l 597 1000 l 554 936 l 361 1024 l 172 936 l 136 990 l 285 1113 z "},"Ș":{"ha":733,"x_min":67,"x_max":678,"o":"m 351 -19 q 179 3 257 -19 q 67 51 101 26 l 67 281 l 156 281 l 182 139 q 256 99 210 115 q 346 82 303 82 q 483 113 443 82 q 522 217 522 144 q 506 282 522 257 q 453 328 490 307 q 343 378 417 349 q 199 441 251 413 q 106 523 146 469 q 67 661 67 576 q 105 798 67 739 q 215 890 143 857 q 383 922 288 922 q 526 911 451 922 q 638 888 601 900 l 638 650 l 551 650 l 524 789 q 457 810 494 803 q 385 818 419 818 q 260 788 293 818 q 226 697 226 758 q 250 632 226 658 q 308 589 274 606 q 408 546 342 572 q 551 480 494 513 q 642 395 607 447 q 678 265 678 343 q 582 49 678 117 q 351 -19 486 -19 m 296 -282 q 317 -158 317 -212 q 286 -74 317 -104 q 358 -36 319 -36 q 418 -59 399 -36 q 438 -114 438 -82 q 418 -193 438 -156 q 374 -258 399 -231 q 350 -282 350 -285 l 296 -282 z "},"Ṣ":{"ha":733,"x_min":64,"x_max":675,"o":"m 64 0 m 349 -19 q 177 3 256 -19 q 64 51 99 26 l 64 281 l 153 281 l 179 139 q 253 99 207 115 q 343 82 300 82 q 478 116 438 82 q 519 217 519 150 q 503 281 519 256 q 451 326 488 306 q 340 378 415 346 l 308 390 q 179 451 228 424 q 97 530 131 479 q 64 661 64 581 q 102 798 64 739 q 213 890 140 857 q 381 922 285 922 q 524 911 449 922 q 635 888 599 900 l 635 650 l 550 650 l 521 789 q 382 818 453 818 q 259 788 294 818 q 224 697 224 757 q 244 634 224 660 q 295 592 264 608 q 383 554 326 576 q 410 544 404 547 q 551 478 496 511 q 640 394 606 446 q 675 265 675 342 q 579 49 675 117 q 349 -19 483 -19 m 360 -269 q 291 -241 318 -269 q 264 -167 264 -212 q 294 -90 264 -122 q 369 -57 325 -57 q 440 -84 413 -57 q 467 -157 467 -111 q 438 -237 467 -204 q 360 -269 408 -269 z "},"ẞ":{"ha":1017,"x_min":25,"x_max":958,"o":"m 671 -19 q 544 -1 608 -19 q 454 38 479 18 l 454 267 l 544 267 l 569 125 q 616 95 586 108 q 683 82 646 82 q 775 122 746 82 q 804 225 804 161 q 747 360 804 310 q 561 411 689 411 l 519 411 l 519 508 l 711 785 l 711 801 q 558 818 632 818 q 363 743 418 818 q 307 513 307 668 l 307 96 l 404 72 l 404 0 l 25 0 l 25 72 l 138 96 l 138 476 q 251 801 138 681 q 581 922 365 922 q 747 910 650 922 q 896 885 844 899 l 896 793 l 700 517 l 700 504 q 890 426 822 490 q 958 251 958 361 q 918 102 958 164 q 812 10 878 40 q 671 -19 746 -19 z "},"Ə":{"ha":935,"x_min":54,"x_max":879,"o":"m 451 -22 q 158 96 261 -22 q 54 433 54 214 q 58 511 54 476 l 683 511 q 613 749 675 676 q 431 821 550 821 q 339 810 376 821 q 283 792 301 800 q 260 782 264 783 l 231 625 l 140 625 l 140 861 q 275 905 201 888 q 460 922 349 922 q 772 806 667 922 q 879 461 878 689 q 828 208 878 317 q 683 38 779 99 q 451 -22 588 -22 m 476 79 q 633 157 585 79 q 685 415 682 235 l 250 415 q 311 158 256 238 q 476 79 367 79 z "},"T":{"ha":771,"x_min":15,"x_max":761,"o":"m 193 72 l 304 96 l 304 803 l 132 803 l 97 651 l 15 651 l 15 900 l 761 900 l 761 651 l 679 651 l 644 803 l 475 803 l 475 96 l 586 72 l 586 0 l 193 0 l 193 72 z "},"Ŧ":{"ha":771,"x_min":15,"x_max":761,"o":"m 644 803 l 475 803 l 475 513 l 718 513 l 718 415 l 475 415 l 475 96 l 586 72 l 586 0 l 193 0 l 193 72 l 304 96 l 304 415 l 53 415 l 53 513 l 304 513 l 304 803 l 132 803 l 97 651 l 15 651 l 15 900 l 761 900 l 761 651 l 679 651 l 644 803 z "},"Ť":{"ha":779,"x_min":17,"x_max":764,"o":"m 401 1079 l 588 1167 l 625 1111 l 479 990 q 453 968 472 985 q 419 944 433 951 q 393 936 406 936 q 365 946 381 936 q 333 969 350 956 q 308 989 317 983 l 163 1100 l 210 1167 l 401 1079 m 194 72 l 307 96 l 307 803 l 135 803 l 100 651 l 17 651 l 17 900 l 764 900 l 764 651 l 681 651 l 646 803 l 476 803 l 476 96 l 589 72 l 589 0 l 194 0 l 194 72 z "},"Ţ":{"ha":779,"x_min":17,"x_max":764,"o":"m 375 -265 q 315 -260 340 -265 q 263 -242 290 -254 l 289 -181 q 371 -197 326 -197 q 415 -189 400 -197 q 431 -161 431 -181 q 422 -137 431 -144 q 394 -125 414 -129 l 350 -117 l 321 -86 l 358 0 l 194 0 l 194 72 l 307 96 l 307 803 l 135 803 l 100 651 l 17 651 l 17 900 l 764 900 l 764 651 l 681 651 l 646 803 l 476 803 l 476 96 l 589 72 l 589 0 l 424 0 l 424 -42 l 450 -47 q 523 -78 499 -60 q 547 -140 547 -97 q 501 -235 547 -204 q 375 -265 456 -265 z "},"Ț":{"ha":779,"x_min":17,"x_max":764,"o":"m 194 0 l 194 72 l 307 96 l 307 803 l 135 803 l 100 651 l 17 651 l 17 900 l 764 900 l 764 651 l 681 651 l 646 803 l 476 803 l 476 96 l 589 72 l 589 0 l 194 0 m 326 -282 q 347 -158 347 -212 q 317 -74 347 -104 q 389 -36 350 -36 q 449 -59 429 -36 q 468 -114 468 -82 q 449 -193 468 -156 q 405 -258 429 -231 q 381 -282 381 -285 l 326 -282 z "},"Ṭ":{"ha":771,"x_min":15,"x_max":761,"o":"m 15 0 m 193 72 l 304 96 l 304 803 l 132 803 l 97 651 l 15 651 l 15 900 l 761 900 l 761 651 l 679 651 l 644 803 l 475 803 l 475 96 l 586 72 l 586 0 l 193 0 l 193 72 m 379 -269 q 310 -241 338 -269 q 283 -167 283 -212 q 314 -90 283 -122 q 389 -57 344 -57 q 459 -84 432 -57 q 486 -157 486 -111 q 457 -237 486 -204 q 379 -269 428 -269 z "},"U":{"ha":974,"x_min":25,"x_max":954,"o":"m 25 828 l 25 900 l 414 900 l 414 828 l 307 804 l 307 386 q 326 199 307 263 q 392 112 346 136 q 525 88 438 88 q 642 116 600 88 q 703 208 685 144 q 721 386 721 272 l 721 803 l 610 826 l 610 900 l 954 900 l 954 826 l 842 803 l 842 386 q 810 152 842 240 q 703 21 779 64 q 493 -22 626 -22 q 278 19 354 -22 q 169 148 201 60 q 138 386 138 236 l 138 804 l 25 828 z "},"Ú":{"ha":974,"x_min":25,"x_max":954,"o":"m 364 999 l 557 1136 q 578 1149 563 1139 q 605 1163 593 1158 q 625 1168 617 1168 q 675 1140 657 1168 q 693 1071 693 1113 q 690 1040 693 1060 l 397 938 l 364 999 m 493 -22 q 278 19 354 -22 q 169 148 201 60 q 138 386 138 236 l 138 804 l 25 828 l 25 900 l 414 900 l 414 828 l 307 804 l 307 386 q 326 199 307 263 q 392 112 346 136 q 525 88 438 88 q 643 115 601 88 q 702 207 685 143 q 719 386 719 271 l 719 803 l 610 826 l 610 900 l 954 900 l 954 826 l 842 803 l 842 386 q 808 154 842 243 q 697 22 774 65 q 493 -22 621 -22 z "},"Ŭ":{"ha":974,"x_min":25,"x_max":954,"o":"m 25 0 m 25 828 l 25 900 l 414 900 l 414 828 l 307 804 l 307 386 q 326 199 307 263 q 392 112 346 136 q 525 88 438 88 q 642 116 600 88 q 703 208 685 144 q 721 386 721 272 l 721 803 l 610 826 l 610 900 l 954 900 l 954 826 l 842 803 l 842 386 q 810 152 842 240 q 703 21 779 64 q 493 -22 626 -22 q 278 19 354 -22 q 169 148 201 60 q 138 386 138 236 l 138 804 l 25 828 m 350 1167 q 367 1140 350 1163 q 417 1097 385 1117 q 499 1078 450 1078 q 588 1097 551 1078 q 645 1136 625 1115 q 665 1161 665 1157 l 721 1129 q 695 1080 721 1122 q 619 1001 669 1038 q 497 965 569 965 q 354 998 408 965 q 276 1067 300 1031 q 253 1111 253 1103 l 350 1167 z "},"Ǔ":{"ha":974,"x_min":25,"x_max":954,"o":"m 25 0 m 25 828 l 25 900 l 414 900 l 414 828 l 307 804 l 307 386 q 326 199 307 263 q 392 112 346 136 q 525 88 438 88 q 642 116 600 88 q 703 208 685 144 q 721 386 721 272 l 721 803 l 610 826 l 610 900 l 954 900 l 954 826 l 842 803 l 842 386 q 810 152 842 240 q 703 21 779 64 q 493 -22 626 -22 q 278 19 354 -22 q 169 148 201 60 q 138 386 138 236 l 138 804 l 25 828 m 494 1079 l 681 1167 l 719 1111 l 572 990 q 546 968 565 985 q 513 944 526 951 q 486 936 499 936 q 458 946 474 936 q 426 969 443 956 q 401 989 410 983 l 256 1100 l 303 1167 l 494 1079 z "},"Û":{"ha":974,"x_min":25,"x_max":954,"o":"m 428 1113 q 485 1156 468 1146 q 513 1167 501 1167 q 540 1157 525 1167 q 571 1134 554 1147 q 596 1114 588 1121 l 740 1000 l 697 936 l 504 1024 l 315 936 l 279 990 l 428 1113 m 25 828 l 25 900 l 414 900 l 414 828 l 307 804 l 307 386 q 326 199 307 263 q 392 112 346 136 q 525 88 438 88 q 643 115 601 88 q 702 207 685 143 q 719 386 719 271 l 719 803 l 610 826 l 610 900 l 954 900 l 954 826 l 842 803 l 842 386 q 808 154 842 243 q 697 22 774 65 q 493 -22 621 -22 q 278 19 354 -22 q 169 148 201 60 q 138 386 138 236 l 138 804 l 25 828 z "},"Ȕ":{"ha":974,"x_min":25,"x_max":954,"o":"m 25 0 m 25 828 l 25 900 l 414 900 l 414 828 l 307 804 l 307 386 q 326 199 307 263 q 392 112 346 136 q 525 88 438 88 q 642 116 600 88 q 703 208 685 144 q 721 386 721 272 l 721 803 l 610 826 l 610 900 l 954 900 l 954 826 l 842 803 l 842 386 q 810 152 842 240 q 703 21 779 64 q 493 -22 626 -22 q 278 19 354 -22 q 169 148 201 60 q 138 386 138 236 l 138 804 l 25 828 m 131 1085 q 158 1154 138 1129 q 203 1179 179 1179 q 236 1169 221 1179 q 269 1136 251 1158 l 397 985 l 353 935 l 131 1085 m 392 1085 q 419 1154 399 1129 q 464 1179 439 1179 q 497 1169 482 1179 q 531 1136 513 1158 l 658 985 l 614 935 l 392 1085 z "},"Ü":{"ha":974,"x_min":25,"x_max":954,"o":"m 332 969 q 269 995 293 969 q 244 1063 244 1021 q 272 1133 244 1103 q 340 1163 300 1163 q 404 1138 379 1163 q 429 1071 429 1113 q 402 999 429 1029 q 332 969 375 969 m 656 969 q 592 995 617 969 q 567 1063 567 1021 q 595 1133 567 1103 q 664 1163 624 1163 q 728 1138 703 1163 q 753 1071 753 1113 q 726 999 753 1029 q 656 969 699 969 m 493 -22 q 278 19 354 -22 q 169 148 201 60 q 138 386 138 236 l 138 804 l 25 828 l 25 900 l 414 900 l 414 828 l 307 804 l 307 386 q 326 199 307 263 q 392 112 346 136 q 525 88 438 88 q 643 115 601 88 q 702 207 685 143 q 719 386 719 271 l 719 803 l 610 826 l 610 900 l 954 900 l 954 826 l 842 803 l 842 386 q 808 154 842 243 q 697 22 774 65 q 493 -22 621 -22 z "},"Ǘ":{"ha":974,"x_min":25,"x_max":954,"o":"m 25 0 m 25 828 l 25 900 l 414 900 l 414 828 l 307 804 l 307 386 q 326 199 307 263 q 392 112 346 136 q 525 88 438 88 q 642 116 600 88 q 703 208 685 144 q 721 386 721 272 l 721 803 l 610 826 l 610 900 l 954 900 l 954 826 l 842 803 l 842 386 q 810 152 842 240 q 703 21 779 64 q 493 -22 626 -22 q 278 19 354 -22 q 169 148 201 60 q 138 386 138 236 l 138 804 l 25 828 m 321 961 q 258 987 282 961 q 233 1054 233 1013 q 262 1124 233 1094 q 331 1154 290 1154 q 394 1129 369 1154 q 419 1063 419 1104 q 392 991 419 1021 q 321 961 364 961 m 644 961 q 581 987 606 961 q 557 1054 557 1013 q 585 1124 557 1094 q 653 1154 613 1154 q 717 1129 692 1154 q 742 1063 742 1104 q 715 991 742 1021 q 644 961 688 961 m 393 1253 l 586 1390 q 622 1412 604 1401 q 653 1422 640 1422 q 703 1395 686 1422 q 721 1325 721 1368 q 718 1294 721 1317 l 426 1192 l 393 1253 z "},"Ǚ":{"ha":974,"x_min":25,"x_max":954,"o":"m 25 0 m 25 828 l 25 900 l 414 900 l 414 828 l 307 804 l 307 386 q 326 199 307 263 q 392 112 346 136 q 525 88 438 88 q 642 116 600 88 q 703 208 685 144 q 721 386 721 272 l 721 803 l 610 826 l 610 900 l 954 900 l 954 826 l 842 803 l 842 386 q 810 152 842 240 q 703 21 779 64 q 493 -22 626 -22 q 278 19 354 -22 q 169 148 201 60 q 138 386 138 236 l 138 804 l 25 828 m 321 961 q 258 987 282 961 q 233 1054 233 1013 q 262 1124 233 1094 q 331 1154 290 1154 q 394 1129 369 1154 q 419 1063 419 1104 q 392 991 419 1021 q 321 961 364 961 m 644 961 q 581 987 606 961 q 557 1054 557 1013 q 585 1124 557 1094 q 653 1154 613 1154 q 717 1129 692 1154 q 742 1063 742 1104 q 715 991 742 1021 q 644 961 688 961 m 497 1333 l 683 1421 l 722 1365 l 575 1244 q 549 1222 568 1239 q 515 1198 529 1206 q 489 1190 501 1190 q 461 1200 476 1190 q 429 1224 446 1210 q 404 1243 413 1238 l 258 1354 l 306 1421 l 497 1333 z "},"Ǜ":{"ha":974,"x_min":25,"x_max":954,"o":"m 25 0 m 25 828 l 25 900 l 414 900 l 414 828 l 307 804 l 307 386 q 326 199 307 263 q 392 112 346 136 q 525 88 438 88 q 642 116 600 88 q 703 208 685 144 q 721 386 721 272 l 721 803 l 610 826 l 610 900 l 954 900 l 954 826 l 842 803 l 842 386 q 810 152 842 240 q 703 21 779 64 q 493 -22 626 -22 q 278 19 354 -22 q 169 148 201 60 q 138 386 138 236 l 138 804 l 25 828 m 321 961 q 258 987 282 961 q 233 1054 233 1013 q 262 1124 233 1094 q 331 1154 290 1154 q 394 1129 369 1154 q 419 1063 419 1104 q 392 991 419 1021 q 321 961 364 961 m 644 961 q 581 987 606 961 q 557 1054 557 1013 q 585 1124 557 1094 q 653 1154 613 1154 q 717 1129 692 1154 q 742 1063 742 1104 q 715 991 742 1021 q 644 961 688 961 m 268 1294 q 265 1328 265 1317 q 283 1396 265 1369 q 333 1422 301 1422 q 364 1412 346 1422 q 400 1390 382 1401 l 593 1253 l 560 1192 l 268 1294 z "},"Ǖ":{"ha":974,"x_min":25,"x_max":954,"o":"m 25 0 m 25 828 l 25 900 l 414 900 l 414 828 l 307 804 l 307 386 q 326 199 307 263 q 392 112 346 136 q 525 88 438 88 q 642 116 600 88 q 703 208 685 144 q 721 386 721 272 l 721 803 l 610 826 l 610 900 l 954 900 l 954 826 l 842 803 l 842 386 q 810 152 842 240 q 703 21 779 64 q 493 -22 626 -22 q 278 19 354 -22 q 169 148 201 60 q 138 386 138 236 l 138 804 l 25 828 m 321 961 q 258 987 282 961 q 233 1054 233 1013 q 262 1124 233 1094 q 331 1154 290 1154 q 394 1129 369 1154 q 419 1063 419 1104 q 392 991 419 1021 q 321 961 364 961 m 644 961 q 581 987 606 961 q 557 1054 557 1013 q 585 1124 557 1094 q 653 1154 613 1154 q 717 1129 692 1154 q 742 1063 742 1104 q 715 991 742 1021 q 644 961 688 961 m 261 1361 l 735 1361 l 718 1258 l 244 1258 l 261 1361 z "},"Ụ":{"ha":974,"x_min":25,"x_max":954,"o":"m 25 0 m 25 828 l 25 900 l 414 900 l 414 828 l 307 804 l 307 386 q 326 199 307 263 q 392 112 346 136 q 525 88 438 88 q 642 116 600 88 q 703 208 685 144 q 721 386 721 272 l 721 803 l 610 826 l 610 900 l 954 900 l 954 826 l 842 803 l 842 386 q 810 152 842 240 q 703 21 779 64 q 493 -22 626 -22 q 278 19 354 -22 q 169 148 201 60 q 138 386 138 236 l 138 804 l 25 828 m 481 -269 q 412 -241 439 -269 q 385 -167 385 -212 q 415 -90 385 -122 q 490 -57 446 -57 q 560 -84 533 -57 q 588 -157 588 -111 q 558 -237 588 -204 q 481 -269 529 -269 z "},"Ù":{"ha":974,"x_min":25,"x_max":954,"o":"m 332 1040 q 329 1074 329 1063 q 347 1142 329 1115 q 397 1168 365 1168 q 422 1160 407 1168 q 448 1146 438 1153 q 464 1136 458 1139 l 657 999 l 624 938 l 332 1040 m 493 -22 q 278 19 354 -22 q 169 148 201 60 q 138 386 138 236 l 138 804 l 25 828 l 25 900 l 414 900 l 414 828 l 307 804 l 307 386 q 326 199 307 263 q 392 112 346 136 q 525 88 438 88 q 643 115 601 88 q 702 207 685 143 q 719 386 719 271 l 719 803 l 610 826 l 610 900 l 954 900 l 954 826 l 842 803 l 842 386 q 808 154 842 243 q 697 22 774 65 q 493 -22 621 -22 z "},"Ủ":{"ha":974,"x_min":25,"x_max":954,"o":"m 25 0 m 25 828 l 25 900 l 414 900 l 414 828 l 307 804 l 307 386 q 326 199 307 263 q 392 112 346 136 q 525 88 438 88 q 642 116 600 88 q 703 208 685 144 q 721 386 721 272 l 721 803 l 610 826 l 610 900 l 954 900 l 954 826 l 842 803 l 842 386 q 810 152 842 240 q 703 21 779 64 q 493 -22 626 -22 q 278 19 354 -22 q 169 148 201 60 q 138 386 138 236 l 138 804 l 25 828 m 443 935 q 431 968 431 956 q 443 993 431 982 q 485 1019 456 1004 q 525 1064 525 1039 q 511 1086 525 1079 q 467 1093 497 1093 q 388 1082 429 1093 q 365 1133 365 1110 q 388 1167 365 1156 q 465 1179 410 1179 q 599 1152 551 1179 q 646 1074 646 1125 q 574 985 646 1015 q 535 965 544 974 q 529 942 526 957 l 443 935 z "},"Ư":{"ha":974,"x_min":25,"x_max":1050,"o":"m 493 -22 q 278 19 354 -22 q 169 148 201 60 q 138 386 138 236 l 138 804 l 25 828 l 25 900 l 414 900 l 414 828 l 307 804 l 307 386 q 326 199 307 263 q 392 112 346 136 q 525 88 438 88 q 642 116 600 88 q 703 208 685 144 q 721 386 721 272 l 721 803 l 610 826 l 610 900 l 843 900 q 917 910 900 900 q 935 954 935 921 q 929 978 935 969 q 913 997 924 988 l 913 1018 l 1004 1081 q 1037 1049 1024 1065 q 1050 996 1050 1032 q 1003 897 1050 950 q 842 804 956 844 l 842 386 q 810 152 842 240 q 703 21 779 64 q 493 -22 626 -22 z "},"Ứ":{"ha":974,"x_min":25,"x_max":1050,"o":"m 25 0 m 493 -22 q 278 19 354 -22 q 169 148 201 60 q 138 386 138 236 l 138 804 l 25 828 l 25 900 l 414 900 l 414 828 l 307 804 l 307 386 q 326 199 307 263 q 392 112 346 136 q 525 88 438 88 q 642 116 600 88 q 703 208 685 144 q 721 386 721 272 l 721 803 l 610 826 l 610 900 l 843 900 q 917 910 900 900 q 935 954 935 921 q 929 978 935 969 q 913 997 924 988 l 913 1018 l 1004 1081 q 1037 1049 1024 1065 q 1050 996 1050 1032 q 1003 897 1050 950 q 842 804 956 844 l 842 386 q 810 152 842 240 q 703 21 779 64 q 493 -22 626 -22 m 390 999 l 583 1136 q 619 1158 601 1147 q 650 1168 638 1168 q 701 1141 683 1168 q 718 1071 718 1114 q 715 1040 718 1063 l 424 938 l 390 999 z "},"Ự":{"ha":974,"x_min":25,"x_max":1050,"o":"m 25 0 m 493 -22 q 278 19 354 -22 q 169 148 201 60 q 138 386 138 236 l 138 804 l 25 828 l 25 900 l 414 900 l 414 828 l 307 804 l 307 386 q 326 199 307 263 q 392 112 346 136 q 525 88 438 88 q 642 116 600 88 q 703 208 685 144 q 721 386 721 272 l 721 803 l 610 826 l 610 900 l 843 900 q 917 910 900 900 q 935 954 935 921 q 929 978 935 969 q 913 997 924 988 l 913 1018 l 1004 1081 q 1037 1049 1024 1065 q 1050 996 1050 1032 q 1003 897 1050 950 q 842 804 956 844 l 842 386 q 810 152 842 240 q 703 21 779 64 q 493 -22 626 -22 m 481 -269 q 412 -241 439 -269 q 385 -167 385 -212 q 415 -90 385 -122 q 490 -57 446 -57 q 560 -84 533 -57 q 588 -157 588 -111 q 558 -237 588 -204 q 481 -269 529 -269 z "},"Ừ":{"ha":974,"x_min":25,"x_max":1050,"o":"m 25 0 m 493 -22 q 278 19 354 -22 q 169 148 201 60 q 138 386 138 236 l 138 804 l 25 828 l 25 900 l 414 900 l 414 828 l 307 804 l 307 386 q 326 199 307 263 q 392 112 346 136 q 525 88 438 88 q 642 116 600 88 q 703 208 685 144 q 721 386 721 272 l 721 803 l 610 826 l 610 900 l 843 900 q 917 910 900 900 q 935 954 935 921 q 929 978 935 969 q 913 997 924 988 l 913 1018 l 1004 1081 q 1037 1049 1024 1065 q 1050 996 1050 1032 q 1003 897 1050 950 q 842 804 956 844 l 842 386 q 810 152 842 240 q 703 21 779 64 q 493 -22 626 -22 m 265 1040 q 263 1074 263 1063 q 281 1142 263 1115 q 331 1168 299 1168 q 361 1158 343 1168 q 397 1136 379 1147 l 590 999 l 557 938 l 265 1040 z "},"Ử":{"ha":974,"x_min":25,"x_max":1050,"o":"m 25 0 m 493 -22 q 278 19 354 -22 q 169 148 201 60 q 138 386 138 236 l 138 804 l 25 828 l 25 900 l 414 900 l 414 828 l 307 804 l 307 386 q 326 199 307 263 q 392 112 346 136 q 525 88 438 88 q 642 116 600 88 q 703 208 685 144 q 721 386 721 272 l 721 803 l 610 826 l 610 900 l 843 900 q 917 910 900 900 q 935 954 935 921 q 929 978 935 969 q 913 997 924 988 l 913 1018 l 1004 1081 q 1037 1049 1024 1065 q 1050 996 1050 1032 q 1003 897 1050 950 q 842 804 956 844 l 842 386 q 810 152 842 240 q 703 21 779 64 q 493 -22 626 -22 m 443 935 q 431 968 431 956 q 443 993 431 982 q 485 1019 456 1004 q 525 1064 525 1039 q 511 1086 525 1079 q 467 1093 497 1093 q 388 1082 429 1093 q 365 1133 365 1110 q 388 1167 365 1156 q 465 1179 410 1179 q 599 1152 551 1179 q 646 1074 646 1125 q 574 985 646 1015 q 535 965 544 974 q 529 942 526 957 l 443 935 z "},"Ữ":{"ha":974,"x_min":25,"x_max":1050,"o":"m 25 0 m 493 -22 q 278 19 354 -22 q 169 148 201 60 q 138 386 138 236 l 138 804 l 25 828 l 25 900 l 414 900 l 414 828 l 307 804 l 307 386 q 326 199 307 263 q 392 112 346 136 q 525 88 438 88 q 642 116 600 88 q 703 208 685 144 q 721 386 721 272 l 721 803 l 610 826 l 610 900 l 843 900 q 917 910 900 900 q 935 954 935 921 q 929 978 935 969 q 913 997 924 988 l 913 1018 l 1004 1081 q 1037 1049 1024 1065 q 1050 996 1050 1032 q 1003 897 1050 950 q 842 804 956 844 l 842 386 q 810 152 842 240 q 703 21 779 64 q 493 -22 626 -22 m 590 971 q 504 989 558 971 l 375 1031 l 272 978 l 226 1024 l 276 1096 q 326 1141 300 1129 q 383 1153 351 1153 q 469 1138 424 1153 l 597 1094 l 701 1147 l 747 1101 l 697 1031 q 648 983 674 996 q 590 971 622 971 z "},"Ű":{"ha":974,"x_min":25,"x_max":954,"o":"m 267 985 l 394 1136 q 428 1169 413 1158 q 461 1179 443 1179 q 506 1154 485 1179 q 533 1085 526 1129 l 311 935 l 267 985 m 528 985 l 656 1136 q 689 1169 674 1158 q 722 1179 704 1179 q 767 1154 746 1179 q 794 1085 788 1129 l 572 935 l 528 985 m 493 -22 q 278 19 354 -22 q 169 148 201 60 q 138 386 138 236 l 138 804 l 25 828 l 25 900 l 414 900 l 414 828 l 307 804 l 307 386 q 326 199 307 263 q 392 112 346 136 q 525 88 438 88 q 643 115 601 88 q 701 207 685 143 q 718 386 718 271 l 721 803 l 610 826 l 610 900 l 954 900 l 954 826 l 842 803 l 842 386 q 808 154 842 243 q 697 22 774 65 q 493 -22 621 -22 z "},"Ȗ":{"ha":974,"x_min":25,"x_max":954,"o":"m 25 0 m 25 828 l 25 900 l 414 900 l 414 828 l 307 804 l 307 386 q 326 199 307 263 q 392 112 346 136 q 525 88 438 88 q 642 116 600 88 q 703 208 685 144 q 721 386 721 272 l 721 803 l 610 826 l 610 900 l 954 900 l 954 826 l 842 803 l 842 386 q 810 152 842 240 q 703 21 779 64 q 493 -22 626 -22 q 278 19 354 -22 q 169 148 201 60 q 138 386 138 236 l 138 804 l 25 828 m 624 965 q 606 992 624 969 q 556 1035 589 1015 q 475 1054 522 1054 q 385 1035 422 1054 q 328 995 347 1017 q 308 969 308 974 l 253 1003 q 278 1052 253 1010 q 353 1131 304 1094 q 476 1167 403 1167 q 619 1134 565 1167 q 697 1065 674 1101 q 721 1019 721 1028 l 624 965 z "},"Ū":{"ha":974,"x_min":25,"x_max":954,"o":"m 279 1107 l 753 1107 l 736 1004 l 263 1004 l 279 1107 m 25 828 l 25 900 l 414 900 l 414 828 l 307 804 l 307 386 q 326 199 307 263 q 392 112 346 136 q 525 88 438 88 q 643 115 601 88 q 701 207 685 143 q 718 386 718 271 l 721 803 l 610 826 l 610 900 l 954 900 l 954 826 l 842 803 l 842 386 q 808 154 842 243 q 697 22 774 65 q 493 -22 621 -22 q 278 19 354 -22 q 169 148 201 60 q 138 386 138 236 l 138 804 l 25 828 z "},"Ų":{"ha":974,"x_min":25,"x_max":954,"o":"m 614 -260 q 521 -233 556 -260 q 486 -157 486 -207 q 564 -18 486 -78 q 493 -22 531 -22 q 278 19 354 -22 q 169 148 201 60 q 138 386 138 236 l 138 804 l 25 828 l 25 900 l 414 900 l 414 828 l 307 804 l 307 386 q 326 199 307 263 q 392 112 346 136 q 525 88 438 88 q 643 115 601 88 q 701 207 685 143 q 718 386 718 271 l 721 803 l 610 826 l 610 900 l 954 900 l 954 826 l 842 803 l 842 386 q 807 152 842 242 q 692 18 772 63 q 626 -46 651 -7 q 601 -114 601 -85 q 654 -165 601 -165 q 729 -137 681 -165 l 758 -189 q 694 -239 735 -218 q 614 -260 653 -260 z "},"Ů":{"ha":974,"x_min":25,"x_max":954,"o":"m 383 1018 q 420 1110 383 1074 q 525 1146 457 1146 q 624 1113 590 1146 q 657 1026 657 1081 q 619 935 657 971 q 515 900 582 900 q 416 931 449 900 q 383 1018 383 963 m 522 967 q 557 978 549 967 q 565 1018 565 989 q 558 1066 565 1054 q 519 1078 550 1078 q 484 1067 493 1078 q 475 1024 475 1056 q 484 978 475 989 q 522 967 493 967 m 25 828 l 25 900 l 414 900 l 414 828 l 307 804 l 307 386 q 326 199 307 263 q 392 112 346 136 q 525 88 438 88 q 643 115 601 88 q 701 207 685 143 q 718 386 718 271 l 721 803 l 610 826 l 610 900 l 954 900 l 954 826 l 842 803 l 842 386 q 808 154 842 243 q 697 22 774 65 q 493 -22 621 -22 q 278 19 354 -22 q 169 148 201 60 q 138 386 138 236 l 138 804 l 25 828 z "},"Ũ":{"ha":974,"x_min":25,"x_max":954,"o":"m 25 0 m 25 828 l 25 900 l 414 900 l 414 828 l 307 804 l 307 386 q 326 199 307 263 q 392 112 346 136 q 525 88 438 88 q 642 116 600 88 q 703 208 685 144 q 721 386 721 272 l 721 803 l 610 826 l 610 900 l 954 900 l 954 826 l 842 803 l 842 386 q 810 152 842 240 q 703 21 779 64 q 493 -22 626 -22 q 278 19 354 -22 q 169 148 201 60 q 138 386 138 236 l 138 804 l 25 828 m 590 971 q 504 989 558 971 l 375 1031 l 272 978 l 226 1024 l 276 1096 q 326 1141 300 1129 q 383 1153 351 1153 q 469 1138 424 1153 l 597 1094 l 701 1147 l 747 1101 l 697 1031 q 648 983 674 996 q 590 971 622 971 z "},"V":{"ha":854,"x_min":-17,"x_max":879,"o":"m 382 -12 l 75 806 l -17 825 l -17 900 l 379 900 l 379 825 l 272 806 l 272 792 l 456 232 l 464 190 l 475 210 l 551 440 l 668 806 l 554 825 l 554 900 l 879 900 l 879 825 l 790 806 l 504 -12 l 382 -12 z "},"W":{"ha":1369,"x_min":-11,"x_max":1389,"o":"m 329 -12 l 78 806 l -11 825 l -11 900 l 376 900 l 376 825 l 265 806 l 269 782 l 413 231 l 419 193 l 426 193 l 435 231 l 626 739 l 601 806 l 506 825 l 506 900 l 899 900 l 899 825 l 789 806 l 793 786 l 1003 231 l 1011 194 l 1018 194 l 1026 231 l 1169 785 l 1172 806 l 1056 825 l 1056 900 l 1389 900 l 1389 825 l 1303 806 l 1065 -12 l 922 -12 l 701 543 l 696 572 l 688 572 l 682 542 l 472 -12 l 329 -12 z "},"Ẃ":{"ha":1369,"x_min":-11,"x_max":1389,"o":"m 0 0 m 329 -12 l 78 806 l -11 825 l -11 900 l 376 900 l 376 825 l 265 806 l 269 782 l 413 231 l 419 193 l 426 193 l 435 231 l 626 739 l 601 806 l 506 825 l 506 900 l 899 900 l 899 825 l 789 806 l 793 786 l 1003 231 l 1011 194 l 1018 194 l 1026 231 l 1169 785 l 1172 806 l 1056 825 l 1056 900 l 1389 900 l 1389 825 l 1303 806 l 1065 -12 l 922 -12 l 701 543 l 696 572 l 688 572 l 682 542 l 472 -12 l 329 -12 m 588 999 l 781 1136 q 817 1158 799 1147 q 847 1168 835 1168 q 898 1141 881 1168 q 915 1071 915 1114 q 913 1040 915 1063 l 621 938 l 588 999 z "},"Ŵ":{"ha":1369,"x_min":-11,"x_max":1389,"o":"m 0 0 m 329 -12 l 78 806 l -11 825 l -11 900 l 376 900 l 376 825 l 265 806 l 269 782 l 413 231 l 419 193 l 426 193 l 435 231 l 626 739 l 601 806 l 506 825 l 506 900 l 899 900 l 899 825 l 789 806 l 793 786 l 1003 231 l 1011 194 l 1018 194 l 1026 231 l 1169 785 l 1172 806 l 1056 825 l 1056 900 l 1389 900 l 1389 825 l 1303 806 l 1065 -12 l 922 -12 l 701 543 l 696 572 l 688 572 l 682 542 l 472 -12 l 329 -12 m 603 1113 q 660 1156 643 1146 q 688 1167 676 1167 q 715 1157 700 1167 q 746 1134 729 1147 q 771 1114 763 1121 l 915 1000 l 872 936 l 679 1024 l 490 936 l 454 990 l 603 1113 z "},"Ẅ":{"ha":1369,"x_min":-11,"x_max":1389,"o":"m 0 0 m 329 -12 l 78 806 l -11 825 l -11 900 l 376 900 l 376 825 l 265 806 l 269 782 l 413 231 l 419 193 l 426 193 l 435 231 l 626 739 l 601 806 l 506 825 l 506 900 l 899 900 l 899 825 l 789 806 l 793 786 l 1003 231 l 1011 194 l 1018 194 l 1026 231 l 1169 785 l 1172 806 l 1056 825 l 1056 900 l 1389 900 l 1389 825 l 1303 806 l 1065 -12 l 922 -12 l 701 543 l 696 572 l 688 572 l 682 542 l 472 -12 l 329 -12 m 518 961 q 455 987 479 961 q 431 1054 431 1013 q 459 1124 431 1094 q 528 1154 488 1154 q 592 1129 567 1154 q 617 1063 617 1104 q 589 991 617 1021 q 518 961 561 961 m 842 961 q 778 987 803 961 q 754 1054 754 1013 q 782 1124 754 1094 q 850 1154 810 1154 q 914 1129 889 1154 q 939 1063 939 1104 q 912 991 939 1021 q 842 961 885 961 z "},"Ẁ":{"ha":1369,"x_min":-11,"x_max":1389,"o":"m 0 0 m 329 -12 l 78 806 l -11 825 l -11 900 l 376 900 l 376 825 l 265 806 l 269 782 l 413 231 l 419 193 l 426 193 l 435 231 l 626 739 l 601 806 l 506 825 l 506 900 l 899 900 l 899 825 l 789 806 l 793 786 l 1003 231 l 1011 194 l 1018 194 l 1026 231 l 1169 785 l 1172 806 l 1056 825 l 1056 900 l 1389 900 l 1389 825 l 1303 806 l 1065 -12 l 922 -12 l 701 543 l 696 572 l 688 572 l 682 542 l 472 -12 l 329 -12 m 463 1040 q 460 1074 460 1063 q 478 1142 460 1115 q 528 1168 496 1168 q 558 1158 540 1168 q 594 1136 576 1147 l 788 999 l 754 938 l 463 1040 z "},"X":{"ha":847,"x_min":0,"x_max":878,"o":"m 0 72 l 106 94 l 350 440 l 106 803 l 10 828 l 10 900 l 408 900 l 408 828 l 318 807 l 318 785 l 464 568 l 628 792 l 628 808 l 533 829 l 533 900 l 861 900 l 861 829 l 764 806 l 522 479 l 778 94 l 878 72 l 878 0 l 482 0 l 482 72 l 574 93 l 574 110 l 410 350 l 239 110 l 239 90 l 322 71 l 322 0 l 0 0 l 0 72 z "},"Y":{"ha":838,"x_min":-10,"x_max":861,"o":"m 233 72 l 346 96 l 346 338 l 79 807 l -10 829 l -10 900 l 357 900 l 357 829 l 263 808 l 263 786 l 443 444 l 458 444 l 639 792 l 639 807 l 536 829 l 536 900 l 861 900 l 861 829 l 767 806 l 515 343 l 515 96 l 628 72 l 628 0 l 233 0 l 233 72 z "},"Ý":{"ha":838,"x_min":-12,"x_max":858,"o":"m 289 999 l 482 1136 q 518 1158 500 1147 q 549 1168 536 1168 q 599 1141 582 1168 q 617 1071 617 1114 q 614 1040 617 1063 l 322 938 l 289 999 m 232 0 l 232 72 l 343 96 l 343 338 l 76 807 l -12 829 l -12 900 l 354 900 l 354 829 l 261 808 l 261 786 l 442 444 l 457 444 l 636 792 l 636 807 l 533 829 l 533 900 l 858 900 l 858 829 l 765 806 l 514 343 l 514 96 l 625 72 l 625 0 l 232 0 z "},"Ŷ":{"ha":838,"x_min":-10,"x_max":861,"o":"m 0 0 m 233 72 l 346 96 l 346 338 l 79 807 l -10 829 l -10 900 l 357 900 l 357 829 l 263 808 l 263 786 l 443 444 l 458 444 l 639 792 l 639 807 l 536 829 l 536 900 l 861 900 l 861 829 l 767 806 l 515 343 l 515 96 l 628 72 l 628 0 l 233 0 l 233 72 m 365 1113 q 422 1156 406 1146 q 450 1167 439 1167 q 477 1157 463 1167 q 508 1134 492 1147 q 533 1114 525 1121 l 678 1000 l 635 936 l 442 1024 l 253 936 l 217 990 l 365 1113 z "},"Ÿ":{"ha":838,"x_min":-12,"x_max":858,"o":"m 264 965 q 201 991 225 965 q 176 1058 176 1017 q 204 1128 176 1099 q 272 1158 232 1158 q 336 1133 311 1158 q 361 1067 361 1108 q 334 995 361 1025 q 264 965 307 965 m 588 965 q 524 991 549 965 q 499 1058 499 1017 q 527 1128 499 1099 q 596 1158 556 1158 q 660 1133 635 1158 q 685 1067 685 1108 q 658 995 685 1025 q 588 965 631 965 m 232 72 l 343 96 l 343 338 l 76 807 l -12 829 l -12 900 l 354 900 l 354 829 l 261 808 l 261 786 l 442 444 l 457 444 l 636 792 l 636 807 l 533 829 l 533 900 l 858 900 l 858 829 l 765 806 l 514 343 l 514 96 l 625 72 l 625 0 l 232 0 l 232 72 z "},"Ỵ":{"ha":838,"x_min":-10,"x_max":861,"o":"m 0 0 m 233 72 l 346 96 l 346 338 l 79 807 l -10 829 l -10 900 l 357 900 l 357 829 l 263 808 l 263 786 l 443 444 l 458 444 l 639 792 l 639 807 l 536 829 l 536 900 l 861 900 l 861 829 l 767 806 l 515 343 l 515 96 l 628 72 l 628 0 l 233 0 l 233 72 m 424 -269 q 355 -241 382 -269 q 328 -167 328 -212 q 358 -90 328 -122 q 433 -57 389 -57 q 503 -84 476 -57 q 531 -157 531 -111 q 501 -237 531 -204 q 424 -269 472 -269 z "},"Ỳ":{"ha":838,"x_min":-10,"x_max":861,"o":"m 0 0 m 233 72 l 346 96 l 346 338 l 79 807 l -10 829 l -10 900 l 357 900 l 357 829 l 263 808 l 263 786 l 443 444 l 458 444 l 639 792 l 639 807 l 536 829 l 536 900 l 861 900 l 861 829 l 767 806 l 515 343 l 515 96 l 628 72 l 628 0 l 233 0 l 233 72 m 225 1040 q 222 1074 222 1063 q 240 1142 222 1115 q 290 1168 258 1168 q 321 1158 303 1168 q 357 1136 339 1147 l 550 999 l 517 938 l 225 1040 z "},"Ỷ":{"ha":838,"x_min":-10,"x_max":861,"o":"m 0 0 m 233 72 l 346 96 l 346 338 l 79 807 l -10 829 l -10 900 l 357 900 l 357 829 l 263 808 l 263 786 l 443 444 l 458 444 l 639 792 l 639 807 l 536 829 l 536 900 l 861 900 l 861 829 l 767 806 l 515 343 l 515 96 l 628 72 l 628 0 l 233 0 l 233 72 m 403 935 q 390 968 390 956 q 403 993 390 982 q 444 1019 415 1004 q 485 1064 485 1039 q 471 1086 485 1079 q 426 1093 457 1093 q 347 1082 389 1093 q 325 1133 325 1110 q 347 1167 325 1156 q 425 1179 369 1179 q 558 1152 511 1179 q 606 1074 606 1125 q 533 985 606 1015 q 495 965 504 974 q 489 942 486 957 l 403 935 z "},"Ȳ":{"ha":838,"x_min":-10,"x_max":861,"o":"m 0 0 m 233 72 l 346 96 l 346 338 l 79 807 l -10 829 l -10 900 l 357 900 l 357 829 l 263 808 l 263 786 l 443 444 l 458 444 l 639 792 l 639 807 l 536 829 l 536 900 l 861 900 l 861 829 l 767 806 l 515 343 l 515 96 l 628 72 l 628 0 l 233 0 l 233 72 m 218 1107 l 692 1107 l 675 1004 l 201 1004 l 218 1107 z "},"Ỹ":{"ha":838,"x_min":-10,"x_max":861,"o":"m 0 0 m 233 72 l 346 96 l 346 338 l 79 807 l -10 829 l -10 900 l 357 900 l 357 829 l 263 808 l 263 786 l 443 444 l 458 444 l 639 792 l 639 807 l 536 829 l 536 900 l 861 900 l 861 829 l 767 806 l 515 343 l 515 96 l 628 72 l 628 0 l 233 0 l 233 72 m 550 971 q 464 989 518 971 l 335 1031 l 232 978 l 186 1024 l 236 1096 q 285 1141 260 1129 q 343 1153 311 1153 q 429 1138 383 1153 l 557 1094 l 661 1147 l 707 1101 l 657 1031 q 608 983 633 996 q 550 971 582 971 z "},"Z":{"ha":742,"x_min":22,"x_max":718,"o":"m 22 97 l 497 782 l 497 803 l 154 803 l 122 660 l 35 660 l 35 900 l 708 900 l 708 800 l 228 113 l 228 97 l 599 97 l 632 240 l 718 240 l 718 0 l 22 0 l 22 97 z "},"Ź":{"ha":743,"x_min":22,"x_max":719,"o":"m 217 999 l 410 1136 q 431 1149 415 1139 q 457 1163 446 1158 q 476 1168 468 1168 q 527 1141 510 1168 q 544 1071 544 1114 q 542 1040 544 1063 l 250 938 l 217 999 m 22 0 l 22 97 l 499 782 l 499 803 l 154 803 l 122 660 l 36 660 l 36 900 l 710 900 l 710 800 l 229 113 l 229 97 l 599 97 l 632 240 l 719 240 l 719 0 l 22 0 z "},"Ž":{"ha":743,"x_min":22,"x_max":719,"o":"m 376 1092 l 543 1190 l 585 1135 l 458 1018 q 397 967 415 981 q 368 953 379 953 q 338 966 356 953 q 276 1018 321 979 l 158 1128 l 214 1192 l 376 1092 m 22 97 l 499 782 l 499 803 l 154 803 l 122 660 l 36 660 l 36 900 l 710 900 l 710 800 l 229 113 l 229 97 l 599 97 l 632 240 l 719 240 l 719 0 l 22 0 l 22 97 z "},"Ż":{"ha":743,"x_min":22,"x_max":719,"o":"m 364 958 q 294 987 321 958 q 267 1060 267 1015 q 298 1137 267 1104 q 374 1169 329 1169 q 444 1142 417 1169 q 471 1069 471 1115 q 441 991 471 1024 q 364 958 411 958 m 22 97 l 499 782 l 499 803 l 154 803 l 122 660 l 36 660 l 36 900 l 710 900 l 710 800 l 229 113 l 229 97 l 599 97 l 632 240 l 719 240 l 719 0 l 22 0 l 22 97 z "},"Ẓ":{"ha":742,"x_min":22,"x_max":718,"o":"m 22 0 m 22 97 l 497 782 l 497 803 l 154 803 l 122 660 l 35 660 l 35 900 l 708 900 l 708 800 l 228 113 l 228 97 l 599 97 l 632 240 l 718 240 l 718 0 l 22 0 l 22 97 m 364 -269 q 295 -241 322 -269 q 268 -167 268 -212 q 299 -90 268 -122 q 374 -57 329 -57 q 444 -84 417 -57 q 471 -157 471 -111 q 442 -237 471 -204 q 364 -269 413 -269 z "},"a":{"ha":703,"x_min":49,"x_max":685,"o":"m 249 -14 q 98 36 147 -14 q 49 164 49 86 q 112 302 49 251 q 286 371 175 353 l 426 393 l 426 489 q 401 572 426 544 q 311 599 375 599 q 263 595 281 599 q 240 590 244 592 l 219 464 q 197 456 215 461 q 157 451 179 451 q 72 526 72 451 q 122 622 72 582 q 240 683 171 663 q 365 704 308 704 q 585 526 585 704 l 585 106 l 685 86 l 685 22 q 658 13 679 19 q 603 -1 636 6 q 536 -7 569 -7 q 469 9 489 -7 q 440 57 449 25 l 431 57 q 359 10 407 33 q 249 -14 311 -14 m 329 94 q 387 102 360 94 q 426 118 414 110 l 426 307 q 263 269 307 299 q 218 186 218 240 q 245 119 218 143 q 329 94 272 94 z "},"á":{"ha":700,"x_min":46,"x_max":682,"o":"m 211 796 l 351 958 q 387 995 371 982 q 419 1008 403 1008 q 471 978 446 1008 q 500 900 496 949 l 257 743 l 211 796 m 247 -14 q 96 36 146 -14 q 46 164 46 86 q 109 302 46 251 q 283 371 172 353 l 424 393 l 424 489 q 398 572 424 544 q 310 599 372 599 q 260 595 279 599 q 238 590 242 592 l 217 464 q 194 456 213 461 q 154 451 176 451 q 69 526 69 451 q 119 622 69 582 q 237 683 168 663 q 363 704 306 704 q 582 526 582 704 l 582 106 l 682 86 l 682 22 q 655 13 676 19 q 600 -1 633 6 q 533 -7 567 -7 q 466 9 486 -7 q 438 57 446 25 l 428 57 q 356 10 404 33 q 247 -14 308 -14 m 326 94 q 384 102 357 94 q 424 118 411 110 l 424 307 q 260 269 304 299 q 215 186 215 240 q 243 119 215 143 q 326 94 271 94 z "},"ă":{"ha":700,"x_min":46,"x_max":682,"o":"m 339 765 q 199 808 250 765 q 129 898 149 851 q 110 958 110 944 l 201 992 q 214 956 201 983 q 259 902 226 928 q 347 876 292 876 q 438 902 404 876 q 487 957 472 928 q 501 993 501 986 l 556 974 q 538 908 556 958 q 472 812 521 858 q 339 765 424 765 m 247 -14 q 96 36 146 -14 q 46 164 46 86 q 109 302 46 251 q 283 371 172 353 l 424 393 l 424 489 q 398 572 424 544 q 310 599 372 599 q 260 595 279 599 q 238 590 242 592 l 217 464 q 194 456 213 461 q 154 451 176 451 q 69 526 69 451 q 119 622 69 582 q 237 683 168 663 q 363 704 306 704 q 582 526 582 704 l 582 106 l 682 86 l 682 22 q 655 13 676 19 q 600 -1 633 6 q 533 -7 567 -7 q 466 9 486 -7 q 438 57 446 25 l 428 57 q 356 10 404 33 q 247 -14 308 -14 m 326 94 q 384 102 357 94 q 424 118 411 110 l 424 307 q 260 269 304 299 q 215 186 215 240 q 243 119 215 143 q 326 94 271 94 z "},"ắ":{"ha":703,"x_min":49,"x_max":685,"o":"m 49 0 m 249 -14 q 98 36 147 -14 q 49 164 49 86 q 112 302 49 251 q 286 371 175 353 l 426 393 l 426 489 q 401 572 426 544 q 311 599 375 599 q 263 595 281 599 q 240 590 244 592 l 219 464 q 197 456 215 461 q 157 451 179 451 q 72 526 72 451 q 122 622 72 582 q 240 683 171 663 q 365 704 308 704 q 585 526 585 704 l 585 106 l 685 86 l 685 22 q 658 13 679 19 q 603 -1 636 6 q 536 -7 569 -7 q 469 9 489 -7 q 440 57 449 25 l 431 57 q 359 10 407 33 q 249 -14 311 -14 m 329 94 q 387 102 360 94 q 426 118 414 110 l 426 307 q 263 269 307 299 q 218 186 218 240 q 245 119 218 143 q 329 94 272 94 m 219 992 q 232 956 219 983 q 277 902 244 928 q 365 876 310 876 q 456 902 422 876 q 504 957 490 928 q 518 993 518 986 l 572 974 q 555 908 572 958 q 490 812 538 858 q 357 765 442 765 q 217 808 268 765 q 146 898 165 851 q 126 958 126 944 l 219 992 m 426 1168 q 462 1204 446 1192 q 494 1218 478 1217 q 546 1188 521 1218 q 575 1110 571 1158 l 332 953 l 286 1006 l 426 1168 z "},"ặ":{"ha":703,"x_min":49,"x_max":685,"o":"m 49 0 m 249 -14 q 98 36 147 -14 q 49 164 49 86 q 112 302 49 251 q 286 371 175 353 l 426 393 l 426 489 q 401 572 426 544 q 311 599 375 599 q 263 595 281 599 q 240 590 244 592 l 219 464 q 197 456 215 461 q 157 451 179 451 q 72 526 72 451 q 122 622 72 582 q 240 683 171 663 q 365 704 308 704 q 585 526 585 704 l 585 106 l 685 86 l 685 22 q 658 13 679 19 q 603 -1 636 6 q 536 -7 569 -7 q 469 9 489 -7 q 440 57 449 25 l 431 57 q 359 10 407 33 q 249 -14 311 -14 m 329 94 q 387 102 360 94 q 426 118 414 110 l 426 307 q 263 269 307 299 q 218 186 218 240 q 245 119 218 143 q 329 94 272 94 m 344 -269 q 276 -241 303 -269 q 249 -167 249 -212 q 279 -90 249 -122 q 354 -57 310 -57 q 424 -84 397 -57 q 451 -157 451 -111 q 422 -237 451 -204 q 344 -269 393 -269 m 221 992 q 233 956 221 983 q 278 902 246 928 q 367 876 311 876 q 458 902 424 876 q 506 957 492 928 q 519 993 519 986 l 574 974 q 556 908 574 958 q 491 812 539 858 q 358 765 443 765 q 218 808 269 765 q 147 898 167 851 q 128 958 128 944 l 221 992 z "},"ằ":{"ha":703,"x_min":49,"x_max":685,"o":"m 49 0 m 249 -14 q 98 36 147 -14 q 49 164 49 86 q 112 302 49 251 q 286 371 175 353 l 426 393 l 426 489 q 401 572 426 544 q 311 599 375 599 q 263 595 281 599 q 240 590 244 592 l 219 464 q 197 456 215 461 q 157 451 179 451 q 72 526 72 451 q 122 622 72 582 q 240 683 171 663 q 365 704 308 704 q 585 526 585 704 l 585 106 l 685 86 l 685 22 q 658 13 679 19 q 603 -1 636 6 q 536 -7 569 -7 q 469 9 489 -7 q 440 57 449 25 l 431 57 q 359 10 407 33 q 249 -14 311 -14 m 329 94 q 387 102 360 94 q 426 118 414 110 l 426 307 q 263 269 307 299 q 218 186 218 240 q 245 119 218 143 q 329 94 272 94 m 221 992 q 233 956 221 983 q 278 902 246 928 q 367 876 311 876 q 458 902 424 876 q 506 957 492 928 q 519 993 519 986 l 574 974 q 556 908 574 958 q 491 812 539 858 q 358 765 443 765 q 218 808 269 765 q 147 898 167 851 q 128 958 128 944 l 221 992 m 153 1110 q 182 1188 157 1158 q 233 1218 207 1218 q 265 1206 250 1218 q 303 1168 281 1193 l 442 1006 l 396 953 l 153 1110 z "},"ẳ":{"ha":703,"x_min":49,"x_max":685,"o":"m 49 0 m 249 -14 q 98 36 147 -14 q 49 164 49 86 q 112 302 49 251 q 286 371 175 353 l 426 393 l 426 489 q 401 572 426 544 q 311 599 375 599 q 263 595 281 599 q 240 590 244 592 l 219 464 q 197 456 215 461 q 157 451 179 451 q 72 526 72 451 q 122 622 72 582 q 240 683 171 663 q 365 704 308 704 q 585 526 585 704 l 585 106 l 685 86 l 685 22 q 658 13 679 19 q 603 -1 636 6 q 536 -7 569 -7 q 469 9 489 -7 q 440 57 449 25 l 431 57 q 359 10 407 33 q 249 -14 311 -14 m 329 94 q 387 102 360 94 q 426 118 414 110 l 426 307 q 263 269 307 299 q 218 186 218 240 q 245 119 218 143 q 329 94 272 94 m 221 992 q 233 956 221 983 q 278 902 246 928 q 367 876 311 876 q 458 902 424 876 q 506 957 492 928 q 519 993 519 986 l 574 974 q 556 908 574 958 q 491 812 539 858 q 358 765 443 765 q 218 808 269 765 q 147 898 167 851 q 128 958 128 944 l 221 992 m 311 954 q 296 999 296 982 q 308 1027 296 1014 q 351 1058 321 1040 q 381 1080 371 1069 q 390 1107 390 1090 q 332 1140 390 1140 q 253 1129 294 1140 q 232 1181 232 1154 q 254 1215 232 1203 q 332 1226 276 1226 q 464 1198 417 1226 q 511 1115 511 1169 q 494 1063 511 1086 q 439 1018 476 1039 q 403 997 411 1004 q 394 975 394 989 l 396 964 l 311 954 z "},"ẵ":{"ha":703,"x_min":49,"x_max":685,"o":"m 143 1143 q 183 1179 158 1167 q 239 1192 208 1192 q 344 1172 275 1192 l 465 1138 l 565 1183 l 608 1147 l 558 1075 q 467 1025 528 1025 q 405 1034 440 1025 q 361 1044 369 1043 l 236 1081 l 136 1035 l 94 1071 l 143 1143 m 218 992 q 231 956 218 983 q 276 902 243 928 q 364 876 308 876 q 455 902 421 876 q 503 957 489 928 q 517 993 517 986 l 571 974 q 553 908 571 958 q 488 812 536 858 q 356 765 440 765 q 215 808 267 765 q 144 898 164 851 q 125 958 125 944 l 218 992 m 249 -14 q 98 36 147 -14 q 49 164 49 86 q 112 302 49 251 q 286 371 175 353 l 426 393 l 426 489 q 401 572 426 544 q 311 599 375 599 q 263 595 281 599 q 240 590 244 592 l 219 464 q 197 456 215 461 q 157 451 179 451 q 72 526 72 451 q 122 622 72 582 q 240 683 171 663 q 365 704 308 704 q 585 526 585 704 l 585 106 l 685 86 l 685 22 q 658 13 679 19 q 603 -1 636 6 q 536 -7 569 -7 q 469 9 489 -7 q 440 57 449 25 l 431 57 q 359 10 407 33 q 249 -14 311 -14 m 329 94 q 387 102 360 94 q 426 118 414 110 l 426 307 q 263 269 307 299 q 218 186 218 240 q 245 119 218 143 q 329 94 272 94 z "},"ǎ":{"ha":703,"x_min":49,"x_max":685,"o":"m 49 0 m 249 -14 q 98 36 147 -14 q 49 164 49 86 q 112 302 49 251 q 286 371 175 353 l 426 393 l 426 489 q 401 572 426 544 q 311 599 375 599 q 263 595 281 599 q 240 590 244 592 l 219 464 q 197 456 215 461 q 157 451 179 451 q 72 526 72 451 q 122 622 72 582 q 240 683 171 663 q 365 704 308 704 q 585 526 585 704 l 585 106 l 685 86 l 685 22 q 658 13 679 19 q 603 -1 636 6 q 536 -7 569 -7 q 469 9 489 -7 q 440 57 449 25 l 431 57 q 359 10 407 33 q 249 -14 311 -14 m 329 94 q 387 102 360 94 q 426 118 414 110 l 426 307 q 263 269 307 299 q 218 186 218 240 q 245 119 218 143 q 329 94 272 94 m 347 750 q 317 763 335 750 q 269 806 300 776 l 140 932 l 196 993 l 358 883 l 519 993 l 561 940 l 425 806 q 378 763 396 776 q 347 750 361 750 z "},"â":{"ha":700,"x_min":46,"x_max":682,"o":"m 331 856 l 168 751 l 126 806 l 269 950 q 342 994 314 994 q 400 961 367 994 l 550 810 l 497 750 l 331 856 m 247 -14 q 96 36 146 -14 q 46 164 46 86 q 109 302 46 251 q 283 371 172 353 l 424 393 l 424 489 q 398 572 424 544 q 310 599 372 599 q 260 595 279 599 q 238 590 242 592 l 217 464 q 194 456 213 461 q 154 451 176 451 q 69 526 69 451 q 119 622 69 582 q 237 683 168 663 q 363 704 306 704 q 582 526 582 704 l 582 106 l 682 86 l 682 22 q 655 13 676 19 q 600 -1 633 6 q 533 -7 567 -7 q 466 9 486 -7 q 438 57 446 25 l 428 57 q 356 10 404 33 q 247 -14 308 -14 m 326 94 q 384 102 357 94 q 424 118 411 110 l 424 307 q 260 269 304 299 q 215 186 215 240 q 243 119 215 143 q 326 94 271 94 z "},"ấ":{"ha":703,"x_min":49,"x_max":707,"o":"m 49 0 m 249 -14 q 98 36 147 -14 q 49 164 49 86 q 112 302 49 251 q 286 371 175 353 l 426 393 l 426 489 q 401 572 426 544 q 311 599 375 599 q 263 595 281 599 q 240 590 244 592 l 219 464 q 197 456 215 461 q 157 451 179 451 q 72 526 72 451 q 122 622 72 582 q 240 683 171 663 q 365 704 308 704 q 585 526 585 704 l 585 106 l 685 86 l 685 22 q 658 13 679 19 q 603 -1 636 6 q 536 -7 569 -7 q 469 9 489 -7 q 440 57 449 25 l 431 57 q 359 10 407 33 q 249 -14 311 -14 m 329 94 q 387 102 360 94 q 426 118 414 110 l 426 307 q 263 269 307 299 q 218 186 218 240 q 245 119 218 143 q 329 94 272 94 m 249 950 q 288 983 271 972 q 321 994 304 994 q 379 961 346 994 l 529 810 l 476 750 l 310 856 l 147 751 l 106 806 l 249 950 m 558 1150 q 594 1186 578 1174 q 626 1200 610 1199 q 678 1170 653 1200 q 707 1092 703 1140 l 464 935 l 418 988 l 558 1150 z "},"ậ":{"ha":703,"x_min":49,"x_max":685,"o":"m 49 0 m 249 -14 q 98 36 147 -14 q 49 164 49 86 q 112 302 49 251 q 286 371 175 353 l 426 393 l 426 489 q 401 572 426 544 q 311 599 375 599 q 263 595 281 599 q 240 590 244 592 l 219 464 q 197 456 215 461 q 157 451 179 451 q 72 526 72 451 q 122 622 72 582 q 240 683 171 663 q 365 704 308 704 q 585 526 585 704 l 585 106 l 685 86 l 685 22 q 658 13 679 19 q 603 -1 636 6 q 536 -7 569 -7 q 469 9 489 -7 q 440 57 449 25 l 431 57 q 359 10 407 33 q 249 -14 311 -14 m 329 94 q 387 102 360 94 q 426 118 414 110 l 426 307 q 263 269 307 299 q 218 186 218 240 q 245 119 218 143 q 329 94 272 94 m 344 -269 q 276 -241 303 -269 q 249 -167 249 -212 q 279 -90 249 -122 q 354 -57 310 -57 q 424 -84 397 -57 q 451 -157 451 -111 q 422 -237 451 -204 q 344 -269 393 -269 m 283 950 q 322 983 306 972 q 356 994 339 994 q 414 961 381 994 l 564 810 l 511 750 l 344 856 l 182 751 l 140 806 l 283 950 z "},"ầ":{"ha":703,"x_min":49,"x_max":685,"o":"m 49 0 m 249 -14 q 98 36 147 -14 q 49 164 49 86 q 112 302 49 251 q 286 371 175 353 l 426 393 l 426 489 q 401 572 426 544 q 311 599 375 599 q 263 595 281 599 q 240 590 244 592 l 219 464 q 197 456 215 461 q 157 451 179 451 q 72 526 72 451 q 122 622 72 582 q 240 683 171 663 q 365 704 308 704 q 585 526 585 704 l 585 106 l 685 86 l 685 22 q 658 13 679 19 q 603 -1 636 6 q 536 -7 569 -7 q 469 9 489 -7 q 440 57 449 25 l 431 57 q 359 10 407 33 q 249 -14 311 -14 m 329 94 q 387 102 360 94 q 426 118 414 110 l 426 307 q 263 269 307 299 q 218 186 218 240 q 245 119 218 143 q 329 94 272 94 m 264 950 q 303 983 286 972 q 336 994 319 994 q 394 961 361 994 l 544 810 l 492 750 l 325 856 l 163 751 l 121 806 l 264 950 m 292 1092 q 321 1170 296 1140 q 372 1200 346 1200 q 404 1188 389 1200 q 442 1150 419 1175 l 581 988 l 535 935 l 292 1092 z "},"ẩ":{"ha":703,"x_min":49,"x_max":685,"o":"m 49 0 m 249 -14 q 98 36 147 -14 q 49 164 49 86 q 112 302 49 251 q 286 371 175 353 l 426 393 l 426 489 q 401 572 426 544 q 311 599 375 599 q 263 595 281 599 q 240 590 244 592 l 219 464 q 197 456 215 461 q 157 451 179 451 q 72 526 72 451 q 122 622 72 582 q 240 683 171 663 q 365 704 308 704 q 585 526 585 704 l 585 106 l 685 86 l 685 22 q 658 13 679 19 q 603 -1 636 6 q 536 -7 569 -7 q 469 9 489 -7 q 440 57 449 25 l 431 57 q 359 10 407 33 q 249 -14 311 -14 m 329 94 q 387 102 360 94 q 426 118 414 110 l 426 307 q 263 269 307 299 q 218 186 218 240 q 245 119 218 143 q 329 94 272 94 m 247 950 q 286 983 269 972 q 319 994 303 994 q 378 961 344 994 l 528 810 l 475 750 l 308 856 l 146 751 l 104 806 l 247 950 m 454 936 q 439 981 439 964 q 451 1009 439 996 q 494 1040 464 1022 q 524 1062 514 1051 q 533 1089 533 1072 q 475 1122 533 1122 q 396 1111 438 1122 q 375 1163 375 1136 q 397 1197 375 1185 q 475 1208 419 1208 q 607 1180 560 1208 q 654 1097 654 1151 q 637 1044 654 1068 q 582 1000 619 1021 q 546 978 554 986 q 538 957 538 971 l 539 946 l 454 936 z "},"ẫ":{"ha":703,"x_min":49,"x_max":685,"o":"m 143 1146 q 183 1182 158 1169 q 239 1194 208 1194 q 344 1175 275 1194 l 465 1140 l 565 1186 l 608 1150 l 558 1078 q 467 1028 528 1028 q 405 1037 440 1028 q 361 1047 369 1046 l 236 1083 l 136 1038 l 94 1074 l 143 1146 m 281 950 q 319 983 301 972 q 353 994 336 994 q 411 961 378 994 l 561 810 l 508 750 l 342 856 l 179 751 l 138 806 l 281 950 m 249 -14 q 98 36 147 -14 q 49 164 49 86 q 112 302 49 251 q 286 371 175 353 l 426 393 l 426 489 q 401 572 426 544 q 311 599 375 599 q 263 595 281 599 q 240 590 244 592 l 219 464 q 197 456 215 461 q 157 451 179 451 q 72 526 72 451 q 122 622 72 582 q 240 683 171 663 q 365 704 308 704 q 585 526 585 704 l 585 106 l 685 86 l 685 22 q 658 13 679 19 q 603 -1 636 6 q 536 -7 569 -7 q 469 9 489 -7 q 440 57 449 25 l 431 57 q 359 10 407 33 q 249 -14 311 -14 m 329 94 q 387 102 360 94 q 426 118 414 110 l 426 307 q 263 269 307 299 q 218 186 218 240 q 245 119 218 143 q 329 94 272 94 z "},"ȁ":{"ha":703,"x_min":49,"x_max":685,"o":"m 49 0 m 249 -14 q 98 36 147 -14 q 49 164 49 86 q 112 302 49 251 q 286 371 175 353 l 426 393 l 426 489 q 401 572 426 544 q 311 599 375 599 q 263 595 281 599 q 240 590 244 592 l 219 464 q 197 456 215 461 q 157 451 179 451 q 72 526 72 451 q 122 622 72 582 q 240 683 171 663 q 365 704 308 704 q 585 526 585 704 l 585 106 l 685 86 l 685 22 q 658 13 679 19 q 603 -1 636 6 q 536 -7 569 -7 q 469 9 489 -7 q 440 57 449 25 l 431 57 q 359 10 407 33 q 249 -14 311 -14 m 329 94 q 387 102 360 94 q 426 118 414 110 l 426 307 q 263 269 307 299 q 218 186 218 240 q 245 119 218 143 q 329 94 272 94 m 308 779 l 250 739 l 67 943 q 109 999 85 979 q 154 1018 133 1018 q 190 1004 176 1018 q 211 974 203 990 q 222 953 219 958 l 308 779 m 543 779 l 485 739 l 301 943 q 344 999 319 979 q 389 1018 368 1018 q 426 1003 414 1018 q 456 953 439 988 l 543 779 z "},"ä":{"ha":700,"x_min":46,"x_max":682,"o":"m 172 786 q 109 813 133 786 q 85 879 85 839 q 113 949 85 919 q 182 979 142 979 q 245 955 221 979 q 269 889 269 931 q 242 816 269 846 q 172 786 215 786 m 478 786 q 415 813 439 786 q 390 879 390 839 q 419 949 390 919 q 488 979 447 979 q 551 955 526 979 q 575 889 575 931 q 548 816 575 846 q 478 786 521 786 m 247 -14 q 96 36 146 -14 q 46 164 46 86 q 109 302 46 251 q 283 371 172 353 l 424 393 l 424 489 q 398 572 424 544 q 310 599 372 599 q 260 595 279 599 q 238 590 242 592 l 217 464 q 194 456 213 461 q 154 451 176 451 q 69 526 69 451 q 119 622 69 582 q 237 683 168 663 q 363 704 306 704 q 582 526 582 704 l 582 106 l 682 86 l 682 22 q 655 13 676 19 q 600 -1 633 6 q 533 -7 567 -7 q 466 9 486 -7 q 438 57 446 25 l 428 57 q 356 10 404 33 q 247 -14 308 -14 m 326 94 q 384 102 357 94 q 424 118 411 110 l 424 307 q 260 269 304 299 q 215 186 215 240 q 243 119 215 143 q 326 94 271 94 z "},"ạ":{"ha":703,"x_min":49,"x_max":685,"o":"m 49 0 m 249 -14 q 98 36 147 -14 q 49 164 49 86 q 112 302 49 251 q 286 371 175 353 l 426 393 l 426 489 q 401 572 426 544 q 311 599 375 599 q 263 595 281 599 q 240 590 244 592 l 219 464 q 197 456 215 461 q 157 451 179 451 q 72 526 72 451 q 122 622 72 582 q 240 683 171 663 q 365 704 308 704 q 585 526 585 704 l 585 106 l 685 86 l 685 22 q 658 13 679 19 q 603 -1 636 6 q 536 -7 569 -7 q 469 9 489 -7 q 440 57 449 25 l 431 57 q 359 10 407 33 q 249 -14 311 -14 m 329 94 q 387 102 360 94 q 426 118 414 110 l 426 307 q 263 269 307 299 q 218 186 218 240 q 245 119 218 143 q 329 94 272 94 m 344 -269 q 276 -241 303 -269 q 249 -167 249 -212 q 279 -90 249 -122 q 354 -57 310 -57 q 424 -84 397 -57 q 451 -157 451 -111 q 422 -237 451 -204 q 344 -269 393 -269 z "},"à":{"ha":700,"x_min":46,"x_max":682,"o":"m 186 900 q 215 978 190 949 q 267 1008 240 1008 q 299 996 283 1008 q 336 958 314 983 l 475 796 l 429 743 l 186 900 m 247 -14 q 96 36 146 -14 q 46 164 46 86 q 109 302 46 251 q 283 371 172 353 l 424 393 l 424 489 q 398 572 424 544 q 310 599 372 599 q 260 595 279 599 q 238 590 242 592 l 217 464 q 194 456 213 461 q 154 451 176 451 q 69 526 69 451 q 119 622 69 582 q 237 683 168 663 q 363 704 306 704 q 582 526 582 704 l 582 106 l 682 86 l 682 22 q 655 13 676 19 q 600 -1 633 6 q 533 -7 567 -7 q 466 9 486 -7 q 438 57 446 25 l 428 57 q 356 10 404 33 q 247 -14 308 -14 m 326 94 q 384 102 357 94 q 424 118 411 110 l 424 307 q 260 269 304 299 q 215 186 215 240 q 243 119 215 143 q 326 94 271 94 z "},"ả":{"ha":703,"x_min":49,"x_max":685,"o":"m 49 0 m 249 -14 q 98 36 147 -14 q 49 164 49 86 q 112 302 49 251 q 286 371 175 353 l 426 393 l 426 489 q 401 572 426 544 q 311 599 375 599 q 263 595 281 599 q 240 590 244 592 l 219 464 q 197 456 215 461 q 157 451 179 451 q 72 526 72 451 q 122 622 72 582 q 240 683 171 663 q 365 704 308 704 q 585 526 585 704 l 585 106 l 685 86 l 685 22 q 658 13 679 19 q 603 -1 636 6 q 536 -7 569 -7 q 469 9 489 -7 q 440 57 449 25 l 431 57 q 359 10 407 33 q 249 -14 311 -14 m 329 94 q 387 102 360 94 q 426 118 414 110 l 426 307 q 263 269 307 299 q 218 186 218 240 q 245 119 218 143 q 329 94 272 94 m 308 744 q 293 789 293 772 q 306 817 293 804 q 349 849 318 831 q 378 870 368 860 q 388 897 388 881 q 329 931 388 931 q 250 919 292 931 q 229 971 229 944 q 251 1005 229 993 q 329 1017 274 1017 q 461 988 414 1017 q 508 906 508 960 q 491 853 508 876 q 436 808 474 829 q 400 787 408 794 q 392 765 392 779 l 393 754 l 308 744 z "},"ȃ":{"ha":703,"x_min":49,"x_max":685,"o":"m 49 0 m 249 -14 q 98 36 147 -14 q 49 164 49 86 q 112 302 49 251 q 286 371 175 353 l 426 393 l 426 489 q 401 572 426 544 q 311 599 375 599 q 263 595 281 599 q 240 590 244 592 l 219 464 q 197 456 215 461 q 157 451 179 451 q 72 526 72 451 q 122 622 72 582 q 240 683 171 663 q 365 704 308 704 q 585 526 585 704 l 585 106 l 685 86 l 685 22 q 658 13 679 19 q 603 -1 636 6 q 536 -7 569 -7 q 469 9 489 -7 q 440 57 449 25 l 431 57 q 359 10 407 33 q 249 -14 311 -14 m 329 94 q 387 102 360 94 q 426 118 414 110 l 426 307 q 263 269 307 299 q 218 186 218 240 q 245 119 218 143 q 329 94 272 94 m 482 767 q 469 803 482 775 q 424 856 457 831 q 335 882 390 882 q 244 856 278 882 q 196 801 210 831 q 182 765 182 772 l 128 785 q 145 850 128 800 q 211 947 163 900 q 344 993 260 993 q 484 950 433 993 q 554 860 535 907 q 574 800 574 814 l 482 767 z "},"ā":{"ha":700,"x_min":46,"x_max":682,"o":"m 86 824 l 103 926 l 576 926 l 560 824 l 86 824 m 247 -14 q 96 36 146 -14 q 46 164 46 86 q 109 302 46 251 q 283 371 172 353 l 424 393 l 424 489 q 398 572 424 544 q 310 599 372 599 q 260 595 279 599 q 238 590 242 592 l 217 464 q 194 456 213 461 q 154 451 176 451 q 69 526 69 451 q 119 622 69 582 q 237 683 168 663 q 363 704 306 704 q 582 526 582 704 l 582 106 l 682 86 l 682 22 q 655 13 676 19 q 600 -1 633 6 q 533 -7 567 -7 q 466 9 486 -7 q 438 57 446 25 l 428 57 q 356 10 404 33 q 247 -14 308 -14 m 326 94 q 384 102 357 94 q 424 118 411 110 l 424 307 q 260 269 304 299 q 215 186 215 240 q 243 119 215 143 q 326 94 271 94 z "},"ą":{"ha":700,"x_min":46,"x_max":682,"o":"m 533 -260 q 441 -233 476 -260 q 406 -157 406 -207 q 433 -72 406 -110 q 503 -6 460 -33 q 458 15 472 0 q 438 57 444 31 l 428 57 q 356 10 404 33 q 247 -14 308 -14 q 96 36 146 -14 q 46 164 46 86 q 109 302 46 251 q 283 371 172 353 l 424 393 l 424 489 q 398 572 424 544 q 310 599 372 599 q 260 595 279 599 q 238 590 242 592 l 217 464 q 194 456 213 461 q 154 451 176 451 q 69 526 69 451 q 119 622 69 582 q 237 683 168 663 q 363 704 306 704 q 582 526 582 704 l 582 106 l 682 86 l 682 22 q 649 11 675 19 q 592 -1 624 3 q 521 -114 521 -62 q 574 -165 521 -165 q 649 -137 603 -165 l 679 -189 q 658 -210 679 -192 q 605 -244 638 -228 q 533 -260 572 -260 m 326 94 q 384 102 357 94 q 424 118 411 110 l 424 307 q 260 269 304 299 q 215 186 215 240 q 243 119 215 143 q 326 94 271 94 z "},"å":{"ha":700,"x_min":46,"x_max":682,"o":"m 328 767 q 225 799 258 767 q 192 888 192 832 q 228 983 192 944 q 338 1021 265 1021 q 440 986 406 1021 q 474 896 474 951 q 435 803 474 840 q 328 767 397 767 m 333 831 q 370 844 360 831 q 381 893 381 858 q 369 942 381 929 q 331 954 357 954 q 294 940 304 954 q 283 893 283 926 q 294 842 283 854 q 333 831 306 831 m 247 -14 q 96 36 146 -14 q 46 164 46 86 q 109 302 46 251 q 283 371 172 353 l 424 393 l 424 489 q 398 572 424 544 q 310 599 372 599 q 260 595 279 599 q 238 590 242 592 l 217 464 q 194 456 213 461 q 154 451 176 451 q 69 526 69 451 q 119 622 69 582 q 237 683 168 663 q 363 704 306 704 q 582 526 582 704 l 582 106 l 682 86 l 682 22 q 655 13 676 19 q 600 -1 633 6 q 533 -7 567 -7 q 466 9 486 -7 q 438 57 446 25 l 428 57 q 356 10 404 33 q 247 -14 308 -14 m 326 94 q 384 102 357 94 q 424 118 411 110 l 424 307 q 260 269 304 299 q 215 186 215 240 q 243 119 215 143 q 326 94 271 94 z "},"ǻ":{"ha":703,"x_min":49,"x_max":685,"o":"m 49 0 m 249 -14 q 98 36 147 -14 q 49 164 49 86 q 112 302 49 251 q 286 371 175 353 l 426 393 l 426 489 q 401 572 426 544 q 311 599 375 599 q 263 595 281 599 q 240 590 244 592 l 219 464 q 197 456 215 461 q 157 451 179 451 q 72 526 72 451 q 122 622 72 582 q 240 683 171 663 q 365 704 308 704 q 585 526 585 704 l 585 106 l 685 86 l 685 22 q 658 13 679 19 q 603 -1 636 6 q 536 -7 569 -7 q 469 9 489 -7 q 440 57 449 25 l 431 57 q 359 10 407 33 q 249 -14 311 -14 m 329 94 q 387 102 360 94 q 426 118 414 110 l 426 307 q 263 269 307 299 q 218 186 218 240 q 245 119 218 143 q 329 94 272 94 m 211 888 q 248 983 211 944 q 357 1021 285 1021 q 459 986 425 1021 q 493 896 493 951 q 455 803 493 840 q 347 767 417 767 q 244 799 278 767 q 211 888 211 832 m 353 831 q 390 844 379 831 q 400 893 400 858 q 388 942 400 929 q 350 954 376 954 q 313 940 324 954 q 303 893 303 926 q 314 842 303 854 q 353 831 325 831 m 428 1293 q 463 1329 447 1317 q 496 1343 479 1342 q 547 1313 522 1343 q 576 1235 572 1283 l 333 1078 l 288 1131 l 428 1293 z "},"ã":{"ha":700,"x_min":46,"x_max":682,"o":"m 447 788 q 386 797 422 788 q 342 810 350 807 l 218 849 l 118 799 l 75 838 l 124 917 q 165 956 140 943 q 221 969 190 969 q 325 949 250 969 l 447 910 l 547 960 l 589 921 l 540 842 q 447 788 510 788 m 247 -14 q 96 36 146 -14 q 46 164 46 86 q 109 302 46 251 q 283 371 172 353 l 424 393 l 424 489 q 398 572 424 544 q 310 599 372 599 q 260 595 279 599 q 238 590 242 592 l 217 464 q 194 456 213 461 q 154 451 176 451 q 69 526 69 451 q 119 622 69 582 q 237 683 168 663 q 363 704 306 704 q 582 526 582 704 l 582 106 l 682 86 l 682 22 q 655 13 676 19 q 600 -1 633 6 q 533 -7 567 -7 q 466 9 486 -7 q 438 57 446 25 l 428 57 q 356 10 404 33 q 247 -14 308 -14 m 326 94 q 384 102 357 94 q 424 118 411 110 l 424 307 q 260 269 304 299 q 215 186 215 240 q 243 119 215 143 q 326 94 271 94 z "},"æ":{"ha":1039,"x_min":51,"x_max":1003,"o":"m 429 486 q 403 569 429 542 q 315 596 378 596 q 266 592 285 596 q 243 588 247 589 l 221 464 q 199 456 217 461 q 158 451 181 451 q 96 468 117 451 q 75 526 75 485 q 124 624 75 583 q 243 684 174 664 q 369 704 313 704 q 553 636 497 704 q 742 704 629 704 q 1003 404 1003 704 q 990 335 1003 354 q 947 315 976 317 l 594 311 q 633 153 596 208 q 774 99 671 99 q 869 105 826 99 q 934 118 911 111 q 963 128 957 125 l 983 74 q 949 47 983 71 q 863 4 915 24 q 743 -15 810 -15 q 504 71 578 -15 q 406 12 468 38 q 253 -14 343 -14 q 101 37 151 -14 q 51 164 51 88 q 119 312 51 260 q 297 372 188 364 l 429 382 l 429 486 m 842 410 q 846 457 846 435 q 823 567 846 536 q 736 597 800 597 q 633 543 663 597 q 601 393 604 489 l 842 410 m 429 300 q 300 284 344 296 q 238 249 256 272 q 221 188 221 226 q 248 119 221 144 q 332 93 275 93 q 382 101 360 93 q 429 119 404 108 l 429 300 z "},"ǽ":{"ha":1039,"x_min":51,"x_max":1003,"o":"m 51 0 m 429 486 q 403 569 429 542 q 315 596 378 596 q 266 592 285 596 q 243 588 247 589 l 221 464 q 199 456 217 461 q 158 451 181 451 q 96 468 117 451 q 75 526 75 485 q 124 624 75 583 q 243 684 174 664 q 369 704 313 704 q 553 636 497 704 q 742 704 629 704 q 1003 404 1003 704 q 990 335 1003 354 q 947 315 976 317 l 594 311 q 633 153 596 208 q 774 99 671 99 q 869 105 826 99 q 934 118 911 111 q 963 128 957 125 l 983 74 q 949 47 983 71 q 863 4 915 24 q 743 -15 810 -15 q 504 71 578 -15 q 406 12 468 38 q 253 -14 343 -14 q 101 37 151 -14 q 51 164 51 88 q 119 312 51 260 q 297 372 188 364 l 429 382 l 429 486 m 842 410 q 846 457 846 435 q 823 567 846 536 q 736 597 800 597 q 633 543 663 597 q 601 393 604 489 l 842 410 m 429 300 q 300 284 344 296 q 238 249 256 272 q 221 188 221 226 q 248 119 221 144 q 332 93 275 93 q 382 101 360 93 q 429 119 404 108 l 429 300 m 593 958 q 628 994 613 982 q 661 1008 644 1007 q 713 978 688 1008 q 742 900 738 949 l 499 743 l 453 796 l 593 958 z "},"b":{"ha":742,"x_min":-18,"x_max":694,"o":"m 394 -11 q 298 6 338 -11 q 236 44 258 24 l 222 44 l 174 -1 l 94 -1 l 94 844 l -18 865 l -18 938 l 207 971 l 253 951 l 253 656 l 244 640 l 247 632 q 447 704 336 704 q 627 629 560 704 q 694 394 694 554 q 653 171 694 263 q 543 34 611 79 q 394 -11 475 -11 m 358 86 q 483 146 443 86 q 524 350 524 206 q 489 537 524 482 q 371 592 454 592 q 253 571 315 592 l 253 104 q 358 86 307 86 z "},"c":{"ha":624,"x_min":31,"x_max":588,"o":"m 575 71 q 544 46 575 68 q 461 4 513 24 q 344 -15 410 -15 q 31 328 31 -15 q 74 535 31 450 q 192 662 118 619 q 354 704 265 704 q 523 654 458 704 q 588 525 588 604 q 493 446 588 446 q 463 450 476 446 q 447 456 450 454 l 422 592 q 399 597 418 593 q 354 601 381 601 q 263 578 296 601 q 215 503 229 556 q 200 358 200 450 q 219 206 200 263 q 281 124 238 150 q 403 99 325 99 q 475 104 442 99 q 528 115 508 110 q 553 122 547 121 l 575 71 z "},"ć":{"ha":624,"x_min":42,"x_max":600,"o":"m 354 958 q 390 995 374 982 q 422 1008 406 1008 q 474 978 449 1008 q 503 900 499 949 l 260 743 l 214 796 l 354 958 m 588 71 q 556 46 588 68 q 473 4 524 24 q 357 -15 422 -15 q 42 328 42 -15 q 85 535 42 450 q 203 662 129 619 q 365 704 276 704 q 535 654 469 704 q 600 525 600 604 q 506 446 600 446 q 476 450 489 446 q 458 456 463 454 l 435 592 q 410 597 429 593 q 365 601 392 601 q 274 578 307 601 q 227 503 242 556 q 213 358 213 450 q 231 206 213 263 q 294 124 250 150 q 415 99 338 99 q 488 104 454 99 q 540 115 521 110 q 565 122 560 121 l 588 71 z "},"č":{"ha":624,"x_min":42,"x_max":600,"o":"m 343 750 q 313 763 331 750 q 265 806 296 776 l 136 932 l 192 993 l 354 883 l 515 993 l 557 940 l 421 806 q 374 763 392 776 q 343 750 357 750 m 357 -15 q 42 328 42 -15 q 85 535 42 450 q 203 662 129 619 q 365 704 276 704 q 535 654 469 704 q 600 525 600 604 q 506 446 600 446 q 476 450 489 446 q 458 456 463 454 l 435 592 q 410 597 429 593 q 365 601 392 601 q 274 578 307 601 q 227 503 242 556 q 213 358 213 450 q 231 206 213 263 q 294 124 250 150 q 415 99 338 99 q 488 104 454 99 q 540 115 521 110 q 565 122 560 121 l 588 71 q 556 46 588 68 q 473 4 524 24 q 357 -15 422 -15 z "},"ç":{"ha":624,"x_min":42,"x_max":600,"o":"m 329 -265 q 269 -260 294 -265 q 218 -242 244 -254 l 243 -181 q 325 -197 281 -197 q 369 -189 354 -197 q 385 -161 385 -181 q 377 -137 385 -144 q 350 -125 369 -129 l 306 -117 l 275 -86 l 307 -12 q 109 85 176 0 q 42 328 42 169 q 85 535 42 450 q 203 662 129 619 q 365 704 276 704 q 535 654 469 704 q 600 525 600 604 q 506 446 600 446 q 458 456 481 446 l 435 592 q 365 601 406 601 q 274 578 307 601 q 227 503 242 556 q 213 358 213 450 q 231 206 213 263 q 294 124 250 150 q 415 99 338 99 q 488 104 454 99 q 540 115 521 110 q 565 122 560 121 l 588 71 q 559 47 588 68 q 484 8 531 26 q 378 -14 438 -11 l 378 -42 l 404 -47 q 477 -78 453 -60 q 501 -140 501 -97 q 456 -235 501 -204 q 329 -265 410 -265 z "},"ĉ":{"ha":624,"x_min":31,"x_max":588,"o":"m 31 0 m 575 71 q 544 46 575 68 q 461 4 513 24 q 344 -15 410 -15 q 31 328 31 -15 q 74 535 31 450 q 192 662 118 619 q 354 704 265 704 q 523 654 458 704 q 588 525 588 604 q 493 446 588 446 q 463 450 476 446 q 447 456 450 454 l 422 592 q 399 597 418 593 q 354 601 381 601 q 263 578 296 601 q 215 503 229 556 q 200 358 200 450 q 219 206 200 263 q 281 124 238 150 q 403 99 325 99 q 475 104 442 99 q 528 115 508 110 q 553 122 547 121 l 575 71 m 281 950 q 319 983 303 972 q 353 994 336 994 q 411 961 378 994 l 561 810 l 508 750 l 342 856 l 179 751 l 138 806 l 281 950 z "},"ċ":{"ha":624,"x_min":31,"x_max":588,"o":"m 31 0 m 575 71 q 544 46 575 68 q 461 4 513 24 q 344 -15 410 -15 q 31 328 31 -15 q 74 535 31 450 q 192 662 118 619 q 354 704 265 704 q 523 654 458 704 q 588 525 588 604 q 493 446 588 446 q 463 450 476 446 q 447 456 450 454 l 422 592 q 399 597 418 593 q 354 601 381 601 q 263 578 296 601 q 215 503 229 556 q 200 358 200 450 q 219 206 200 263 q 281 124 238 150 q 403 99 325 99 q 475 104 442 99 q 528 115 508 110 q 553 122 547 121 l 575 71 m 342 783 q 273 812 300 783 q 246 885 246 840 q 276 962 246 929 q 351 994 307 994 q 422 967 394 994 q 449 894 449 940 q 419 816 449 849 q 342 783 390 783 z "},"d":{"ha":774,"x_min":47,"x_max":754,"o":"m 307 -15 q 118 65 189 -15 q 47 306 47 144 q 90 530 47 440 q 202 662 133 619 q 350 704 271 704 q 493 660 432 704 l 496 669 l 488 685 l 488 844 l 375 876 l 375 949 l 600 971 l 646 951 l 646 114 l 754 93 l 754 21 l 529 -10 l 503 61 l 499 61 q 423 8 472 32 q 307 -15 374 -15 m 367 99 q 488 129 432 99 l 488 582 q 374 599 431 599 q 257 540 296 599 q 218 338 218 481 q 252 152 218 206 q 367 99 286 99 z "},"ð":{"ha":729,"x_min":50,"x_max":700,"o":"m 378 -17 q 130 68 210 -17 q 50 324 50 153 q 92 508 50 432 q 207 624 133 585 q 374 664 281 664 q 504 639 446 664 q 419 803 479 749 l 269 719 l 225 800 l 329 858 q 158 881 263 881 l 158 957 q 196 962 165 958 q 272 965 226 965 q 456 926 371 965 l 578 994 l 621 914 l 542 869 q 660 689 619 800 q 700 440 700 578 q 616 90 700 197 q 378 -17 532 -17 m 382 79 q 473 109 442 79 q 515 197 504 139 q 526 356 526 256 q 518 536 526 436 q 378 560 453 560 q 256 499 292 560 q 221 326 221 439 q 253 143 221 207 q 382 79 286 79 z "},"ď":{"ha":788,"x_min":51,"x_max":857,"o":"m 714 751 q 733 819 726 781 q 739 890 739 858 q 710 978 739 942 q 778 1008 733 1008 q 837 985 817 1008 q 857 932 857 963 q 838 856 857 896 q 797 787 818 815 q 769 751 776 758 l 714 751 m 311 -15 q 122 65 193 -15 q 51 306 51 144 q 94 530 51 440 q 206 662 138 619 q 354 704 275 704 q 497 660 436 704 l 500 668 l 492 685 l 492 844 l 379 876 l 379 949 l 604 971 l 650 951 l 650 114 l 758 93 l 758 21 l 533 -10 l 508 61 l 503 61 q 427 8 476 32 q 311 -15 378 -15 m 371 99 q 492 129 436 99 l 492 582 q 378 599 432 599 q 260 540 300 599 q 221 338 221 481 q 256 153 221 207 q 371 99 290 99 z "},"đ":{"ha":758,"x_min":46,"x_max":753,"o":"m 306 -15 q 117 65 188 -15 q 46 306 46 144 q 89 524 46 438 q 201 652 132 611 q 349 693 269 693 q 492 649 431 693 l 494 658 l 488 675 l 488 758 l 238 758 l 238 851 l 488 851 l 488 878 l 397 904 l 397 950 l 599 971 l 646 951 l 646 851 l 697 851 l 697 758 l 646 758 l 646 114 l 753 93 l 753 21 l 528 -10 l 503 61 l 497 61 q 422 8 469 31 q 306 -15 374 -15 m 365 99 q 488 129 429 99 l 488 569 q 372 588 433 588 q 256 531 294 588 q 217 338 217 475 q 251 152 217 206 q 365 99 285 99 z "},"ḍ":{"ha":774,"x_min":47,"x_max":754,"o":"m 47 0 m 307 -15 q 118 65 189 -15 q 47 306 47 144 q 90 530 47 440 q 202 662 133 619 q 350 704 271 704 q 493 660 432 704 l 496 669 l 488 685 l 488 844 l 375 876 l 375 949 l 600 971 l 646 951 l 646 114 l 754 93 l 754 21 l 529 -10 l 503 61 l 499 61 q 423 8 472 32 q 307 -15 374 -15 m 367 99 q 488 129 432 99 l 488 582 q 374 599 431 599 q 257 540 296 599 q 218 338 218 481 q 252 152 218 206 q 367 99 286 99 m 381 -269 q 312 -241 339 -269 q 285 -167 285 -212 q 315 -90 285 -122 q 390 -57 346 -57 q 460 -84 433 -57 q 488 -157 488 -111 q 458 -237 488 -204 q 381 -269 429 -269 z "},"ǳ":{"ha":1397,"x_min":47,"x_max":1367,"o":"m 47 0 m 307 -15 q 118 65 189 -15 q 47 306 47 144 q 90 530 47 440 q 202 662 133 619 q 350 704 271 704 q 493 660 432 704 l 496 669 l 488 685 l 488 844 l 375 876 l 375 949 l 600 971 l 646 951 l 646 114 l 754 93 l 754 21 l 529 -10 l 503 61 l 499 61 q 423 8 472 32 q 307 -15 374 -15 m 367 99 q 488 129 432 99 l 488 582 q 374 599 431 599 q 257 540 296 599 q 218 338 218 481 q 252 152 218 206 q 367 99 286 99 m 796 0 l 796 96 l 1147 578 l 1154 594 l 929 594 l 903 488 l 819 488 l 813 688 l 1344 688 l 1344 579 l 994 115 l 985 93 l 1249 93 l 1272 213 l 1360 213 l 1367 0 l 796 0 z "},"ǆ":{"ha":1397,"x_min":47,"x_max":1367,"o":"m 47 0 m 307 -15 q 118 65 189 -15 q 47 306 47 144 q 90 530 47 440 q 202 662 133 619 q 350 704 271 704 q 493 660 432 704 l 496 669 l 488 685 l 488 844 l 375 876 l 375 949 l 600 971 l 646 951 l 646 114 l 754 93 l 754 21 l 529 -10 l 503 61 l 499 61 q 423 8 472 32 q 307 -15 374 -15 m 367 99 q 488 129 432 99 l 488 582 q 374 599 431 599 q 257 540 296 599 q 218 338 218 481 q 252 152 218 206 q 367 99 286 99 m 796 0 l 796 96 l 1147 578 l 1154 594 l 929 594 l 903 488 l 819 488 l 813 688 l 1344 688 l 1344 579 l 994 115 l 985 93 l 1249 93 l 1272 213 l 1360 213 l 1367 0 l 796 0 m 1079 750 q 1049 763 1067 750 q 1001 806 1032 776 l 872 932 l 928 993 l 1090 883 l 1251 993 l 1293 940 l 1157 806 q 1110 763 1128 776 q 1079 750 1093 750 z "},"e":{"ha":664,"x_min":31,"x_max":610,"o":"m 351 -15 q 31 328 31 -15 q 71 528 31 443 q 185 658 111 613 q 353 704 258 704 q 549 625 488 704 q 610 435 610 546 q 595 340 610 364 q 544 315 581 315 l 200 315 q 246 155 201 211 q 396 99 290 99 q 485 106 446 99 q 544 122 524 114 q 571 132 565 129 l 594 81 q 560 53 594 78 q 472 6 525 28 q 351 -15 418 -15 m 442 407 q 446 456 446 432 q 424 568 446 535 q 339 601 403 601 q 235 549 265 601 q 201 396 204 496 l 442 407 z "},"é":{"ha":663,"x_min":43,"x_max":622,"o":"m 221 796 l 361 958 q 397 995 381 982 q 429 1008 413 1008 q 481 978 456 1008 q 510 900 506 949 l 267 743 l 221 796 m 364 -15 q 43 328 43 -15 q 83 528 43 443 q 197 658 124 613 q 365 704 271 704 q 561 625 500 704 q 622 435 622 546 q 607 340 622 365 q 556 315 592 315 l 213 315 q 258 154 214 210 q 408 99 303 99 q 497 106 458 99 q 557 122 536 114 q 583 132 578 129 l 607 81 q 572 53 607 78 q 484 6 538 28 q 364 -15 431 -15 m 454 407 q 458 456 458 432 q 437 568 458 535 q 351 601 415 601 q 247 549 278 601 q 214 396 217 496 l 454 407 z "},"ĕ":{"ha":664,"x_min":31,"x_max":610,"o":"m 31 0 m 351 -15 q 31 328 31 -15 q 71 528 31 443 q 185 658 111 613 q 353 704 258 704 q 549 625 488 704 q 610 435 610 546 q 595 340 610 364 q 544 315 581 315 l 200 315 q 246 155 201 211 q 396 99 290 99 q 485 106 446 99 q 544 122 524 114 q 571 132 565 129 l 594 81 q 560 53 594 78 q 472 6 525 28 q 351 -15 418 -15 m 442 407 q 446 456 446 432 q 424 568 446 535 q 339 601 403 601 q 235 549 265 601 q 201 396 204 496 l 442 407 m 217 992 q 229 956 217 983 q 274 902 242 928 q 363 876 307 876 q 453 902 419 876 q 501 957 488 928 q 515 993 515 986 l 569 974 q 552 908 569 958 q 487 812 535 858 q 354 765 439 765 q 214 808 265 765 q 143 898 163 851 q 124 958 124 944 l 217 992 z "},"ě":{"ha":663,"x_min":43,"x_max":622,"o":"m 340 750 q 308 764 326 750 q 261 806 290 778 l 133 932 l 188 993 l 350 883 l 513 993 l 553 940 l 418 806 q 372 764 390 778 q 340 750 353 750 m 364 -15 q 43 328 43 -15 q 83 528 43 443 q 197 658 124 613 q 365 704 271 704 q 561 625 500 704 q 622 435 622 546 q 607 340 622 365 q 556 315 592 315 l 213 315 q 258 154 214 210 q 408 99 303 99 q 497 106 458 99 q 557 122 536 114 q 583 132 578 129 l 607 81 q 572 53 607 78 q 484 6 538 28 q 364 -15 431 -15 m 454 407 q 458 456 458 432 q 437 568 458 535 q 351 601 415 601 q 247 549 278 601 q 214 396 217 496 l 454 407 z "},"ê":{"ha":663,"x_min":43,"x_max":622,"o":"m 333 856 l 172 751 l 129 806 l 272 950 q 346 994 317 994 q 404 961 371 994 l 553 810 l 500 750 l 333 856 m 364 -15 q 43 328 43 -15 q 83 528 43 443 q 197 658 124 613 q 365 704 271 704 q 561 625 500 704 q 622 435 622 546 q 607 340 622 365 q 556 315 592 315 l 213 315 q 258 154 214 210 q 408 99 303 99 q 497 106 458 99 q 557 122 536 114 q 583 132 578 129 l 607 81 q 572 53 607 78 q 484 6 538 28 q 364 -15 431 -15 m 454 407 q 458 456 458 432 q 437 568 458 535 q 351 601 415 601 q 247 549 278 601 q 214 396 217 496 l 454 407 z "},"ế":{"ha":664,"x_min":31,"x_max":703,"o":"m 31 0 m 351 -15 q 31 328 31 -15 q 71 528 31 443 q 185 658 111 613 q 353 704 258 704 q 549 625 488 704 q 610 435 610 546 q 595 340 610 364 q 544 315 581 315 l 200 315 q 246 155 201 211 q 396 99 290 99 q 485 106 446 99 q 544 122 524 114 q 571 132 565 129 l 594 81 q 560 53 594 78 q 472 6 525 28 q 351 -15 418 -15 m 442 407 q 446 456 446 432 q 424 568 446 535 q 339 601 403 601 q 235 549 265 601 q 201 396 204 496 l 442 407 m 244 950 q 283 983 267 972 q 317 994 300 994 q 375 961 342 994 l 525 810 l 472 750 l 306 856 l 143 751 l 101 806 l 244 950 m 554 1150 q 590 1186 574 1174 q 622 1200 606 1199 q 674 1170 649 1200 q 703 1092 699 1140 l 460 935 l 414 988 l 554 1150 z "},"ệ":{"ha":664,"x_min":31,"x_max":610,"o":"m 31 0 m 351 -15 q 31 328 31 -15 q 71 528 31 443 q 185 658 111 613 q 353 704 258 704 q 549 625 488 704 q 610 435 610 546 q 595 340 610 364 q 544 315 581 315 l 200 315 q 246 155 201 211 q 396 99 290 99 q 485 106 446 99 q 544 122 524 114 q 571 132 565 129 l 594 81 q 560 53 594 78 q 472 6 525 28 q 351 -15 418 -15 m 442 407 q 446 456 446 432 q 424 568 446 535 q 339 601 403 601 q 235 549 265 601 q 201 396 204 496 l 442 407 m 340 -269 q 272 -241 299 -269 q 244 -167 244 -212 q 275 -90 244 -122 q 350 -57 306 -57 q 420 -84 393 -57 q 447 -157 447 -111 q 418 -237 447 -204 q 340 -269 389 -269 m 279 950 q 318 983 301 972 q 351 994 335 994 q 410 961 376 994 l 560 810 l 507 750 l 340 856 l 178 751 l 136 806 l 279 950 z "},"ề":{"ha":664,"x_min":31,"x_max":610,"o":"m 31 0 m 351 -15 q 31 328 31 -15 q 71 528 31 443 q 185 658 111 613 q 353 704 258 704 q 549 625 488 704 q 610 435 610 546 q 595 340 610 364 q 544 315 581 315 l 200 315 q 246 155 201 211 q 396 99 290 99 q 485 106 446 99 q 544 122 524 114 q 571 132 565 129 l 594 81 q 560 53 594 78 q 472 6 525 28 q 351 -15 418 -15 m 442 407 q 446 456 446 432 q 424 568 446 535 q 339 601 403 601 q 235 549 265 601 q 201 396 204 496 l 442 407 m 260 950 q 299 983 282 972 q 332 994 315 994 q 390 961 357 994 l 540 810 l 488 750 l 321 856 l 158 751 l 117 806 l 260 950 m 288 1092 q 317 1170 292 1140 q 368 1200 342 1200 q 400 1188 385 1200 q 438 1150 415 1175 l 576 988 l 531 935 l 288 1092 z "},"ể":{"ha":664,"x_min":31,"x_max":650,"o":"m 31 0 m 351 -15 q 31 328 31 -15 q 71 528 31 443 q 185 658 111 613 q 353 704 258 704 q 549 625 488 704 q 610 435 610 546 q 595 340 610 364 q 544 315 581 315 l 200 315 q 246 155 201 211 q 396 99 290 99 q 485 106 446 99 q 544 122 524 114 q 571 132 565 129 l 594 81 q 560 53 594 78 q 472 6 525 28 q 351 -15 418 -15 m 442 407 q 446 456 446 432 q 424 568 446 535 q 339 601 403 601 q 235 549 265 601 q 201 396 204 496 l 442 407 m 243 950 q 282 983 265 972 q 315 994 299 994 q 374 961 340 994 l 524 810 l 471 750 l 304 856 l 142 751 l 100 806 l 243 950 m 450 936 q 435 981 435 964 q 447 1009 435 996 q 490 1040 460 1022 q 519 1062 510 1051 q 529 1089 529 1072 q 471 1122 529 1122 q 392 1111 433 1122 q 371 1163 371 1136 q 393 1197 371 1185 q 471 1208 415 1208 q 603 1180 556 1208 q 650 1097 650 1151 q 633 1044 650 1068 q 578 1000 615 1021 q 542 978 550 986 q 533 957 533 971 l 535 946 l 450 936 z "},"ễ":{"ha":664,"x_min":31,"x_max":610,"o":"m 139 1146 q 179 1182 154 1169 q 235 1194 204 1194 q 340 1175 271 1194 l 461 1140 l 561 1186 l 604 1150 l 554 1078 q 463 1028 524 1028 q 401 1037 436 1028 q 357 1047 365 1046 l 232 1083 l 132 1038 l 90 1074 l 139 1146 m 276 950 q 315 983 297 972 q 349 994 332 994 q 407 961 374 994 l 557 810 l 504 750 l 338 856 l 175 751 l 133 806 l 276 950 m 351 -15 q 31 328 31 -15 q 71 528 31 443 q 185 658 111 613 q 353 704 258 704 q 549 625 488 704 q 610 435 610 546 q 595 340 610 364 q 544 315 581 315 l 200 315 q 246 155 201 211 q 396 99 290 99 q 485 106 446 99 q 544 122 524 114 q 571 132 565 129 l 594 81 q 560 53 594 78 q 472 6 525 28 q 351 -15 418 -15 m 442 407 q 446 456 446 432 q 424 568 446 535 q 339 601 403 601 q 235 549 265 601 q 201 396 204 496 l 442 407 z "},"ȅ":{"ha":664,"x_min":31,"x_max":610,"o":"m 31 0 m 351 -15 q 31 328 31 -15 q 71 528 31 443 q 185 658 111 613 q 353 704 258 704 q 549 625 488 704 q 610 435 610 546 q 595 340 610 364 q 544 315 581 315 l 200 315 q 246 155 201 211 q 396 99 290 99 q 485 106 446 99 q 544 122 524 114 q 571 132 565 129 l 594 81 q 560 53 594 78 q 472 6 525 28 q 351 -15 418 -15 m 442 407 q 446 456 446 432 q 424 568 446 535 q 339 601 403 601 q 235 549 265 601 q 201 396 204 496 l 442 407 m 304 779 l 246 739 l 63 943 q 105 999 81 979 q 150 1018 129 1018 q 185 1004 172 1018 q 207 974 199 990 q 218 953 215 958 l 304 779 m 539 779 l 481 739 l 297 943 q 340 999 315 979 q 385 1018 364 1018 q 422 1003 410 1018 q 451 953 435 988 l 539 779 z "},"ë":{"ha":663,"x_min":43,"x_max":622,"o":"m 190 786 q 127 813 151 786 q 103 879 103 839 q 131 949 103 919 q 199 979 158 979 q 263 955 238 979 q 288 889 288 931 q 260 816 288 846 q 190 786 233 786 m 496 786 q 433 813 457 786 q 408 879 408 839 q 436 949 408 919 q 504 979 464 979 q 568 955 543 979 q 593 889 593 931 q 566 816 593 846 q 496 786 539 786 m 364 -15 q 43 328 43 -15 q 83 528 43 443 q 197 658 124 613 q 365 704 271 704 q 561 625 500 704 q 622 435 622 546 q 607 340 622 365 q 556 315 592 315 l 213 315 q 258 154 214 210 q 408 99 303 99 q 497 106 458 99 q 557 122 536 114 q 583 132 578 129 l 607 81 q 572 53 607 78 q 484 6 538 28 q 364 -15 431 -15 m 454 407 q 458 456 458 432 q 437 568 458 535 q 351 601 415 601 q 247 549 278 601 q 214 396 217 496 l 454 407 z "},"ė":{"ha":663,"x_min":43,"x_max":622,"o":"m 347 783 q 277 812 304 783 q 250 885 250 840 q 281 962 250 929 q 357 994 313 994 q 427 967 400 994 q 454 894 454 940 q 424 816 454 849 q 347 783 394 783 m 364 -15 q 43 328 43 -15 q 83 528 43 443 q 197 658 124 613 q 365 704 271 704 q 561 625 500 704 q 622 435 622 546 q 607 340 622 365 q 556 315 592 315 l 213 315 q 258 154 214 210 q 408 99 303 99 q 497 106 458 99 q 557 122 536 114 q 583 132 578 129 l 607 81 q 572 53 607 78 q 484 6 538 28 q 364 -15 431 -15 m 454 407 q 458 456 458 432 q 437 568 458 535 q 351 601 415 601 q 247 549 278 601 q 214 396 217 496 l 454 407 z "},"ẹ":{"ha":664,"x_min":31,"x_max":610,"o":"m 31 0 m 351 -15 q 31 328 31 -15 q 71 528 31 443 q 185 658 111 613 q 353 704 258 704 q 549 625 488 704 q 610 435 610 546 q 595 340 610 364 q 544 315 581 315 l 200 315 q 246 155 201 211 q 396 99 290 99 q 485 106 446 99 q 544 122 524 114 q 571 132 565 129 l 594 81 q 560 53 594 78 q 472 6 525 28 q 351 -15 418 -15 m 442 407 q 446 456 446 432 q 424 568 446 535 q 339 601 403 601 q 235 549 265 601 q 201 396 204 496 l 442 407 m 340 -269 q 272 -241 299 -269 q 244 -167 244 -212 q 275 -90 244 -122 q 350 -57 306 -57 q 420 -84 393 -57 q 447 -157 447 -111 q 418 -237 447 -204 q 340 -269 389 -269 z "},"è":{"ha":663,"x_min":43,"x_max":622,"o":"m 189 900 q 218 978 193 949 q 269 1008 243 1008 q 301 996 286 1008 q 339 958 317 983 l 478 796 l 432 743 l 189 900 m 364 -15 q 43 328 43 -15 q 83 528 43 443 q 197 658 124 613 q 365 704 271 704 q 561 625 500 704 q 622 435 622 546 q 607 340 622 365 q 556 315 592 315 l 213 315 q 258 154 214 210 q 408 99 303 99 q 497 106 458 99 q 557 122 536 114 q 583 132 578 129 l 607 81 q 572 53 607 78 q 484 6 538 28 q 364 -15 431 -15 m 454 407 q 458 456 458 432 q 437 568 458 535 q 351 601 415 601 q 247 549 278 601 q 214 396 217 496 l 454 407 z "},"ẻ":{"ha":664,"x_min":31,"x_max":610,"o":"m 31 0 m 351 -15 q 31 328 31 -15 q 71 528 31 443 q 185 658 111 613 q 353 704 258 704 q 549 625 488 704 q 610 435 610 546 q 595 340 610 364 q 544 315 581 315 l 200 315 q 246 155 201 211 q 396 99 290 99 q 485 106 446 99 q 544 122 524 114 q 571 132 565 129 l 594 81 q 560 53 594 78 q 472 6 525 28 q 351 -15 418 -15 m 442 407 q 446 456 446 432 q 424 568 446 535 q 339 601 403 601 q 235 549 265 601 q 201 396 204 496 l 442 407 m 304 744 q 289 789 289 772 q 301 817 289 804 q 344 849 314 831 q 374 870 364 860 q 383 897 383 881 q 325 931 383 931 q 246 919 288 931 q 225 971 225 944 q 247 1005 225 993 q 325 1017 269 1017 q 457 988 410 1017 q 504 906 504 960 q 487 853 504 876 q 432 808 469 829 q 396 787 404 794 q 388 765 388 779 l 389 754 l 304 744 z "},"ȇ":{"ha":664,"x_min":31,"x_max":610,"o":"m 31 0 m 351 -15 q 31 328 31 -15 q 71 528 31 443 q 185 658 111 613 q 353 704 258 704 q 549 625 488 704 q 610 435 610 546 q 595 340 610 364 q 544 315 581 315 l 200 315 q 246 155 201 211 q 396 99 290 99 q 485 106 446 99 q 544 122 524 114 q 571 132 565 129 l 594 81 q 560 53 594 78 q 472 6 525 28 q 351 -15 418 -15 m 442 407 q 446 456 446 432 q 424 568 446 535 q 339 601 403 601 q 235 549 265 601 q 201 396 204 496 l 442 407 m 478 767 q 465 803 478 775 q 419 856 453 831 q 331 882 386 882 q 240 856 274 882 q 192 801 206 831 q 178 765 178 772 l 124 785 q 141 850 124 800 q 207 947 158 900 q 340 993 256 993 q 480 950 429 993 q 550 860 531 907 q 569 800 569 814 l 478 767 z "},"ē":{"ha":663,"x_min":43,"x_max":622,"o":"m 101 824 l 118 926 l 592 926 l 575 824 l 101 824 m 364 -15 q 43 328 43 -15 q 83 528 43 443 q 197 658 124 613 q 365 704 271 704 q 561 625 500 704 q 622 435 622 546 q 607 340 622 365 q 556 315 592 315 l 213 315 q 258 154 214 210 q 408 99 303 99 q 497 106 458 99 q 557 122 536 114 q 583 132 578 129 l 607 81 q 572 53 607 78 q 484 6 538 28 q 364 -15 431 -15 m 454 407 q 458 456 458 432 q 437 568 458 535 q 351 601 415 601 q 247 549 278 601 q 214 396 217 496 l 454 407 z "},"ę":{"ha":663,"x_min":43,"x_max":622,"o":"m 435 -260 q 342 -233 378 -260 q 307 -157 307 -207 q 393 -14 307 -76 q 364 -15 383 -15 q 43 328 43 -15 q 83 528 43 443 q 197 658 124 613 q 365 704 271 704 q 561 625 500 704 q 622 435 622 546 q 607 340 622 365 q 556 315 592 315 l 213 315 q 258 154 214 210 q 408 99 303 99 q 497 106 458 99 q 557 122 536 114 q 583 132 578 129 l 607 81 q 578 58 607 79 q 515 18 550 36 q 452 -41 482 -6 q 422 -114 422 -76 q 475 -165 422 -165 q 550 -137 504 -165 l 581 -189 q 560 -210 581 -192 q 506 -244 539 -228 q 435 -260 474 -260 m 454 407 q 458 456 458 432 q 437 568 458 535 q 351 601 415 601 q 247 549 278 601 q 214 396 217 496 l 454 407 z "},"ẽ":{"ha":664,"x_min":31,"x_max":610,"o":"m 31 0 m 351 -15 q 31 328 31 -15 q 71 528 31 443 q 185 658 111 613 q 353 704 258 704 q 549 625 488 704 q 610 435 610 546 q 595 340 610 364 q 544 315 581 315 l 200 315 q 246 155 201 211 q 396 99 290 99 q 485 106 446 99 q 544 122 524 114 q 571 132 565 129 l 594 81 q 560 53 594 78 q 472 6 525 28 q 351 -15 418 -15 m 442 407 q 446 456 446 432 q 424 568 446 535 q 339 601 403 601 q 235 549 265 601 q 201 396 204 496 l 442 407 m 139 917 q 179 956 154 943 q 235 969 204 969 q 340 949 265 969 l 461 910 l 561 960 l 604 921 l 554 842 q 463 788 524 788 q 399 798 435 788 q 357 810 364 808 l 232 849 l 132 799 l 90 838 l 139 917 z "},"ə":{"ha":664,"x_min":54,"x_max":633,"o":"m 313 701 q 633 358 633 701 q 593 158 633 243 q 479 28 553 74 q 311 -18 406 -18 q 115 61 176 -18 q 54 251 54 140 q 69 347 54 322 q 119 371 83 371 l 464 371 q 418 531 463 475 q 268 588 374 588 q 179 580 218 588 q 119 565 140 572 q 93 554 99 557 l 69 606 q 104 633 69 608 q 192 680 139 658 q 313 701 246 701 m 222 279 q 218 231 218 254 q 240 118 218 151 q 325 85 261 85 q 429 138 399 85 q 463 290 460 190 l 222 279 z "},"f":{"ha":460,"x_min":25,"x_max":526,"o":"m 25 69 l 129 89 l 129 593 l 32 593 l 32 675 l 129 697 q 210 901 132 824 q 419 978 289 978 q 526 899 526 978 q 511 848 526 864 q 478 819 496 832 l 447 828 q 325 854 363 854 q 288 849 304 854 l 288 692 l 467 692 l 467 642 l 449 593 l 288 593 l 288 93 l 432 72 l 432 0 l 25 0 l 25 69 z "},"g":{"ha":657,"x_min":19,"x_max":678,"o":"m 299 -231 q 95 -193 171 -231 q 19 -76 19 -156 q 58 16 19 -22 q 154 88 96 54 q 133 151 133 111 q 155 210 133 182 q 207 256 176 238 q 81 332 124 274 q 38 460 38 390 q 119 639 38 574 q 325 704 200 704 q 479 663 417 704 q 539 699 500 679 q 611 719 578 719 q 678 654 678 719 q 663 606 678 626 q 633 575 649 586 l 596 592 q 566 604 581 599 q 536 610 551 610 q 569 546 558 581 q 579 479 579 511 q 542 358 579 411 q 441 276 506 306 q 299 246 376 246 l 279 246 l 279 183 l 436 156 q 597 101 547 136 q 647 -11 647 65 q 599 -126 647 -76 q 472 -203 551 -176 q 299 -231 392 -231 m 307 339 q 370 350 347 339 q 404 392 393 361 q 415 479 415 422 q 394 578 415 549 q 313 608 372 608 q 226 579 249 608 q 203 471 203 550 q 226 368 203 397 q 307 339 249 339 m 329 -142 q 458 -119 415 -142 q 500 -57 500 -96 q 484 -8 500 -26 q 421 19 468 11 l 214 53 q 167 -54 167 0 q 203 -122 167 -101 q 329 -142 239 -142 z "},"ǵ":{"ha":657,"x_min":19,"x_max":678,"o":"m 19 0 m 299 -231 q 95 -193 171 -231 q 19 -76 19 -156 q 58 16 19 -22 q 154 88 96 54 q 133 151 133 111 q 155 210 133 182 q 207 256 176 238 q 81 332 124 274 q 38 460 38 390 q 119 639 38 574 q 325 704 200 704 q 479 663 417 704 q 539 699 500 679 q 611 719 578 719 q 678 654 678 719 q 663 606 678 626 q 633 575 649 586 l 596 592 q 566 604 581 599 q 536 610 551 610 q 569 546 558 581 q 579 479 579 511 q 542 358 579 411 q 441 276 506 306 q 299 246 376 246 l 279 246 l 279 183 l 436 156 q 597 101 547 136 q 647 -11 647 65 q 599 -126 647 -76 q 472 -203 551 -176 q 299 -231 392 -231 m 307 339 q 370 350 347 339 q 404 392 393 361 q 415 479 415 422 q 394 578 415 549 q 313 608 372 608 q 226 579 249 608 q 203 471 203 550 q 226 368 203 397 q 307 339 249 339 m 329 -142 q 458 -119 415 -142 q 500 -57 500 -96 q 484 -8 500 -26 q 421 19 468 11 l 214 53 q 167 -54 167 0 q 203 -122 167 -101 q 329 -142 239 -142 m 403 958 q 438 994 422 982 q 471 1008 454 1007 q 522 978 497 1008 q 551 900 547 949 l 308 743 l 263 796 l 403 958 z "},"ğ":{"ha":660,"x_min":19,"x_max":678,"o":"m 321 765 q 181 808 232 765 q 110 898 129 851 q 90 958 90 944 l 183 992 q 196 956 183 983 q 241 902 208 928 q 329 876 274 876 q 420 902 386 876 q 469 957 454 928 q 483 993 483 986 l 536 974 q 519 908 536 958 q 453 812 501 858 q 321 765 406 765 m 299 -231 q 95 -193 171 -231 q 19 -76 19 -156 q 58 16 19 -22 q 154 88 96 54 q 133 151 133 111 q 155 210 133 182 q 207 256 176 238 q 81 332 124 274 q 38 460 38 390 q 119 639 38 574 q 325 704 200 704 q 479 663 417 704 q 539 699 500 679 q 611 719 578 719 q 678 654 678 719 q 663 606 678 626 q 633 575 649 586 l 596 592 q 566 604 581 599 q 536 610 551 610 q 569 546 558 581 q 579 479 579 511 q 542 358 579 411 q 441 276 506 306 q 299 246 376 246 l 279 246 l 279 183 l 436 156 q 597 101 547 136 q 647 -11 647 65 q 599 -126 647 -76 q 472 -203 551 -176 q 299 -231 392 -231 m 307 339 q 370 350 347 339 q 404 392 393 361 q 415 479 415 422 q 394 578 415 549 q 313 608 372 608 q 226 579 249 608 q 203 471 203 550 q 226 368 203 397 q 307 339 249 339 m 329 -142 q 458 -119 415 -142 q 500 -57 500 -96 q 484 -8 500 -26 q 421 19 468 11 l 214 53 q 167 -54 167 0 q 203 -122 167 -101 q 329 -142 239 -142 z "},"ǧ":{"ha":657,"x_min":19,"x_max":678,"o":"m 19 0 m 299 -231 q 95 -193 171 -231 q 19 -76 19 -156 q 58 16 19 -22 q 154 88 96 54 q 133 151 133 111 q 155 210 133 182 q 207 256 176 238 q 81 332 124 274 q 38 460 38 390 q 119 639 38 574 q 325 704 200 704 q 479 663 417 704 q 539 699 500 679 q 611 719 578 719 q 678 654 678 719 q 663 606 678 626 q 633 575 649 586 l 596 592 q 566 604 581 599 q 536 610 551 610 q 569 546 558 581 q 579 479 579 511 q 542 358 579 411 q 441 276 506 306 q 299 246 376 246 l 279 246 l 279 183 l 436 156 q 597 101 547 136 q 647 -11 647 65 q 599 -126 647 -76 q 472 -203 551 -176 q 299 -231 392 -231 m 307 339 q 370 350 347 339 q 404 392 393 361 q 415 479 415 422 q 394 578 415 549 q 313 608 372 608 q 226 579 249 608 q 203 471 203 550 q 226 368 203 397 q 307 339 249 339 m 329 -142 q 458 -119 415 -142 q 500 -57 500 -96 q 484 -8 500 -26 q 421 19 468 11 l 214 53 q 167 -54 167 0 q 203 -122 167 -101 q 329 -142 239 -142 m 325 750 q 295 763 313 750 q 247 806 278 776 l 118 932 l 174 993 l 336 883 l 497 993 l 539 940 l 403 806 q 356 763 374 776 q 325 750 339 750 z "},"ĝ":{"ha":657,"x_min":19,"x_max":678,"o":"m 19 0 m 299 -231 q 95 -193 171 -231 q 19 -76 19 -156 q 58 16 19 -22 q 154 88 96 54 q 133 151 133 111 q 155 210 133 182 q 207 256 176 238 q 81 332 124 274 q 38 460 38 390 q 119 639 38 574 q 325 704 200 704 q 479 663 417 704 q 539 699 500 679 q 611 719 578 719 q 678 654 678 719 q 663 606 678 626 q 633 575 649 586 l 596 592 q 566 604 581 599 q 536 610 551 610 q 569 546 558 581 q 579 479 579 511 q 542 358 579 411 q 441 276 506 306 q 299 246 376 246 l 279 246 l 279 183 l 436 156 q 597 101 547 136 q 647 -11 647 65 q 599 -126 647 -76 q 472 -203 551 -176 q 299 -231 392 -231 m 307 339 q 370 350 347 339 q 404 392 393 361 q 415 479 415 422 q 394 578 415 549 q 313 608 372 608 q 226 579 249 608 q 203 471 203 550 q 226 368 203 397 q 307 339 249 339 m 329 -142 q 458 -119 415 -142 q 500 -57 500 -96 q 484 -8 500 -26 q 421 19 468 11 l 214 53 q 167 -54 167 0 q 203 -122 167 -101 q 329 -142 239 -142 m 261 950 q 300 983 283 972 q 333 994 317 994 q 392 961 358 994 l 542 810 l 489 750 l 322 856 l 160 751 l 118 806 l 261 950 z "},"ģ":{"ha":660,"x_min":19,"x_max":678,"o":"m 301 754 q 228 792 261 754 q 249 820 238 799 q 260 876 260 842 q 251 951 260 911 q 236 1010 243 992 l 290 1010 q 316 983 290 1013 q 362 913 342 953 q 382 832 382 874 q 362 777 382 800 q 301 754 342 754 m 299 -231 q 95 -193 171 -231 q 19 -76 19 -156 q 58 16 19 -22 q 154 88 96 54 q 133 151 133 111 q 155 210 133 182 q 207 256 176 238 q 81 332 124 274 q 38 460 38 390 q 119 639 38 574 q 325 704 200 704 q 479 663 417 704 q 539 699 500 679 q 611 719 578 719 q 678 654 678 719 q 663 606 678 626 q 633 575 649 586 l 596 592 q 566 604 581 599 q 536 610 551 610 q 569 546 558 581 q 579 479 579 511 q 542 358 579 411 q 441 276 506 306 q 299 246 376 246 l 279 246 l 279 183 l 436 156 q 597 101 547 136 q 647 -11 647 65 q 599 -126 647 -76 q 472 -203 551 -176 q 299 -231 392 -231 m 307 339 q 370 350 347 339 q 404 392 393 361 q 415 479 415 422 q 394 578 415 549 q 313 608 372 608 q 226 579 249 608 q 203 471 203 550 q 226 368 203 397 q 307 339 249 339 m 329 -142 q 458 -119 415 -142 q 500 -57 500 -96 q 484 -8 500 -26 q 421 19 468 11 l 214 53 q 167 -54 167 0 q 203 -122 167 -101 q 329 -142 239 -142 z "},"ġ":{"ha":657,"x_min":19,"x_max":678,"o":"m 19 0 m 299 -231 q 95 -193 171 -231 q 19 -76 19 -156 q 58 16 19 -22 q 154 88 96 54 q 133 151 133 111 q 155 210 133 182 q 207 256 176 238 q 81 332 124 274 q 38 460 38 390 q 119 639 38 574 q 325 704 200 704 q 479 663 417 704 q 539 699 500 679 q 611 719 578 719 q 678 654 678 719 q 663 606 678 626 q 633 575 649 586 l 596 592 q 566 604 581 599 q 536 610 551 610 q 569 546 558 581 q 579 479 579 511 q 542 358 579 411 q 441 276 506 306 q 299 246 376 246 l 279 246 l 279 183 l 436 156 q 597 101 547 136 q 647 -11 647 65 q 599 -126 647 -76 q 472 -203 551 -176 q 299 -231 392 -231 m 307 339 q 370 350 347 339 q 404 392 393 361 q 415 479 415 422 q 394 578 415 549 q 313 608 372 608 q 226 579 249 608 q 203 471 203 550 q 226 368 203 397 q 307 339 249 339 m 329 -142 q 458 -119 415 -142 q 500 -57 500 -96 q 484 -8 500 -26 q 421 19 468 11 l 214 53 q 167 -54 167 0 q 203 -122 167 -101 q 329 -142 239 -142 m 322 783 q 253 812 281 783 q 226 885 226 840 q 257 962 226 929 q 332 994 288 994 q 402 967 375 994 q 429 894 429 940 q 400 816 429 849 q 322 783 371 783 z "},"h":{"ha":821,"x_min":26,"x_max":803,"o":"m 28 69 l 139 89 l 139 846 l 26 867 l 26 939 l 253 971 l 297 954 l 297 650 l 290 639 l 290 633 q 392 683 333 661 q 506 704 450 704 q 647 658 596 704 q 697 510 697 611 l 697 89 l 803 69 l 803 0 l 438 0 l 438 69 l 539 89 l 539 482 q 513 567 539 542 q 417 593 486 593 q 356 589 390 593 q 297 578 322 585 l 297 89 l 399 69 l 399 0 l 28 0 l 28 69 z "},"ħ":{"ha":821,"x_min":26,"x_max":803,"o":"m 28 69 l 139 89 l 139 754 l 26 754 l 26 847 l 139 847 l 139 876 l 49 904 l 49 950 l 250 971 l 297 951 l 297 847 l 486 847 l 486 754 l 297 754 l 297 639 l 290 628 l 290 621 q 383 668 322 643 q 506 693 443 693 q 647 647 596 693 q 697 499 697 600 l 697 89 l 803 69 l 803 0 l 438 0 l 438 69 l 539 89 l 539 471 q 513 556 539 531 q 417 582 486 582 q 297 567 364 582 l 297 89 l 399 69 l 399 0 l 28 0 l 28 69 z "},"ĥ":{"ha":821,"x_min":7,"x_max":803,"o":"m 7 0 m 28 69 l 139 89 l 139 846 l 26 867 l 26 939 l 253 971 l 297 954 l 297 650 l 290 639 l 290 633 q 392 683 333 661 q 506 704 450 704 q 647 658 596 704 q 697 510 697 611 l 697 89 l 803 69 l 803 0 l 438 0 l 438 69 l 539 89 l 539 482 q 513 567 539 542 q 417 593 486 593 q 356 589 390 593 q 297 578 322 585 l 297 89 l 399 69 l 399 0 l 28 0 l 28 69 m 150 1164 q 189 1197 172 1186 q 222 1208 206 1208 q 281 1175 247 1208 l 431 1024 l 378 964 l 211 1069 l 49 965 l 7 1019 l 150 1164 z "},"ḥ":{"ha":821,"x_min":26,"x_max":803,"o":"m 26 0 m 28 69 l 139 89 l 139 846 l 26 867 l 26 939 l 253 971 l 297 954 l 297 650 l 290 639 l 290 633 q 392 683 333 661 q 506 704 450 704 q 647 658 596 704 q 697 510 697 611 l 697 89 l 803 69 l 803 0 l 438 0 l 438 69 l 539 89 l 539 482 q 513 567 539 542 q 417 593 486 593 q 356 589 390 593 q 297 578 322 585 l 297 89 l 399 69 l 399 0 l 28 0 l 28 69 m 404 -269 q 335 -241 363 -269 q 308 -167 308 -212 q 339 -90 308 -122 q 414 -57 369 -57 q 484 -84 457 -57 q 511 -157 511 -111 q 482 -237 511 -204 q 404 -269 453 -269 z "},"i":{"ha":424,"x_min":31,"x_max":400,"o":"m 200 783 q 131 812 158 783 q 104 885 104 840 q 135 962 104 929 q 210 994 165 994 q 280 967 253 994 q 307 894 307 940 q 277 816 307 849 q 200 783 247 783 m 31 69 l 142 89 l 142 569 l 31 590 l 31 663 l 256 697 l 300 679 l 300 89 l 400 69 l 400 0 l 31 0 l 31 69 z "},"ı":{"ha":424,"x_min":29,"x_max":400,"o":"m 31 69 l 142 89 l 142 569 l 29 590 l 29 663 l 256 697 l 300 679 l 300 89 l 400 69 l 400 0 l 31 0 l 31 69 z "},"í":{"ha":424,"x_min":29,"x_max":400,"o":"m 51 796 l 192 958 q 227 995 211 982 q 261 1008 243 1008 q 312 978 286 1008 q 342 900 338 949 l 97 743 l 51 796 m 31 0 l 31 69 l 142 89 l 142 569 l 29 590 l 29 663 l 256 697 l 300 679 l 300 89 l 400 69 l 400 0 l 31 0 z "},"ĭ":{"ha":424,"x_min":-3,"x_max":443,"o":"m 0 0 m 31 69 l 142 89 l 142 569 l 29 590 l 29 663 l 256 697 l 300 679 l 300 89 l 400 69 l 400 0 l 31 0 l 31 69 m 90 992 q 103 956 90 983 q 148 902 115 928 q 236 876 181 876 q 327 902 293 876 q 375 957 361 928 q 389 993 389 986 l 443 974 q 426 908 443 958 q 360 812 408 858 q 228 765 313 765 q 88 808 139 765 q 17 898 36 851 q -3 958 -3 944 l 90 992 z "},"ǐ":{"ha":424,"x_min":10,"x_max":431,"o":"m 10 0 m 31 69 l 142 89 l 142 569 l 29 590 l 29 663 l 256 697 l 300 679 l 300 89 l 400 69 l 400 0 l 31 0 l 31 69 m 217 750 q 187 763 204 750 q 139 806 169 776 l 10 932 l 65 993 l 228 883 l 389 993 l 431 940 l 294 806 q 248 763 265 776 q 217 750 231 750 z "},"î":{"ha":424,"x_min":-15,"x_max":400,"o":"m 113 943 q 192 1000 167 1000 q 261 950 214 1000 l 392 813 l 340 756 l 183 858 l 25 757 l -15 808 l 113 943 m 31 69 l 142 89 l 142 569 l 29 590 l 29 663 l 256 697 l 300 679 l 300 89 l 400 69 l 400 0 l 31 0 l 31 69 z "},"ȉ":{"ha":424,"x_min":-64,"x_max":413,"o":"m 0 0 m 31 69 l 142 89 l 142 569 l 29 590 l 29 663 l 256 697 l 300 679 l 300 89 l 400 69 l 400 0 l 31 0 l 31 69 m 178 779 l 119 739 l -64 943 q -22 999 -46 979 q 24 1018 3 1018 q 59 1004 46 1018 q 81 974 72 990 q 92 953 89 958 l 178 779 m 413 779 l 354 739 l 171 943 q 213 999 189 979 q 258 1018 238 1018 q 296 1003 283 1018 q 325 953 308 988 l 413 779 z "},"ï":{"ha":425,"x_min":-54,"x_max":417,"o":"m 35 785 q -29 811 -4 785 q -54 878 -54 838 q -26 948 -54 918 q 43 978 3 978 q 107 953 82 978 q 132 888 132 929 q 105 815 132 844 q 35 785 78 785 m 319 785 q 256 811 281 785 q 232 878 232 838 q 260 949 232 919 q 329 978 288 978 q 392 953 368 978 q 417 888 417 929 q 390 815 417 844 q 319 785 363 785 m 33 0 l 33 69 l 144 89 l 144 569 l 32 590 l 32 663 l 258 697 l 303 679 l 303 89 l 403 69 l 403 0 l 33 0 z "},"ị":{"ha":424,"x_min":31,"x_max":400,"o":"m 31 0 m 200 783 q 131 812 158 783 q 104 885 104 840 q 135 962 104 929 q 210 994 165 994 q 280 967 253 994 q 307 894 307 940 q 277 816 307 849 q 200 783 247 783 m 31 69 l 142 89 l 142 569 l 31 590 l 31 663 l 256 697 l 300 679 l 300 89 l 400 69 l 400 0 l 31 0 l 31 69 m 214 -269 q 145 -241 172 -269 q 118 -167 118 -212 q 149 -90 118 -122 q 224 -57 179 -57 q 294 -84 267 -57 q 321 -157 321 -111 q 292 -237 321 -204 q 214 -269 263 -269 z "},"ì":{"ha":424,"x_min":29,"x_max":400,"o":"m 31 900 q 60 978 35 949 q 111 1008 85 1008 q 142 997 128 1008 q 179 958 156 985 l 319 796 l 274 743 l 31 900 m 31 69 l 142 89 l 142 569 l 29 590 l 29 663 l 256 697 l 300 679 l 300 89 l 400 69 l 400 0 l 31 0 l 31 69 z "},"ỉ":{"ha":424,"x_min":29,"x_max":400,"o":"m 29 0 m 31 69 l 142 89 l 142 569 l 29 590 l 29 663 l 256 697 l 300 679 l 300 89 l 400 69 l 400 0 l 31 0 l 31 69 m 178 744 q 163 789 163 772 q 175 817 163 804 q 218 849 188 831 q 247 870 238 860 q 257 897 257 881 q 199 931 257 931 q 119 919 161 931 q 99 971 99 944 q 121 1005 99 993 q 199 1017 143 1017 q 331 988 283 1017 q 378 906 378 960 q 360 853 378 876 q 306 808 343 829 q 269 787 278 794 q 261 765 261 779 l 263 754 l 178 744 z "},"ȋ":{"ha":424,"x_min":-3,"x_max":443,"o":"m 0 0 m 31 69 l 142 89 l 142 569 l 29 590 l 29 663 l 256 697 l 300 679 l 300 89 l 400 69 l 400 0 l 31 0 l 31 69 m 351 767 q 339 803 351 775 q 293 856 326 831 q 204 882 260 882 q 113 856 147 882 q 65 801 79 831 q 51 765 51 772 l -3 785 q 15 850 -3 800 q 81 947 32 900 q 214 993 129 993 q 353 950 303 993 q 424 860 404 907 q 443 800 443 814 l 351 767 z "},"ĳ":{"ha":813,"x_min":31,"x_max":721,"o":"m 31 0 m 200 783 q 131 812 158 783 q 104 885 104 840 q 135 962 104 929 q 210 994 165 994 q 280 967 253 994 q 307 894 307 940 q 277 816 307 849 q 200 783 247 783 m 31 69 l 142 89 l 142 569 l 31 590 l 31 663 l 256 697 l 300 679 l 300 89 l 400 69 l 400 0 l 31 0 l 31 69 m 614 783 q 545 812 572 783 q 518 885 518 840 q 549 962 518 929 q 624 994 579 994 q 694 967 667 994 q 721 894 721 940 q 692 816 721 849 q 614 783 663 783 m 554 -233 q 486 -228 518 -233 q 435 -218 454 -224 q 413 -211 417 -212 l 413 -147 l 557 -114 l 557 569 l 446 590 l 446 663 l 671 697 l 715 679 l 715 -111 q 674 -201 715 -168 q 554 -233 633 -233 z "},"ī":{"ha":424,"x_min":-43,"x_max":400,"o":"m -43 824 l -28 928 l 396 928 l 381 824 l -43 824 m 31 0 l 31 69 l 142 89 l 142 569 l 29 590 l 29 663 l 256 697 l 300 679 l 300 89 l 400 69 l 400 0 l 31 0 z "},"į":{"ha":424,"x_min":31,"x_max":439,"o":"m 200 783 q 131 812 158 783 q 104 885 104 840 q 135 962 104 929 q 210 994 165 994 q 280 967 253 994 q 307 894 307 940 q 278 816 307 849 q 200 783 249 783 m 142 89 l 142 569 l 31 590 l 31 663 l 256 697 l 300 679 l 300 89 l 400 69 l 400 0 l 354 0 q 303 -52 325 -22 q 281 -114 281 -82 q 333 -165 281 -165 q 408 -137 363 -165 l 439 -189 q 418 -210 439 -192 q 365 -244 397 -228 q 293 -260 332 -260 q 201 -233 236 -260 q 165 -157 165 -207 q 194 -67 165 -107 q 271 0 224 -28 l 31 0 l 31 69 l 142 89 z "},"ĩ":{"ha":424,"x_min":-36,"x_max":478,"o":"m 0 0 m 31 69 l 142 89 l 142 569 l 29 590 l 29 663 l 256 697 l 300 679 l 300 89 l 400 69 l 400 0 l 31 0 l 31 69 m 13 917 q 53 956 28 943 q 108 969 78 969 q 214 949 139 969 l 335 910 l 435 960 l 478 921 l 428 842 q 336 788 397 788 q 273 798 308 788 q 231 810 238 808 l 106 849 l 6 799 l -36 838 l 13 917 z "},"j":{"ha":389,"x_min":-11,"x_max":297,"o":"m 190 783 q 122 812 149 783 q 94 885 94 840 q 125 962 94 929 q 200 994 156 994 q 270 967 243 994 q 297 894 297 940 q 268 816 297 849 q 190 783 239 783 m 131 -233 q 63 -228 94 -233 q 12 -218 31 -224 q -11 -211 -7 -212 l -11 -147 l 133 -114 l 133 569 l 22 590 l 22 663 l 247 697 l 292 679 l 292 -111 q 251 -201 292 -168 q 131 -233 210 -233 z "},"ȷ":{"ha":389,"x_min":-11,"x_max":292,"o":"m 133 -114 l 133 569 l 22 590 l 22 663 l 247 697 l 292 679 l 292 -111 q 251 -201 292 -168 q 131 -233 210 -233 q 63 -228 94 -233 q 12 -218 31 -224 q -11 -211 -7 -212 l -11 -147 l 133 -114 z "},"ĵ":{"ha":389,"x_min":-11,"x_max":425,"o":"m 0 0 m 133 -114 l 133 569 l 22 590 l 22 663 l 247 697 l 292 679 l 292 -111 q 251 -201 292 -168 q 131 -233 210 -233 q 63 -228 94 -233 q 12 -218 31 -224 q -11 -211 -7 -212 l -11 -147 l 133 -114 m 144 950 q 183 983 167 972 q 217 994 200 994 q 275 961 242 994 l 425 810 l 372 750 l 206 856 l 43 751 l 1 806 l 144 950 z "},"k":{"ha":728,"x_min":22,"x_max":764,"o":"m 133 89 l 133 850 l 22 872 l 22 939 l 257 971 l 292 935 l 292 424 l 354 424 l 488 589 l 488 604 l 408 619 l 408 690 l 714 690 l 714 624 l 619 601 l 467 408 l 644 100 l 764 69 l 764 0 l 496 0 l 496 26 q 483 68 496 50 l 335 332 l 292 332 l 292 89 l 385 69 l 385 0 l 24 0 l 24 69 l 133 89 z "},"ķ":{"ha":726,"x_min":22,"x_max":764,"o":"m 133 89 l 133 850 l 22 872 l 22 939 l 257 971 l 292 935 l 292 424 l 354 424 l 488 589 l 488 604 l 408 622 l 408 690 l 714 690 l 714 621 l 619 601 l 467 408 l 644 100 l 764 69 l 764 0 l 496 0 l 496 26 q 483 68 496 50 l 335 332 l 292 332 l 292 89 l 385 69 l 385 0 l 24 0 l 24 69 l 133 89 m 336 -282 q 357 -158 357 -212 q 326 -74 357 -104 q 399 -36 360 -36 q 458 -59 439 -36 q 478 -114 478 -82 q 458 -193 478 -156 q 415 -258 439 -231 q 390 -282 390 -285 l 336 -282 z "},"ĸ":{"ha":736,"x_min":31,"x_max":771,"o":"m 142 89 l 142 569 l 31 590 l 31 663 l 256 697 l 300 679 l 300 424 l 363 424 l 494 589 l 494 604 l 417 619 l 417 690 l 721 690 l 721 624 l 628 601 l 475 408 l 653 100 l 771 69 l 771 0 l 504 0 l 504 26 q 492 68 504 50 l 343 332 l 300 332 l 300 89 l 393 69 l 393 0 l 32 0 l 32 69 l 142 89 z "},"l":{"ha":418,"x_min":19,"x_max":390,"o":"m 21 69 l 132 89 l 132 846 l 19 867 l 19 939 l 246 971 l 290 954 l 290 89 l 390 69 l 390 0 l 21 0 l 21 69 z "},"ĺ":{"ha":418,"x_min":-3,"x_max":396,"o":"m -3 1004 l 189 1135 q 233 1162 210 1150 q 268 1174 256 1174 q 311 1146 296 1174 q 326 1081 326 1118 q 324 1050 326 1069 l 31 946 l -3 1004 m 26 0 l 26 69 l 136 89 l 136 846 l 25 867 l 25 939 l 250 971 l 294 954 l 294 89 l 396 69 l 396 0 l 26 0 z "},"ľ":{"ha":435,"x_min":22,"x_max":499,"o":"m 357 751 q 373 823 367 782 q 379 894 379 864 q 372 942 379 919 q 353 978 364 964 q 421 1008 376 1008 q 479 985 460 1008 q 499 932 499 963 q 479 856 499 896 q 440 787 460 815 q 413 751 419 758 l 357 751 m 25 0 l 25 69 l 135 89 l 135 846 l 22 867 l 22 939 l 249 971 l 293 954 l 293 89 l 394 69 l 394 0 l 25 0 z "},"ļ":{"ha":418,"x_min":22,"x_max":394,"o":"m 25 0 l 25 69 l 135 89 l 135 846 l 22 867 l 22 939 l 249 971 l 293 954 l 293 89 l 394 69 l 394 0 l 25 0 m 146 -282 q 159 -231 151 -267 q 167 -158 167 -194 q 136 -74 167 -104 q 208 -36 169 -36 q 268 -59 249 -36 q 288 -114 288 -82 q 268 -193 288 -156 q 225 -258 249 -231 q 201 -282 201 -285 l 146 -282 z "},"ŀ":{"ha":418,"x_min":19,"x_max":513,"o":"m 19 0 m 21 69 l 132 89 l 132 846 l 19 867 l 19 939 l 246 971 l 290 954 l 290 89 l 390 69 l 390 0 l 21 0 l 21 69 m 413 411 q 347 438 372 411 q 321 507 321 464 q 350 580 321 549 q 421 611 379 611 q 487 585 461 611 q 513 517 513 560 q 485 442 513 474 q 413 411 457 411 z "},"ǉ":{"ha":807,"x_min":19,"x_max":715,"o":"m 19 0 m 21 69 l 132 89 l 132 846 l 19 867 l 19 939 l 246 971 l 290 954 l 290 89 l 390 69 l 390 0 l 21 0 l 21 69 m 608 783 q 540 812 567 783 q 513 885 513 840 q 543 962 513 929 q 618 994 574 994 q 688 967 661 994 q 715 894 715 940 q 686 816 715 849 q 608 783 657 783 m 549 -233 q 481 -228 513 -233 q 430 -218 449 -224 q 407 -211 411 -212 l 407 -147 l 551 -114 l 551 569 l 440 590 l 440 663 l 665 697 l 710 679 l 710 -111 q 669 -201 710 -168 q 549 -233 628 -233 z "},"ł":{"ha":424,"x_min":15,"x_max":411,"o":"m 29 69 l 139 89 l 139 418 l 15 374 l 15 456 l 139 501 l 139 846 l 28 867 l 28 939 l 253 971 l 297 954 l 297 560 l 411 603 l 411 515 l 297 475 l 297 89 l 399 69 l 399 0 l 29 0 l 29 69 z "},"m":{"ha":1224,"x_min":28,"x_max":1206,"o":"m 31 69 l 140 89 l 140 569 l 28 592 l 28 663 l 251 697 l 299 635 q 406 685 349 667 q 508 704 464 704 q 608 685 565 704 q 672 629 650 665 q 783 681 711 658 q 910 704 856 704 q 1051 654 1000 704 q 1101 514 1101 604 l 1101 89 l 1206 69 l 1206 0 l 840 0 l 840 69 l 942 89 l 942 479 q 916 569 942 544 q 822 593 890 593 q 757 588 794 593 q 694 576 719 583 q 699 524 699 547 l 699 89 l 796 69 l 796 0 l 446 0 l 446 69 l 540 89 l 540 479 q 515 569 540 544 q 421 593 490 593 q 299 575 368 593 l 299 89 l 400 69 l 400 0 l 31 0 l 31 69 z "},"n":{"ha":824,"x_min":32,"x_max":806,"o":"m 32 69 l 142 89 l 142 569 l 32 590 l 32 663 l 261 697 l 290 639 l 294 636 q 397 685 338 664 q 508 706 457 706 q 651 656 603 706 q 700 510 700 607 l 700 89 l 806 69 l 806 0 l 440 0 l 440 69 l 542 89 l 542 482 q 515 567 542 543 q 419 592 488 592 q 300 578 357 592 l 300 89 l 401 69 l 401 0 l 32 0 l 32 69 z "},"ń":{"ha":824,"x_min":32,"x_max":806,"o":"m 288 796 l 428 958 q 463 995 447 982 q 497 1008 479 1008 q 548 978 522 1008 q 578 900 574 949 l 333 743 l 288 796 m 32 69 l 142 89 l 142 569 l 32 590 l 32 663 l 261 697 l 290 639 l 294 636 q 397 685 338 664 q 508 706 457 706 q 651 656 603 706 q 700 510 700 607 l 700 89 l 806 69 l 806 0 l 440 0 l 440 69 l 542 89 l 542 482 q 515 567 542 543 q 419 592 488 592 q 300 578 357 592 l 300 89 l 401 69 l 401 0 l 32 0 l 32 69 z "},"ŉ":{"ha":833,"x_min":14,"x_max":806,"o":"m 14 0 m 18 751 q 34 823 28 782 q 40 894 40 864 q 33 942 40 919 q 14 978 25 964 q 82 1008 38 1008 q 140 985 121 1008 q 160 932 160 963 q 140 856 160 896 q 101 787 121 815 q 74 751 81 758 l 18 751 m 32 69 l 142 89 l 142 569 l 32 590 l 32 663 l 261 697 l 290 639 l 294 636 q 397 685 338 664 q 508 706 457 706 q 651 656 603 706 q 700 510 700 607 l 700 89 l 806 69 l 806 0 l 440 0 l 440 69 l 542 89 l 542 482 q 515 567 542 543 q 419 592 488 592 q 300 578 357 592 l 300 89 l 401 69 l 401 0 l 32 0 l 32 69 z "},"ň":{"ha":824,"x_min":32,"x_max":806,"o":"m 407 750 q 377 763 394 750 q 329 806 360 776 l 200 932 l 256 993 l 417 883 l 579 993 l 621 940 l 485 806 q 438 763 456 776 q 407 750 421 750 m 32 69 l 142 89 l 142 569 l 32 590 l 32 663 l 261 697 l 290 639 l 294 636 q 397 685 338 664 q 508 706 457 706 q 651 656 603 706 q 700 510 700 607 l 700 89 l 806 69 l 806 0 l 440 0 l 440 69 l 542 89 l 542 482 q 515 567 542 543 q 419 592 488 592 q 300 578 357 592 l 300 89 l 401 69 l 401 0 l 32 0 l 32 69 z "},"ņ":{"ha":824,"x_min":32,"x_max":806,"o":"m 32 69 l 142 89 l 142 569 l 32 590 l 32 663 l 261 697 l 290 639 l 294 636 q 397 685 338 664 q 508 706 457 706 q 651 656 603 706 q 700 510 700 607 l 700 89 l 806 69 l 806 0 l 440 0 l 440 69 l 542 89 l 542 482 q 515 567 542 543 q 419 592 488 592 q 300 578 357 592 l 300 89 l 401 69 l 401 0 l 32 0 l 32 69 m 356 -282 q 376 -158 376 -212 q 346 -74 376 -104 q 418 -36 379 -36 q 478 -59 458 -36 q 497 -114 497 -82 q 478 -193 497 -156 q 434 -258 458 -231 q 410 -282 410 -285 l 356 -282 z "},"ṅ":{"ha":824,"x_min":32,"x_max":806,"o":"m 32 0 m 32 69 l 142 89 l 142 569 l 32 590 l 32 663 l 261 697 l 290 639 l 294 636 q 397 685 338 664 q 508 706 457 706 q 651 656 603 706 q 700 510 700 607 l 700 89 l 806 69 l 806 0 l 440 0 l 440 69 l 542 89 l 542 482 q 515 567 542 543 q 419 592 488 592 q 300 578 357 592 l 300 89 l 401 69 l 401 0 l 32 0 l 32 69 m 406 783 q 337 812 364 783 q 310 885 310 840 q 340 962 310 929 q 415 994 371 994 q 485 967 458 994 q 513 894 513 940 q 483 816 513 849 q 406 783 454 783 z "},"ŋ":{"ha":792,"x_min":32,"x_max":700,"o":"m 539 -233 q 463 -227 503 -233 q 397 -211 424 -221 l 397 -147 l 542 -114 l 542 482 q 515 567 542 543 q 419 592 488 592 q 300 578 357 592 l 300 89 l 401 69 l 401 0 l 32 0 l 32 69 l 142 89 l 142 569 l 32 590 l 32 663 l 261 697 l 290 638 l 294 636 q 397 685 338 664 q 508 706 457 706 q 651 656 603 706 q 700 510 700 607 l 700 -111 q 658 -201 700 -169 q 539 -233 615 -233 z "},"ɲ":{"ha":815,"x_min":-11,"x_max":797,"o":"m 131 -233 q 55 -227 94 -233 q -11 -211 15 -221 l -11 -147 l 133 -114 l 133 569 l 24 590 l 24 663 l 253 697 l 282 638 l 286 636 q 389 685 329 664 q 500 706 449 706 q 643 656 594 706 q 692 510 692 607 l 692 89 l 797 69 l 797 0 l 432 0 l 432 69 l 533 89 l 533 482 q 506 567 533 543 q 411 592 479 592 q 292 578 349 592 l 292 -111 q 249 -201 292 -169 q 131 -233 207 -233 z "},"ǌ":{"ha":1213,"x_min":32,"x_max":1121,"o":"m 32 0 m 32 69 l 142 89 l 142 569 l 32 590 l 32 663 l 261 697 l 290 639 l 294 636 q 397 685 338 664 q 508 706 457 706 q 651 656 603 706 q 700 510 700 607 l 700 89 l 806 69 l 806 0 l 440 0 l 440 69 l 542 89 l 542 482 q 515 567 542 543 q 419 592 488 592 q 300 578 357 592 l 300 89 l 401 69 l 401 0 l 32 0 l 32 69 m 1014 783 q 945 812 972 783 q 918 885 918 840 q 949 962 918 929 q 1024 994 979 994 q 1094 967 1067 994 q 1121 894 1121 940 q 1092 816 1121 849 q 1014 783 1063 783 m 954 -233 q 886 -228 918 -233 q 835 -218 854 -224 q 813 -211 817 -212 l 813 -147 l 957 -114 l 957 569 l 846 590 l 846 663 l 1071 697 l 1115 679 l 1115 -111 q 1074 -201 1115 -168 q 954 -233 1033 -233 z "},"ñ":{"ha":824,"x_min":32,"x_max":806,"o":"m 526 790 q 421 814 494 790 l 296 853 l 196 801 l 154 842 l 203 919 q 243 960 218 946 q 299 974 268 974 q 404 951 335 974 l 525 913 l 625 964 l 668 924 l 619 844 q 526 790 586 790 m 32 69 l 142 89 l 142 569 l 32 590 l 32 663 l 261 697 l 290 639 l 294 636 q 397 685 338 664 q 508 706 457 706 q 651 656 603 706 q 700 510 700 607 l 700 89 l 806 69 l 806 0 l 440 0 l 440 69 l 542 89 l 542 482 q 515 567 542 543 q 419 592 488 592 q 300 578 357 592 l 300 89 l 401 69 l 401 0 l 32 0 l 32 69 z "},"o":{"ha":719,"x_min":35,"x_max":683,"o":"m 346 -17 q 110 74 186 -17 q 35 333 35 165 q 72 518 35 433 q 187 654 110 603 q 376 706 264 706 q 608 615 532 706 q 683 365 683 524 q 600 91 683 199 q 346 -17 517 -17 m 371 79 q 483 142 454 79 q 513 340 513 206 q 499 492 513 436 q 454 574 486 547 q 363 601 422 601 q 263 574 297 601 q 217 491 229 546 q 206 340 206 436 q 219 192 206 247 q 267 108 232 138 q 371 79 303 79 z "},"ó":{"ha":740,"x_min":47,"x_max":696,"o":"m 390 958 q 426 995 410 982 q 460 1008 442 1008 q 510 978 485 1008 q 540 900 536 949 l 296 743 l 250 796 l 390 958 m 358 -17 q 123 74 199 -17 q 47 333 47 165 q 85 518 47 433 q 199 654 122 603 q 388 706 275 706 q 619 615 543 706 q 696 365 696 524 q 613 91 696 199 q 358 -17 529 -17 m 383 79 q 495 142 467 79 q 524 340 524 206 q 511 492 524 436 q 467 574 499 547 q 375 601 435 601 q 276 574 310 601 q 230 491 242 546 q 218 340 218 436 q 231 192 218 247 q 280 108 244 138 q 383 79 315 79 z "},"ŏ":{"ha":719,"x_min":35,"x_max":683,"o":"m 35 0 m 346 -17 q 110 74 186 -17 q 35 333 35 165 q 72 518 35 433 q 187 654 110 603 q 376 706 264 706 q 608 615 532 706 q 683 365 683 524 q 600 91 683 199 q 346 -17 517 -17 m 371 79 q 483 142 454 79 q 513 340 513 206 q 499 492 513 436 q 454 574 486 547 q 363 601 422 601 q 263 574 297 601 q 217 491 229 546 q 206 340 206 436 q 219 192 206 247 q 267 108 232 138 q 371 79 303 79 m 229 992 q 242 956 229 983 q 287 902 254 928 q 375 876 319 876 q 466 902 432 876 q 514 957 500 928 q 528 993 528 986 l 582 974 q 565 908 582 958 q 499 812 547 858 q 367 765 451 765 q 226 808 278 765 q 156 898 175 851 q 136 958 136 944 l 229 992 z "},"ǒ":{"ha":719,"x_min":35,"x_max":683,"o":"m 35 0 m 346 -17 q 110 74 186 -17 q 35 333 35 165 q 72 518 35 433 q 187 654 110 603 q 376 706 264 706 q 608 615 532 706 q 683 365 683 524 q 600 91 683 199 q 346 -17 517 -17 m 371 79 q 483 142 454 79 q 513 340 513 206 q 499 492 513 436 q 454 574 486 547 q 363 601 422 601 q 263 574 297 601 q 217 491 229 546 q 206 340 206 436 q 219 192 206 247 q 267 108 232 138 q 371 79 303 79 m 356 750 q 326 763 343 750 q 278 806 308 776 l 149 932 l 204 993 l 367 883 l 528 993 l 569 940 l 433 806 q 387 763 404 776 q 356 750 369 750 z "},"ô":{"ha":740,"x_min":47,"x_max":696,"o":"m 314 950 q 388 994 358 994 q 446 961 413 994 l 594 810 l 542 750 l 375 856 l 214 751 l 171 806 l 314 950 m 358 -17 q 123 74 199 -17 q 47 333 47 165 q 85 518 47 433 q 199 654 122 603 q 388 706 275 706 q 619 615 543 706 q 696 365 696 524 q 613 91 696 199 q 358 -17 529 -17 m 383 79 q 495 142 467 79 q 524 340 524 206 q 511 492 524 436 q 467 574 499 547 q 375 601 435 601 q 276 574 310 601 q 230 491 242 546 q 218 340 218 436 q 231 192 218 247 q 280 108 244 138 q 383 79 315 79 z "},"ố":{"ha":719,"x_min":35,"x_max":715,"o":"m 35 0 m 346 -17 q 110 74 186 -17 q 35 333 35 165 q 72 518 35 433 q 187 654 110 603 q 376 706 264 706 q 608 615 532 706 q 683 365 683 524 q 600 91 683 199 q 346 -17 517 -17 m 371 79 q 483 142 454 79 q 513 340 513 206 q 499 492 513 436 q 454 574 486 547 q 363 601 422 601 q 263 574 297 601 q 217 491 229 546 q 206 340 206 436 q 219 192 206 247 q 267 108 232 138 q 371 79 303 79 m 257 950 q 296 983 279 972 q 329 994 313 994 q 388 961 354 994 l 538 810 l 485 750 l 318 856 l 156 751 l 114 806 l 257 950 m 567 1150 q 602 1186 586 1174 q 635 1200 618 1199 q 686 1170 661 1200 q 715 1092 711 1140 l 472 935 l 426 988 l 567 1150 z "},"ộ":{"ha":719,"x_min":35,"x_max":683,"o":"m 35 0 m 346 -17 q 110 74 186 -17 q 35 333 35 165 q 72 518 35 433 q 187 654 110 603 q 376 706 264 706 q 608 615 532 706 q 683 365 683 524 q 600 91 683 199 q 346 -17 517 -17 m 371 79 q 483 142 454 79 q 513 340 513 206 q 499 492 513 436 q 454 574 486 547 q 363 601 422 601 q 263 574 297 601 q 217 491 229 546 q 206 340 206 436 q 219 192 206 247 q 267 108 232 138 q 371 79 303 79 m 353 -269 q 284 -241 311 -269 q 257 -167 257 -212 q 288 -90 257 -122 q 363 -57 318 -57 q 433 -84 406 -57 q 460 -157 460 -111 q 431 -237 460 -204 q 353 -269 401 -269 m 292 950 q 331 983 314 972 q 364 994 347 994 q 422 961 389 994 l 572 810 l 519 750 l 353 856 l 190 751 l 149 806 l 292 950 z "}}}
